<svg id="Capa_1" data-name="Capa 1" xmlns="http://www.w3.org/2000/svg" xmlns:xlink="http://www.w3.org/1999/xlink" viewBox="0 0 403.87 691.71"><defs><style>.cls-1{fill:#252e3b;}.cls-2{fill:#6b7adb;}.cls-3{fill:url(#Degradado_sin_nombre);}.cls-4{fill:#eddad3;}.cls-5{fill:#e64646;}.cls-6{fill:#eea886;}.cls-7{fill:#e8734d;}.cls-8{fill:#a77860;}.cls-9{fill:#4754cc;}.cls-10{fill:#163342;}.cls-11{fill:#2f6b8c;}.cls-12{fill:#3b45a8;}.cls-13{fill:#d88a51;}.cls-14{fill:#ffa35f;}</style><linearGradient id="Degradado_sin_nombre" y1="242.54" x2="162.75" y2="242.54" gradientTransform="matrix(1, 0, 0, -1, 0, 694)" gradientUnits="userSpaceOnUse"><stop offset="0" stop-color="#ff9f55"/><stop offset="1" stop-color="#ffd255"/></linearGradient></defs><g id="Capa_2" data-name="Capa 2"><g id="Слой_1" data-name="Слой 1"><path class="cls-1" d="M346.24,392.38c-12.66,0-23-12-23-26.74s10.31-26.73,23-26.73,23,12,23,26.73S358.91,392.38,346.24,392.38Zm0-51.35c-11.49,0-20.84,11-20.84,24.61s9.35,24.61,20.84,24.61,20.85-11,20.85-24.61S357.74,341,346.24,341Z"/><rect class="cls-2" x="288.62" y="365.64" width="115.25" height="167.2"/><path class="cls-1" d="M232.23,363.47c-15.27,0-27.7-14.47-27.7-32.24S217,299,232.23,299s27.7,14.46,27.7,32.24S247.51,363.47,232.23,363.47Zm0-61.92c-13.86,0-25.13,13.31-25.13,29.68s11.27,29.67,25.13,29.67,25.14-13.31,25.14-29.67S246.09,301.55,232.23,301.55Z"/><path class="cls-1" d="M81.37,410.32c-19,0-34.51-18.05-34.51-40.23s15.48-40.22,34.51-40.22,34.52,18,34.52,40.22S100.41,410.32,81.37,410.32Zm0-77.89c-17.62,0-31.95,16.9-31.95,37.66s14.33,37.66,32,37.66,32-16.89,32-37.66S99,332.43,81.37,332.43Z"/><rect class="cls-3" y="370.09" width="162.75" height="162.75"/><rect class="cls-4" x="162.75" y="331.23" width="138.97" height="201.61"/><path class="cls-5" d="M254.89,170c-6.22-21.42,13.1-45.93,13.1-45.93-11.87-11.11-27.23-15.38-33.8-16.5s-25-5.08-25-5.08H179.42s-19.09,3.7-25.46,4.8c-6.57,1.14-21.41,6.72-31.62,15.94,0,0,17.17,28.9,10.95,50.33,0,0,5,34.76,8,47.84,1.56,6.72.05,27.86-.07,33.38-.18,7.92-1.38,30.46-3,49.83,0,0,17.83,10.61,56,11.52,37.81-2.45,57-11.52,57-11.52-2.39-23.07-3.94-42.49-4.89-50-.69-5.48.24-26.34.88-33.21C248.14,211.92,254.89,170,254.89,170Z"/><path class="cls-6" d="M212.11,80.78S210,94.2,214.36,103.25c0,0,4.74,21.18-17,22.62s-22.7-22.43-22.7-22.43,5.05-2.76,1.15-21.73S212.11,80.78,212.11,80.78Z"/><path class="cls-6" d="M197.16,3.73s28,3.89,24.72,48.65S193.93,94,192.28,94,167.6,95.38,164.6,40.88C164.6,40.88,162.92.56,197.16,3.73Z"/><path class="cls-6" d="M222,39.76s3-3.41,4.17,0-3.58,18-3.93,19.26c0,0-.52,1.32-1.27.61S222,39.76,222,39.76Z"/><path class="cls-6" d="M165.26,40.44s-3.06-3.33-4.17.05,4.16,18.6,4.42,19.16c0,0,.56,1.31,1.29.59S165.26,40.44,165.26,40.44Z"/><path class="cls-7" d="M222.17,46.61l-3.87,5.55s-.15-12-.84-13.85.58-8.43,0-9.78-19,4.11-49.45,1.68c0,0,3.61,10.72,1.65,11.53s-.7,14-.7,14L165.59,52s-4.2-22.57-3.93-26.36c.37-5.05-1.85-28.52,41-25.43a25.87,25.87,0,0,1,13.62,5c4.48,3.34,9.11,8.59,8.86,16C224.83,31,222.17,46.61,222.17,46.61Z"/><path class="cls-8" d="M180.1,87s11.59,12.94,29.23-.64c0,0-4.8,10.11-15.34,10.58S180.1,87,180.1,87Z"/><path class="cls-9" d="M195.45,364.69l60.47-11.21s-3.78-42.46-4.31-48.58c-.45-5.26-5.65-56.17-4.53-83.48,0,0-13.34-16.21-14.93-33.33L195,187.64h-.36l-37.25.86c-1.59,17.11-16,32.92-16,32.92.36,28.9-2.92,78.22-3.37,83.48-.52,6.12-7.46,47-7.46,47l63.62,12.81V365l.67-.15.67.15Z"/><path class="cls-10" d="M121,648.7s-3.85,9.28-7.1,13S98.22,672,98.16,682.88c-.08,11.84,21,8.56,29.17,8.12s8.85-6.76,12.31-13.47,7-5.57,7.6-11S144.55,649,144.55,649Z"/><path class="cls-11" d="M120.6,645.27l.64,6.09a37.74,37.74,0,0,0,23.31,0l-.08-7.67Z"/><path class="cls-10" d="M245,648.7s3.85,9.28,7.1,13,15.68,10.25,15.74,21.18c.08,11.84-20.95,8.56-29.17,8.12s-8.85-6.76-12.31-13.47-7-5.57-7.6-11S221.38,649,221.38,649Z"/><path class="cls-11" d="M245.33,645.27l-.64,6.09a37.74,37.74,0,0,1-23.31,0l.08-7.67Z"/><path class="cls-9" d="M262.77,493.37C262.77,508,249.38,647,249.38,647c-1.46,4.87-26.73,4.57-31.59,2.13s4.08-147.49,3.18-162.21S194.12,369.21,189.85,369.7,163.45,497.26,160,508.46s-12.75,140-12.75,140c-10.72,6.33-30.84.25-30.84.25s1.58-144.14,3-148,1.11-15.09,1.6-51.61c.36-27.29,10.45-106.77,15.53-145.19.18-1.37.35-2.68.52-3.94,1-7.48,1.74-13,2.1-15.61.15-1.14.24-1.74.24-1.74,1.36-.64,2.8-1.22,4.28-1.75,35.67-12.81,104.44.75,104.44.75a6.28,6.28,0,0,0,.12,1c.12.66.23,2,.42,3.55.4,3.39,1,8.44,1.67,14.29v.13l.06.53c2.4,20.84,5.79,51.36,5.47,54.53C255.47,360.45,262.77,478.76,262.77,493.37Z"/><polygon class="cls-12" points="212.16 225.32 194.78 225.32 177.41 225.32 161.21 241.52 161.21 290.85 194.78 290.85 228.35 290.85 228.35 241.52 212.16 225.32"/><path class="cls-5" d="M259.36,186.61s7.63,45.5,6.48,53.29-17.78,90.6-17.78,90.6l18.7,8.77s25.2-85.84,25.62-98.83-2.48-57.62-7.16-77.21-10.43-33-20.52-42.59S237,108.18,237,108.18Z"/><path class="cls-5" d="M130.22,186.61s-7.63,45.5-6.47,53.29,16.76,84.5,16.76,84.5l-17.68,14.87S97.62,253.43,97.2,240.44s2.48-57.62,7.16-77.21,10.43-33,20.52-42.59,27.73-12.46,27.73-12.46Z"/><path class="cls-9" d="M232.15,188.09s1.68-45.06,19.35-75.6c0,0-3.1-3.06-9.87-3.28,0,0-17,40.77-18,78.78S232.15,188.09,232.15,188.09Z"/><path class="cls-9" d="M157.35,188.5s-1.67-49.85-18.43-76.36c0,0,4.06-4.23,8.56-3.09,0,0,17.29,41.24,18.34,79.25S157.35,188.5,157.35,188.5Z"/><path class="cls-6" d="M262.85,344.61a24.51,24.51,0,0,1-20.23,8.76c-15-.81-19.39-7.44-18.38-10.36S260.73,337.54,262.85,344.61Z"/><path class="cls-6" d="M258.28,348.75s11.2-3.72,9.29-6.67-8.42,1.52-8.42,1.52Z"/><path class="cls-6" d="M126.94,344.61a24.51,24.51,0,0,0,20.23,8.76c15-.81,19.39-7.44,18.38-10.36S129.06,337.54,126.94,344.61Z"/><path class="cls-6" d="M131.51,348.75s-11.09-4-9.17-6.94,8.31,1.79,8.31,1.79Z"/><rect class="cls-13" x="108.33" y="238.12" width="172.22" height="104.86"/><rect class="cls-14" x="182.57" y="238.12" width="21.27" height="10.64"/></g></g></svg>