<svg xmlns="http://www.w3.org/2000/svg" xmlns:xlink="http://www.w3.org/1999/xlink" viewBox="0 0 200 76.52"><defs><style>.cls-1{fill:#4082c4;}.cls-2{fill:#e7d4ce;}.cls-3{fill:#4656a2;}.cls-4{fill:#e34658;}.cls-5{fill:#eea886;}.cls-6{fill:#183442;}.cls-7{fill:#a77961;}.cls-8{fill:#514e5a;}.cls-9{fill:#a99594;}.cls-10{fill:#fcc357;}.cls-11{fill:url(#linear-gradient);}.cls-12{fill:#efaa88;}.cls-13{font-size:12px;fill:#f2f2f2;font-family:MyriadPro-Regular, Myriad Pro;}.cls-14{letter-spacing:0.01em;}.cls-15{letter-spacing:-0.01em;}.cls-16{letter-spacing:0em;}</style><linearGradient id="linear-gradient" x1="11.12" y1="44.25" x2="47.29" y2="44.25" gradientUnits="userSpaceOnUse"><stop offset="0" stop-color="#5dc2d8"/><stop offset="1" stop-color="#556db3"/></linearGradient></defs><g id="Capa_2" data-name="Capa 2"><g id="Capa_3" data-name="Capa 3"><rect class="cls-1" width="200" height="76.52"/><g id="Capa_2-2" data-name="Capa 2"><path class="cls-2" d="M11,66.94a5.21,5.21,0,0,1-.62,1.13C10.07,68.39,9,69,9,69.91s1.83.75,2.54.71.77-.59,1.07-1.17.61-.49.67-1A6.14,6.14,0,0,0,13,67Z"/><path class="cls-2" d="M27.84,67.13a4.93,4.93,0,0,0,2,1.26c1,.22,1.72.5,1.73,1.1s-2.91,1-4.07.39c-1.73-.9-1.91-.63-2.1-1.08s.23-1.66.22-1.8S27.84,67.13,27.84,67.13Z"/><path class="cls-3" d="M25.18,36.89s1.05,7.61,1.48,10.18c.5,3,.67,5.49.81,7,.17,2,.51,12.25.63,12.82s-2.74.29-2.74.29-2.07-13.35-2.6-15.44c-.48-1.94-1.82-9.94-2.27-9.41s-3.23,9.89-3.56,11.42-3.5,13.52-3.5,13.52-2.37.51-3,0c0,0,2.07-11,2.28-13.88.08-1.1.73-13,2.58-17.88C16.29,33,25.18,36.89,25.18,36.89Z"/><path class="cls-4" d="M22.11,18.64a17.92,17.92,0,0,1,3.1.86c.36.31,1,3.35,1,4.19a33.25,33.25,0,0,1-.7,5.7,56.43,56.43,0,0,0-.11,9.26,39.14,39.14,0,0,1-11,.37s.95-6,.73-7.76c-.28-2.31-1-7.63-1-7.63s.74-3.58,1.22-4a20.39,20.39,0,0,1,3.89-1.08Z"/><path class="cls-5" d="M21,10.07s3.34-1.24,3.13,3.2-1,4.88-3.18,4.26-2.38-3.42-2.67-4.76S19.87,10.26,21,10.07Z"/><path class="cls-5" d="M22.66,19.34s-1.73,1.41-3.4-.79a11.84,11.84,0,0,0-.44-3.45c-.51-1.67,3.49,2.22,3.49,2.22s0,.19,0,.43a4,4,0,0,0,.13.68C22.56,19,22.53,18.89,22.66,19.34Z"/><path class="cls-6" d="M18.71,15s0-1.18.48-1.29.75.58.75.58l.39,0s-.35-1.2.12-1.48,3.27,0,3.63-.44-.16-2.8-.93-3-2.86-.72-4.18.47a1.25,1.25,0,0,0-1.19,1.43A11,11,0,0,0,18.71,15Z"/><path class="cls-7" d="M22.42,18.43c-2.59-.43-3-1.9-3-1.92a3.8,3.8,0,0,0,2.85,1.24A4,4,0,0,0,22.42,18.43Z"/><path class="cls-5" d="M19.75,13.17a.48.48,0,0,0-.9.28c.09.62.78,1.57,1,1.39S20,13.71,19.75,13.17Z"/><path class="cls-5" d="M18.36,18.74s1.56,3.16,3.86,2.9,1-2.46.75-2.81C23,18.83,21.59,17.94,18.36,18.74Z"/><path class="cls-4" d="M30.09,28.24a64.55,64.55,0,0,0,6.23,1.83l.34-2s-2.5-1-4.23-1.42A13.17,13.17,0,0,1,30.64,26c-.14-.07-2.89-3.41-3.09-3.77A8.44,8.44,0,0,0,26.12,20a3.69,3.69,0,0,0-1.65-.82c-1.82,1.54.65,4.45.65,4.45S28.28,27.41,30.09,28.24Z"/><rect class="cls-8" x="8.5" y="25.57" width="43.23" height="31.96" rx="15.98"/><path class="cls-9" d="M48.62,56.61h-.17v0h.17Zm-.35,0h-.18v0h.18Zm-.36,0h-.17v0h.17Zm-.35,0h-.18v0h.18Zm-.36,0H47v0h.17Zm-.35,0h-.18v0h.18Zm-.36,0h-.17v0h.17Zm-.35,0H46v0h.18Zm-.36,0h-.17v0h.17Zm-.35,0h-.18v0h.18Zm-.36,0h-.18v0h.18Zm-.35,0h-.18v0h.18Zm-.36,0h-.18v0h.18Zm-.35,0h-.18v0H44Zm-.36,0h-.18v0h.18Zm-.35,0h-.18v0h.18Zm-.36,0h-.18v0h.18Zm-.35,0h-.18v0h.18Zm-.36,0h-.18v0h.18Zm-.35,0H41.7v0h.18Zm-.36,0h-.18v0h.18Zm-.35,0H41v0h.18Zm-.36,0h-.18v0h.18Zm-.35,0h-.18v0h.18Zm-.36,0h-.18v0h.18Zm-.35,0h-.18v0h.18Zm-.36,0h-.18v0h.18Zm-.35,0h-.18v0H39Zm-.36,0H38.5v0h.18Zm-.36,0h-.17v0h.17Zm-.35,0h-.18v0H38Zm-.36,0h-.17v0h.17Zm-.35,0h-.18v0h.18Zm-.36,0h-.17v0h.17Zm-.35,0h-.18v0h.18Zm-.36,0H36v0h.17Zm-.35,0h-.18v0h.18Zm-.36,0h-.17v0h.17Zm-.35,0H35v0h.18Zm-.36,0H34.6v0h.17Zm-.35,0h-.18v0h.18Zm-.36,0h-.17v0h.17Zm-.35,0h-.18v0h.18Zm-.36,0h-.17v0h.17Zm-.35,0h-.18v0H33Zm-.36,0h-.18v0h.18Zm-.35,0h-.18v0h.18Zm-.36,0h-.18v0h.18Zm-.35,0H31.4v0h.18Zm-.36,0H31v0h.18Zm-.35,0h-.18v0h.18Zm-.36,0h-.18v0h.18Zm-.35,0H30v0h.18Zm-.36,0h-.18v0h.18Zm-.35,0h-.18v0h.18Zm-.36,0h-.18v0h.18Zm-.35,0h-.18v0h.18Zm-.36,0H28.2v0h.18Zm-.35,0h-.18v0H28Zm-.36,0h-.18v0h.18Zm-.35,0h-.18v0h.18Zm-.36,0h-.18v0H27Zm-.36,0h-.17v0h.17Zm-.35,0h-.18v0h.18Zm-.36,0h-.17v0h.17Zm-.35,0h-.18v0h.18Zm-.36,0H25v0h.17Zm-.35,0h-.18v0h.18Zm-.36,0H24.3v0h.17Zm-.35,0h-.18v0h.18Zm-.36,0h-.17v0h.17Zm-.35,0h-.18v0h.18Zm-.36,0h-.17v0h.17Zm-.35,0h-.18v0h.18Zm-.36,0h-.17v0h.17Zm-.35,0h-.18v0H22Zm-.36,0h-.17v0h.17Zm-.35,0H21.1v0h.18Zm-.36,0h-.17v0h.17Zm-.35,0h-.18v0h.18Zm-.36,0H20v0h.18Zm-.35,0h-.18v0h.18Zm-.36,0h-.18v0h.18Zm-.35,0H19v0h.18Zm-.36,0h-.18v0h.18Zm-.35,0h-.18v0h.18Zm-.36,0H17.9v0h.18Zm-.35,0h-.18v0h.18Zm-.36,0h-.18v0h.18Zm-.35,0h-.18v0H17Zm-.36,0h-.18v0h.18Zm-.35,0h-.18v0h.18Zm-.36,0h-.18v0H16Zm-.35,0h-.18v0h.18Zm-.36,0h-.18v0h.18Zm-.35,0h-.18v0h.18Zm-.36,0h-.18v0h.18Zm-.36,0H14v0h.17Zm-.35,0h-.18v0h.18Zm-.36,0h-.17v0h.17Zm-.35,0h-.18v0h.18Zm-.36,0h-.17v0h.17Zm-.35,0h-.18v0h.18Zm-.36,0h-.17v0H12Zm-.35,0h-.18v0h.18Zm37.11,0v0l.17,0v.05Zm-37.47,0-.18,0v0l.18,0Zm37.83-.05v0l.16,0,0,0ZM11,56.53l-.17-.07,0,0a.52.52,0,0,0,.16.06Zm38.51-.1,0,0,.16-.09,0,0Zm-38.84,0-.15-.09,0,0a.67.67,0,0,0,.14.09Zm39.15-.15,0,0,.13-.12,0,0Zm-39.44,0a.8.8,0,0,1-.13-.13l0,0,.13.12ZM50.05,56l0,0a1.71,1.71,0,0,1,.11-.14l0,0A.76.76,0,0,1,50.05,56Zm-39.94-.07-.1-.14,0,0a1.3,1.3,0,0,0,.1.15Zm40.15-.22,0,0a1.11,1.11,0,0,0,.07-.16l.05,0ZM9.92,55.61l-.06-.17h0l.06.16Zm40.48-.25,0,0c0-.05,0-.11,0-.17h0C50.43,55.24,50.41,55.3,50.4,55.36ZM9.8,55.27l0-.18h0a1,1,0,0,0,0,.17ZM50.46,55h0s0-.1,0-.15v0h0v0A.76.76,0,0,1,50.46,55ZM9.75,54.92v-.18H9.8v.17Zm40.72-.27h0v-.18h0ZM9.8,54.56H9.75v-.18H9.8Zm40.67-.27h0v-.18h0ZM9.8,54.2H9.75V54H9.8Zm40.67-.26h0v-.18h0ZM9.8,53.85H9.75v-.18H9.8Zm40.67-.27h0V53.4h0ZM9.8,53.49H9.75v-.17H9.8Zm40.67-.26h0v-.18h0ZM9.8,53.14H9.75V53H9.8Zm40.67-.27h0v-.18h0ZM9.8,52.78H9.75v-.17H9.8Zm40.67-.26h0v-.18h0ZM9.8,52.43H9.75v-.18H9.8Zm40.67-.27h0V52h0ZM9.8,52.07H9.75V51.9H9.8Zm40.67-.26h0v-.18h0ZM9.8,51.72H9.75v-.18H9.8Zm40.67-.27h0v-.18h0ZM9.8,51.36H9.75v-.17H9.8Zm40.67-.26h0v-.18h0ZM9.8,51H9.75v-.18H9.8Zm40.67-.27h0v-.18h0ZM9.8,50.65H9.75v-.17H9.8Zm40.67-.26h0v-.18h0ZM9.8,50.3H9.75v-.18H9.8ZM50.47,50h0v-.18h0ZM9.8,49.94H9.75v-.18H9.8Zm40.67-.26h0V49.5h0ZM9.8,49.59H9.75v-.18H9.8Zm40.67-.27h0v-.18h0ZM9.8,49.23H9.75v-.18H9.8ZM50.47,49h0v-.17h0ZM9.8,48.88H9.75V48.7H9.8Zm40.67-.27h0v-.18h0ZM9.8,48.52H9.75v-.18H9.8Zm40.67-.27h0v-.17h0ZM9.8,48.17H9.75V48H9.8Zm40.67-.27h0v-.18h0ZM9.8,47.81H9.75v-.18H9.8Zm40.67-.27h0v-.17h0ZM9.8,47.46H9.75v-.18H9.8Zm40.67-.27h0V47h0ZM9.8,47.1H9.75v-.18H9.8Zm40.67-.27h0v-.17h0ZM9.8,46.75H9.75v-.18H9.8Zm40.67-.27h0V46.3h0ZM9.8,46.39H9.75v-.18H9.8Zm40.67-.27h0V46h0ZM9.8,46H9.75v-.18H9.8Zm40.67-.27h0v-.18h0ZM9.8,45.68H9.75V45.5H9.8Zm40.67-.27h0v-.17h0ZM9.8,45.33H9.75v-.18H9.8Zm40.67-.27h0v-.18h0ZM9.8,45H9.75v-.18H9.8Zm40.67-.27h0v-.17h0ZM9.8,44.62H9.75v-.18H9.8Zm40.67-.27h0v-.18h0ZM9.8,44.26H9.75v-.18H9.8ZM50.47,44h0v-.17h0ZM9.8,43.9H9.75v-.17H9.8Zm40.67-.26h0v-.18h0ZM9.8,43.55H9.75v-.18H9.8Zm40.67-.27h0v-.17h0ZM9.8,43.19H9.75V43H9.8Zm40.67-.26h0v-.18h0ZM9.8,42.84H9.75v-.18H9.8Zm40.67-.27h0v-.18h0ZM9.8,42.48H9.75v-.17H9.8Zm40.67-.26h0V42h0ZM9.8,42.13H9.75V42H9.8Zm40.67-.27h0v-.18h0ZM9.8,41.77H9.75V41.6H9.8Zm40.67-.26h0v-.18h0ZM9.8,41.42H9.75v-.18H9.8Zm40.67-.27h0V41h0ZM9.8,41.06H9.75v-.17H9.8Zm40.67-.26h0v-.18h0ZM9.8,40.71H9.75v-.18H9.8Zm40.67-.27h0v-.18h0ZM9.8,40.35H9.75v-.17H9.8Zm40.67-.26h0v-.18h0ZM9.8,40H9.75v-.18H9.8Zm40.67-.27h0v-.18h0ZM9.8,39.64H9.75v-.17H9.8Zm40.67-.26h0V39.2h0ZM9.8,39.29H9.75v-.18H9.8ZM50.47,39h0v-.18h0ZM9.8,38.93H9.75v-.17H9.8Zm40.67-.26h0v-.18h0ZM9.8,38.58H9.75V38.4H9.8Zm40.67-.27h0v-.18h0ZM9.8,38.22H9.75v-.17H9.8ZM50.47,38h0v-.18h0ZM9.8,37.87H9.75v-.18H9.8Zm40.67-.27h0v-.18h0ZM9.8,37.51H9.75v-.18H9.8Zm40.67-.26h0v-.18h0ZM9.8,37.16H9.75V37H9.8Zm40.67-.27h0v-.18h0ZM9.8,36.8H9.75v-.18H9.8Zm40.67-.27h0v-.17h0ZM9.8,36.45H9.75v-.18H9.8Zm40.67-.27h0V36h0ZM9.8,36.09H9.75v-.18H9.8Zm40.67-.27h0v-.17h0ZM9.8,35.74H9.75v-.18H9.8Zm40.67-.27h0v-.18h0ZM9.8,35.38H9.75V35.2H9.8Zm40.67-.27h0v-.17h0ZM9.8,35H9.75v-.18H9.8Zm40.67-.27h0v-.18h0ZM9.8,34.67H9.75v-.18H9.8Zm40.67-.27h0v-.17h0ZM9.8,34.32H9.75v-.18H9.8Zm40.67-.27h0v-.18h0ZM9.8,34H9.75v-.18H9.8Zm40.67-.27h0v-.17h0ZM9.8,33.61H9.75v-.18H9.8Zm40.67-.27h0v-.18h0ZM9.8,33.25H9.75v-.18H9.8ZM50.47,33h0v-.17h0ZM9.8,32.9H9.75v-.18H9.8Zm40.67-.27h0v-.18h0ZM9.8,32.54H9.75v-.18H9.8Zm40.67-.27h0V32.1h0ZM9.8,32.19H9.75V32H9.8Zm40.67-.27h0v-.18h0ZM9.8,31.83H9.75v-.18H9.8Zm40.67-.27h0v-.17h0ZM9.8,31.47H9.75V31.3H9.8Zm40.67-.26h0V31h0ZM9.8,31.12H9.75v-.18H9.8Zm40.67-.27h0v-.17h0ZM9.8,30.76H9.75v-.17H9.8Zm40.67-.26h0v-.18h0ZM9.8,30.41H9.75v-.18H9.8Zm40.67-.27h0V30h0ZM9.8,30.05H9.75v-.17H9.8Zm40.67-.26h0v-.18h0ZM9.8,29.7H9.75v-.18H9.8Zm40.67-.27h0v-.18h0ZM9.8,29.34H9.75v-.17H9.8Zm40.67-.26h0V28.9h0ZM9.8,29H9.75v-.18H9.8Zm40.67-.27h0v-.18h0ZM9.8,28.63H9.75v-.17H9.8Zm40.67-.26h0v-.18h0v.18ZM9.8,28.28H9.75v0a.76.76,0,0,1,0-.15h0v.18ZM50.41,28l0-.18h0a1.13,1.13,0,0,1,0,.18ZM9.83,27.93H9.78a.84.84,0,0,1,.05-.17h0A1,1,0,0,0,9.83,27.93Zm40.5-.25a1.22,1.22,0,0,0-.07-.17l0,0a1.22,1.22,0,0,1,.07.17Zm-40.4-.09h0c0-.06,0-.11.07-.16l0,0A1,1,0,0,0,9.93,27.59Zm40.25-.23-.1-.14,0,0a1.3,1.3,0,0,1,.1.15Zm-40.09-.07,0,0a.76.76,0,0,1,.11-.14l0,0A1.71,1.71,0,0,0,10.09,27.29ZM50,27.08,49.84,27l0,0,.13.12ZM10.32,27l0,0,.13-.12,0,0Zm39.38-.17-.15-.09,0,0,.15.09ZM10.59,26.8l0,0a.51.51,0,0,1,.16-.09l0,0A.8.8,0,0,0,10.59,26.8Zm38.81-.12a1.15,1.15,0,0,0-.17-.06l0-.05.16.07Zm-38.49,0,0,0,.17-.05v0Zm38.15-.08-.17,0v0l.17,0Zm-37.81,0v0l.18,0v.05Zm37.47,0h-.19v-.05h.19Zm-.37,0h-.17v-.05h.17Zm-.35,0h-.18v-.05H48Zm-.36,0h-.17v-.05h.17Zm-.35,0h-.18v-.05h.18Zm-.36,0h-.18v-.05h.18Zm-.35,0H46.4v-.05h.18Zm-.36,0H46v-.05h.18Zm-.35,0h-.18v-.05h.18Zm-.36,0h-.18v-.05h.18Zm-.35,0H45v-.05h.18Zm-.36,0h-.18v-.05h.18Zm-.35,0h-.18v-.05h.18Zm-.36,0h-.18v-.05h.18Zm-.35,0h-.18v-.05h.18Zm-.36,0H43.2v-.05h.18Zm-.35,0h-.18v-.05H43Zm-.36,0h-.18v-.05h.18Zm-.35,0h-.18v-.05h.18Zm-.36,0h-.18v-.05H42Zm-.35,0h-.18v-.05h.18Zm-.36,0h-.18v-.05h.18Zm-.36,0h-.17v-.05h.17Zm-.35,0h-.18v-.05h.18Zm-.36,0H40v-.05h.17Zm-.35,0h-.18v-.05h.18Zm-.36,0H39.3v-.05h.17Zm-.35,0h-.18v-.05h.18Zm-.36,0h-.17v-.05h.17Zm-.35,0h-.18v-.05h.18Zm-.36,0h-.17v-.05h.17Zm-.35,0h-.18v-.05h.18Zm-.36,0h-.17v-.05h.17Zm-.35,0h-.18v-.05H37Zm-.36,0h-.17v-.05h.17Zm-.35,0H36.1v-.05h.18Zm-.36,0h-.17v-.05h.17Zm-.35,0h-.18v-.05h.18Zm-.36,0H35v-.05h.17Zm-.35,0h-.18v-.05h.18Zm-.36,0h-.18v-.05h.18Zm-.35,0H34v-.05h.18Zm-.36,0h-.18v-.05h.18Zm-.35,0h-.18v-.05h.18Zm-.36,0H32.9v-.05h.18Zm-.35,0h-.18v-.05h.18Zm-.36,0h-.18v-.05h.18Zm-.35,0h-.18v-.05H32Zm-.36,0h-.18v-.05h.18Zm-.35,0h-.18v-.05h.18Zm-.36,0h-.18v-.05H31Zm-.35,0h-.18v-.05h.18Zm-.36,0h-.18v-.05h.18Zm-.35,0h-.18v-.05h.18Zm-.36,0h-.18v-.05h.18Zm-.35,0H29v-.05h.18Zm-.36,0h-.18v-.05h.18Zm-.35,0h-.18v-.05h.18Zm-.36,0h-.18v-.05h.18Zm-.36,0h-.17v-.05h.17Zm-.35,0h-.18v-.05h.18Zm-.36,0h-.17v-.05H27Zm-.35,0h-.18v-.05h.18Zm-.36,0h-.17v-.05h.17Zm-.35,0H25.8v-.05H26Zm-.36,0h-.17v-.05h.17Zm-.35,0h-.18v-.05h.18Zm-.36,0h-.17v-.05h.17Zm-.35,0h-.18v-.05h.18Zm-.36,0H24v-.05h.17Zm-.35,0h-.18v-.05h.18Zm-.36,0h-.17v-.05h.17Zm-.35,0H23v-.05h.18Zm-.36,0h-.17v-.05h.17Zm-.35,0h-.18v-.05h.18Zm-.36,0h-.18v-.05h.18Zm-.35,0h-.18v-.05h.18Zm-.36,0h-.18v-.05h.18Zm-.35,0h-.18v-.05H21Zm-.36,0h-.18v-.05h.18Zm-.35,0h-.18v-.05h.18Zm-.36,0h-.18v-.05h.18Zm-.35,0h-.18v-.05h.18Zm-.36,0h-.18v-.05h.18Zm-.35,0H18.7v-.05h.18Zm-.36,0h-.18v-.05h.18Zm-.35,0H18v-.05h.18Zm-.36,0h-.18v-.05h.18Zm-.35,0h-.18v-.05h.18Zm-.36,0h-.18v-.05h.18Zm-.35,0h-.18v-.05h.18Zm-.36,0h-.18v-.05h.18Zm-.36,0h-.17v-.05H16Zm-.35,0H15.5v-.05h.18Zm-.36,0h-.17v-.05h.17Zm-.35,0h-.18v-.05H15Zm-.36,0h-.17v-.05h.17Zm-.35,0h-.18v-.05h.18Zm-.36,0h-.17v-.05h.17Zm-.35,0h-.18v-.05h.18Zm-.36,0H13v-.05h.17Zm-.35,0h-.18v-.05h.18Zm-.36,0h-.17v-.05h.17Zm-.35,0H12v-.05h.18Zm-.36,0H11.6v-.05h.17Z"/><rect class="cls-10" x="11.12" y="28.04" width="36.17" height="22.45" rx="11.23"/><rect class="cls-8" x="9.75" y="32.41" width="40.11" height="19.86"/><rect class="cls-11" x="11.12" y="34.71" width="36.17" height="19.09" rx="9.54"/><rect class="cls-8" x="10.19" y="39.08" width="39.67" height="16.44"/><path class="cls-12" d="M12.21,41.38a1.4,1.4,0,0,1-.1-.42l.05-.45a.74.74,0,0,0,0-.15,2.69,2.69,0,0,1,0-.79c.07-.35.47-1.54.47-1.54l1.08.16.93-.13a16.87,16.87,0,0,1,.66,2.36s0,.07,0,.1a3,3,0,0,1-.26.6c0,.05-.22.55-.38.6a.52.52,0,0,1-.51-.07,1.31,1.31,0,0,1-.7,0,.79.79,0,0,1-.68-.14S12.35,41.58,12.21,41.38Z"/><path class="cls-4" d="M16.9,19.56c.36.14.75,1,.46,2.74a7.54,7.54,0,0,1-1.16,3.07,24.78,24.78,0,0,0-1.76,3.75c0,1.11,0,4,0,4.26.06.39.31,4.8.31,4.8l-2.38.57s-.43-5-.63-6.49a15.54,15.54,0,0,1-.06-3.91A33.28,33.28,0,0,1,13.21,23C13.36,22.68,14.5,18.63,16.9,19.56Z"/></g></g><g id="Capa_1-2" data-name="Capa 1"><text class="cls-13" transform="translate(91.8 72.56)"><tspan class="cls-14">M</tspan><tspan x="9.72" y="0">odulo de </tspan><tspan class="cls-15" x="56.97" y="0">C</tspan><tspan x="63.8" y="0">omp</tspan><tspan class="cls-16" x="87.23" y="0">r</tspan><tspan x="91.09" y="0">as</tspan></text></g></g></svg>