<svg xmlns="http://www.w3.org/2000/svg" xmlns:xlink="http://www.w3.org/1999/xlink" viewBox="0 0 200 76.52"><defs><style>.cls-1{fill:#b5aaff;}.cls-2{fill:#e7d4ce;}.cls-3{fill:#4656a2;}.cls-4{fill:#e34658;}.cls-5{fill:#eea886;}.cls-6{fill:#183442;}.cls-7{fill:#a77961;}.cls-8{fill:#514e5a;}.cls-9{fill:#a99594;}.cls-10{fill:#fcc357;}.cls-11{fill:url(#linear-gradient);}.cls-12{fill:#efaa88;}.cls-13{fill:#fff;}</style><linearGradient id="linear-gradient" x1="11.12" y1="-149.4" x2="47.29" y2="-149.4" gradientTransform="matrix(1, 0, 0, -1, 0, -105.15)" gradientUnits="userSpaceOnUse"><stop offset="0" stop-color="#5dc2d8"/><stop offset="1" stop-color="#556db3"/></linearGradient></defs><g id="Layer_2" data-name="Layer 2"><g id="Layer_1-2" data-name="Layer 1"><g id="Capa_3" data-name="Capa 3"><rect class="cls-1" width="200" height="76.52"/><g id="Capa_2-2" data-name="Capa 2-2"><path class="cls-2" d="M11,66.94a5.4,5.4,0,0,1-.62,1.13C10.07,68.39,9,69,9,69.91s1.83.75,2.54.71.77-.59,1.07-1.17.61-.49.67-1A6,6,0,0,0,13,67Z"/><path class="cls-2" d="M27.84,67.13a4.84,4.84,0,0,0,2,1.26c1,.22,1.72.5,1.73,1.1s-2.91,1-4.07.39c-1.73-.9-1.91-.63-2.1-1.08s.23-1.66.22-1.8A11.87,11.87,0,0,1,27.84,67.13Z"/><path class="cls-3" d="M25.18,36.89s1.05,7.61,1.48,10.18c.5,3,.67,5.49.81,7,.17,2,.51,12.25.63,12.82s-2.74.29-2.74.29-2.07-13.35-2.6-15.44-1.82-9.94-2.27-9.41-3.23,9.89-3.56,11.42-3.5,13.52-3.5,13.52-2.37.51-3,0c0,0,2.07-11,2.28-13.88.08-1.1.73-13,2.58-17.88C16.29,33,25.18,36.89,25.18,36.89Z"/><path class="cls-4" d="M22.11,18.64a17.6,17.6,0,0,1,3.1.86,13.09,13.09,0,0,1,1,4.19,33.13,33.13,0,0,1-.7,5.7,56.15,56.15,0,0,0-.11,9.26,39,39,0,0,1-11,.37s.95-6,.73-7.76c-.28-2.31-1-7.63-1-7.63s.74-3.58,1.22-4a20.23,20.23,0,0,1,3.89-1.08Z"/><path class="cls-5" d="M21,10.07s3.34-1.24,3.13,3.2-1,4.88-3.18,4.26-2.38-3.42-2.67-4.76S19.87,10.26,21,10.07Z"/><path class="cls-5" d="M22.66,19.34s-1.73,1.41-3.4-.79a11.8,11.8,0,0,0-.44-3.45c-.51-1.67,3.49,2.22,3.49,2.22v.43a3.89,3.89,0,0,0,.13.68A7.65,7.65,0,0,0,22.66,19.34Z"/><path class="cls-6" d="M18.71,15s0-1.18.48-1.29.75.58.75.58h.39s-.35-1.2.12-1.48,3.27,0,3.63-.44-.16-2.8-.93-3-2.86-.72-4.18.47a1.25,1.25,0,0,0-1.2,1.3.57.57,0,0,0,0,.13A11,11,0,0,0,18.71,15Z"/><path class="cls-7" d="M22.42,18.43c-2.59-.43-3-1.9-3-1.92a3.81,3.81,0,0,0,2.85,1.24A3.93,3.93,0,0,0,22.42,18.43Z"/><path class="cls-5" d="M19.75,13.17a.49.49,0,0,0-.65-.2.5.5,0,0,0-.25.48c.09.62.78,1.57,1,1.39S20,13.71,19.75,13.17Z"/><path class="cls-5" d="M18.36,18.74s1.56,3.16,3.86,2.9,1-2.46.75-2.81C23,18.83,21.59,17.94,18.36,18.74Z"/><path class="cls-4" d="M30.09,28.24q3.06,1.07,6.23,1.83l.34-2a39.71,39.71,0,0,0-4.23-1.42A12.76,12.76,0,0,1,30.64,26c-.14-.07-2.89-3.41-3.09-3.77A8.57,8.57,0,0,0,26.12,20a3.67,3.67,0,0,0-1.65-.82c-1.82,1.54.65,4.45.65,4.45S28.28,27.41,30.09,28.24Z"/><path class="cls-8" d="M24.48,25.57H35.75a16,16,0,0,1,16,16h0a16,16,0,0,1-16,16H24.48a16,16,0,0,1-16-16h0A16,16,0,0,1,24.48,25.57Z"/><path class="cls-9" d="M48.62,56.61h0Zm-.35,0h0Zm-.36,0h0Zm-.35,0h0Zm-.36,0h0Zm-.35,0h0Zm-.36,0h0Zm-.35,0h0Zm-.36,0h0Zm-.35,0h0Zm-.36,0h0Zm-.35,0h0Zm-.36,0h0Zm-.35,0h0Zm-.36,0h0Zm-.35,0h0Zm-.36,0h0Zm-.35,0h0Zm-.36,0h0Zm-.35,0h0Zm-.36,0h0Zm-.35,0h0Zm-.36,0h0Zm-.35,0h0Zm-.36,0h0Zm-.35,0h0Zm-.36,0h0Zm-.35,0h0Zm-.36,0h0Zm-.36,0h0Zm-.35,0h0Zm-.36,0h0Zm-.35,0h0Zm-.36,0h0Zm-.35,0h0Zm-.36,0h0Zm-.35,0h0Zm-.36,0h0Zm-.35,0h0Zm-.36,0h0Zm-.35,0h0Zm-.36,0h0Zm-.35,0h0Zm-.36,0h0Zm-.35,0h0Zm-.36,0h0Zm-.35,0h0Zm-.36,0h0Zm-.35,0h0Zm-.36,0h0Zm-.35,0h0Zm-.36,0h0Zm-.35,0h0Zm-.36,0h0Zm-.35,0h0Zm-.36,0h0Zm-.35,0h0Zm-.36,0h0Zm-.35,0h0Zm-.36,0h0Zm-.35,0h0Zm-.36,0h0Zm-.36,0h0Zm-.35,0h0Zm-.36,0h0Zm-.35,0h0Zm-.36,0h0Zm-.35,0h0Zm-.36,0h0Zm-.35,0h0Zm-.36,0h0Zm-.35,0h0Zm-.36,0h0Zm-.35,0h0Zm-.36,0h0Zm-.35,0h0Zm-.36,0h0Zm-.35,0h0Zm-.36,0h0Zm-.35,0h0Zm-.36,0h0Zm-.35,0h0Zm-.36,0h0Zm-.35,0h0Zm-.36,0h0Zm-.35,0h0Zm-.36,0h0Zm-.35,0h0Zm-.36,0h0Zm-.35,0h0Zm-.36,0h0Zm-.35,0h0Zm-.36,0h0Zm-.35,0h0Zm-.36,0h0Zm-.35,0h0Zm-.36,0h0Zm-.36,0h0Zm-.35,0h0Zm-.36,0h0Zm-.35,0h0Zm-.36,0h0Zm-.35,0h0Zm-.36,0h0Zm-.35,0h0Zm37.11,0H49v0Zm-37.47,0h0Zm37.83,0ZM11,56.53l-.17-.07h0a.44.44,0,0,0,.16.06Zm38.51-.1h0l.16-.09h0Zm-38.84,0-.15-.09h0a.42.42,0,0,0,.14.09Zm39.15-.15h0l.13-.12h0Zm-39.44,0a.8.8,0,0,1-.13-.13h0l.13.12ZM50.05,56h0a.76.76,0,0,1,.11-.14h0A.76.76,0,0,1,50.05,56Zm-39.94-.07-.1-.14h0l.1.15Zm40.15-.22h0a.77.77,0,0,0,.07-.16h.05Zm-40.34-.1-.06-.17h0l.06.16Zm40.48-.25h0v-.17h0A.25.25,0,0,1,50.4,55.36ZM9.8,55.27v-.18h0v.17ZM50.46,55h0v-.15h0ZM9.75,54.92v-.18H9.8v.17Zm40.72-.27h0v-.18h0ZM9.8,54.56H9.75v-.18H9.8Zm40.67-.27h0v-.18h0ZM9.8,54.2H9.75V54H9.8Zm40.67-.26h0v-.18h0ZM9.8,53.85H9.75v-.18H9.8Zm40.67-.27h0V53.4h0ZM9.8,53.49H9.75v-.17H9.8Zm40.67-.26h0v-.18h0ZM9.8,53.14H9.75V53H9.8Zm40.67-.27h0v-.18h0ZM9.8,52.78H9.75v-.17H9.8Zm40.67-.26h0v-.18h0ZM9.8,52.43H9.75v-.18H9.8Zm40.67-.27h0V52h0ZM9.8,52.07H9.75V51.9H9.8Zm40.67-.26h0v-.18h0ZM9.8,51.72H9.75v-.18H9.8Zm40.67-.27h0v-.18h0ZM9.8,51.36H9.75v-.17H9.8Zm40.67-.26h0v-.18h0ZM9.8,51H9.75v-.18H9.8Zm40.67-.27h0v-.18h0ZM9.8,50.65H9.75v-.17H9.8Zm40.67-.26h0v-.18h0ZM9.8,50.3H9.75v-.18H9.8ZM50.47,50h0v-.18h0ZM9.8,49.94H9.75v-.18H9.8Zm40.67-.26h0V49.5h0ZM9.8,49.59H9.75v-.18H9.8Zm40.67-.27h0v-.18h0ZM9.8,49.23H9.75v-.18H9.8ZM50.47,49h0v-.17h0ZM9.8,48.88H9.75V48.7H9.8Zm40.67-.27h0v-.18h0ZM9.8,48.52H9.75v-.18H9.8Zm40.67-.27h0v-.17h0ZM9.8,48.17H9.75V48H9.8Zm40.67-.27h0v-.18h0ZM9.8,47.81H9.75v-.18H9.8Zm40.67-.27h0v-.17h0ZM9.8,47.46H9.75v-.18H9.8Zm40.67-.27h0V47h0ZM9.8,47.1H9.75v-.18H9.8Zm40.67-.27h0v-.17h0ZM9.8,46.75H9.75v-.18H9.8Zm40.67-.27h0V46.3h0ZM9.8,46.39H9.75v-.18H9.8Zm40.67-.27h0V46h0ZM9.8,46H9.75v-.18H9.8Zm40.67-.27h0v-.18h0Zm-40.67,0H9.75V45.5H9.8Zm40.67-.27h0v-.17h0ZM9.8,45.33H9.75v-.18H9.8Zm40.67-.27h0v-.18h0ZM9.8,45H9.75v-.18H9.8Zm40.67-.27h0v-.17h0ZM9.8,44.62H9.75v-.18H9.8Zm40.67-.27h0v-.18h0ZM9.8,44.26H9.75v-.18H9.8ZM50.47,44h0v-.17h0ZM9.8,43.9H9.75v-.17H9.8Zm40.67-.26h0v-.18h0ZM9.8,43.55H9.75v-.18H9.8Zm40.67-.27h0v-.17h0ZM9.8,43.19H9.75V43H9.8Zm40.67-.26h0v-.18h0ZM9.8,42.84H9.75v-.18H9.8Zm40.67-.27h0v-.18h0ZM9.8,42.48H9.75v-.17H9.8Zm40.67-.26h0V42h0ZM9.8,42.13H9.75V42H9.8Zm40.67-.27h0v-.18h0ZM9.8,41.77H9.75V41.6H9.8Zm40.67-.26h0v-.18h0ZM9.8,41.42H9.75v-.18H9.8Zm40.67-.27h0V41h0ZM9.8,41.06H9.75v-.17H9.8Zm40.67-.26h0v-.18h0ZM9.8,40.71H9.75v-.18H9.8Zm40.67-.27h0v-.18h0ZM9.8,40.35H9.75v-.17H9.8Zm40.67-.26h0v-.18h0ZM9.8,40H9.75v-.18H9.8Zm40.67-.27h0v-.18h0ZM9.8,39.64H9.75v-.17H9.8Zm40.67-.26h0V39.2h0ZM9.8,39.29H9.75v-.18H9.8ZM50.47,39h0v-.18h0ZM9.8,38.93H9.75v-.17H9.8Zm40.67-.26h0v-.18h0ZM9.8,38.58H9.75V38.4H9.8Zm40.67-.27h0v-.18h0ZM9.8,38.22H9.75v-.17H9.8ZM50.47,38h0v-.18h0ZM9.8,37.87H9.75v-.18H9.8Zm40.67-.27h0v-.18h0ZM9.8,37.51H9.75v-.18H9.8Zm40.67-.26h0v-.18h0ZM9.8,37.16H9.75V37H9.8Zm40.67-.27h0v-.18h0ZM9.8,36.8H9.75v-.18H9.8Zm40.67-.27h0v-.17h0ZM9.8,36.45H9.75v-.18H9.8Zm40.67-.27h0V36h0ZM9.8,36.09H9.75v-.18H9.8Zm40.67-.27h0v-.17h0ZM9.8,35.74H9.75v-.18H9.8Zm40.67-.27h0v-.18h0ZM9.8,35.38H9.75V35.2H9.8Zm40.67-.27h0v-.17h0ZM9.8,35H9.75v-.18H9.8Zm40.67-.27h0v-.18h0ZM9.8,34.67H9.75v-.18H9.8Zm40.67-.27h0v-.17h0ZM9.8,34.32H9.75v-.18H9.8Zm40.67-.27h0v-.18h0ZM9.8,34H9.75v-.18H9.8Zm40.67-.27h0v-.17h0ZM9.8,33.61H9.75v-.18H9.8Zm40.67-.27h0v-.18h0ZM9.8,33.25H9.75v-.18H9.8ZM50.47,33h0v-.17h0ZM9.8,32.9H9.75v-.18H9.8Zm40.67-.27h0v-.18h0ZM9.8,32.54H9.75v-.18H9.8Zm40.67-.27h0V32.1h0ZM9.8,32.19H9.75V32H9.8Zm40.67-.27h0v-.18h0ZM9.8,31.83H9.75v-.18H9.8Zm40.67-.27h0v-.17h0ZM9.8,31.47H9.75V31.3H9.8Zm40.67-.26h0V31h0ZM9.8,31.12H9.75v-.18H9.8Zm40.67-.27h0v-.17h0ZM9.8,30.76H9.75v-.17H9.8Zm40.67-.26h0v-.18h0ZM9.8,30.41H9.75v-.18H9.8Zm40.67-.27h0V30h0ZM9.8,30.05H9.75v-.17H9.8Zm40.67-.26h0v-.18h0ZM9.8,29.7H9.75v-.18H9.8Zm40.67-.27h0v-.18h0ZM9.8,29.34H9.75v-.17H9.8Zm40.67-.26h0V28.9h0ZM9.8,29H9.75v-.18H9.8Zm40.67-.27h0v-.18h0ZM9.8,28.63H9.75v-.17H9.8Zm40.67-.26h0v-.18h0ZM9.8,28.28H9.75v-.15h0v.18ZM50.41,28v-.18h0ZM9.83,27.93H9.78a.84.84,0,0,1,.05-.17h0Zm40.5-.25a.87.87,0,0,0-.07-.17h0A.87.87,0,0,1,50.33,27.68Zm-40.4-.09h0a.16.16,0,0,1,.07-.16h0A.77.77,0,0,0,9.93,27.59Zm40.25-.23-.1-.14h0l.1.15Zm-40.09-.07h0a.76.76,0,0,1,.11-.14h0A.76.76,0,0,0,10.09,27.29ZM50,27.08,49.84,27h0l.13.12ZM10.32,27h0l.13-.12h0Zm39.38-.17-.15-.09h0Zm-39.11,0h0a.51.51,0,0,1,.16-.09h0A.51.51,0,0,0,10.59,26.8Zm38.81-.12-.17-.06v-.05l.16.07Zm-38.49,0h0l.17-.05h0Zm38.15-.08h0Zm-37.81,0h.18v0Zm37.47,0h-.19v-.05h.19Zm-.37,0h-.17v-.05h.17Zm-.35,0h-.18v-.05H48Zm-.36,0h-.17v-.05h.17Zm-.35,0h-.18v-.05h.18Zm-.36,0h-.18v-.05h.18Zm-.35,0H46.4v-.05h.18Zm-.36,0H46v-.05h.18Zm-.35,0h-.18v-.05h.18Zm-.36,0h-.18v-.05h.18Zm-.35,0H45v-.05h.18Zm-.36,0h-.18v-.05h.18Zm-.35,0h-.18v-.05h.18Zm-.36,0h-.18v-.05h.18Zm-.35,0h-.18v-.05h.18Zm-.36,0H43.2v-.05h.18Zm-.35,0h-.18v-.05H43Zm-.36,0h-.18v-.05h.18Zm-.35,0h-.18v-.05h.18Zm-.36,0h-.18v-.05H42Zm-.35,0h-.18v-.05h.18Zm-.36,0h-.18v-.05h.18Zm-.36,0h-.17v-.05h.17Zm-.35,0h-.18v-.05h.18Zm-.36,0H40v-.05h.17Zm-.35,0h-.18v-.05h.18Zm-.36,0H39.3v-.05h.17Zm-.35,0h-.18v-.05h.18Zm-.36,0h-.17v-.05h.17Zm-.35,0h-.18v-.05h.18Zm-.36,0h-.17v-.05h.17Zm-.35,0h-.18v-.05h.18Zm-.36,0h-.17v-.05h.17Zm-.35,0h-.18v-.05H37Zm-.36,0h-.17v-.05h.17Zm-.35,0H36.1v-.05h.18Zm-.36,0h-.17v-.05h.17Zm-.35,0h-.18v-.05h.18Zm-.36,0H35v-.05h.17Zm-.35,0h-.18v-.05h.18Zm-.36,0h-.18v-.05h.18Zm-.35,0H34v-.05h.18Zm-.36,0h-.18v-.05h.18Zm-.35,0h-.18v-.05h.18Zm-.36,0H32.9v-.05h.18Zm-.35,0h-.18v-.05h.18Zm-.36,0h-.18v-.05h.18Zm-.35,0h-.18v-.05H32Zm-.36,0h-.18v-.05h.18Zm-.35,0h-.18v-.05h.18Zm-.36,0h-.18v-.05H31Zm-.35,0h-.18v-.05h.18Zm-.36,0h-.18v-.05h.18Zm-.35,0h-.18v-.05h.18Zm-.36,0h-.18v-.05h.18Zm-.35,0H29v-.05h.18Zm-.36,0h-.18v-.05h.18Zm-.35,0h-.18v-.05h.18Zm-.36,0h-.18v-.05h.18Zm-.36,0h-.17v-.05h.17Zm-.35,0h-.18v-.05h.18Zm-.36,0h-.17v-.05H27Zm-.35,0h-.18v-.05h.18Zm-.36,0h-.17v-.05h.17Zm-.35,0H25.8v-.05H26Zm-.36,0h-.17v-.05h.17Zm-.35,0h-.18v-.05h.18Zm-.36,0h-.17v-.05h.17Zm-.35,0h-.18v-.05h.18Zm-.36,0H24v-.05h.17Zm-.35,0h-.18v-.05h.18Zm-.36,0h-.17v-.05h.17Zm-.35,0H23v-.05h.18Zm-.36,0h-.17v-.05h.17Zm-.35,0h-.18v-.05h.18Zm-.36,0h-.18v-.05h.18Zm-.35,0h-.18v-.05h.18Zm-.36,0h-.18v-.05h.18Zm-.35,0h-.18v-.05H21Zm-.36,0h-.18v-.05h.18Zm-.35,0h-.18v-.05h.18Zm-.36,0h-.18v-.05h.18Zm-.35,0h-.18v-.05h.18Zm-.36,0h-.18v-.05h.18Zm-.35,0H18.7v-.05h.18Zm-.36,0h-.18v-.05h.18Zm-.35,0H18v-.05h.18Zm-.36,0h-.18v-.05h.18Zm-.35,0h-.18v-.05h.18Zm-.36,0h-.18v-.05h.18Zm-.35,0h-.18v-.05h.18Zm-.36,0h-.18v-.05h.18Zm-.36,0h-.17v-.05H16Zm-.35,0H15.5v-.05h.18Zm-.36,0h-.17v-.05h.17Zm-.35,0h-.18v-.05H15Zm-.36,0h-.17v-.05h.17Zm-.35,0h-.18v-.05h.18Zm-.36,0h-.17v-.05h.17Zm-.35,0h-.18v-.05h.18Zm-.36,0H13v-.05h.17Zm-.35,0h-.18v-.05h.18Zm-.36,0h-.17v-.05h.17Zm-.35,0H12v-.05h.18Zm-.36,0H11.6v-.05h.17Z"/><path class="cls-10" d="M22.35,28H36.06A11.23,11.23,0,0,1,47.29,39.26h0A11.23,11.23,0,0,1,36.06,50.49H22.35A11.23,11.23,0,0,1,11.12,39.26h0A11.23,11.23,0,0,1,22.35,28Z"/><rect class="cls-8" x="9.75" y="32.41" width="40.11" height="19.86"/><rect class="cls-11" x="11.12" y="34.71" width="36.17" height="19.09" rx="9.54"/><rect class="cls-8" x="10.19" y="39.08" width="39.67" height="16.44"/><path class="cls-12" d="M12.21,41.38a1.51,1.51,0,0,1-.1-.42l.05-.45a.38.38,0,0,0,0-.15,2.62,2.62,0,0,1,0-.79c.07-.35.47-1.54.47-1.54l1.08.16.93-.13a16.21,16.21,0,0,1,.66,2.36v.1a2.66,2.66,0,0,1-.26.6c0,.05-.22.55-.38.6a.52.52,0,0,1-.51-.07,1.38,1.38,0,0,1-.7,0,.79.79,0,0,1-.68-.14S12.35,41.58,12.21,41.38Z"/><path class="cls-4" d="M16.9,19.56c.36.14.75,1,.46,2.74a7.55,7.55,0,0,1-1.16,3.07,24.64,24.64,0,0,0-1.76,3.75v4.26c.06.39.31,4.8.31,4.8l-2.38.57s-.43-5-.63-6.49a16,16,0,0,1-.06-3.91A33.31,33.31,0,0,1,13.21,23C13.36,22.68,14.5,18.63,16.9,19.56Z"/></g></g><path class="cls-13" d="M52.64,63.82a15.81,15.81,0,0,1,2.22-.17,4.6,4.6,0,0,1,3.27,1,3.73,3.73,0,0,1,1.14,2.9,4.28,4.28,0,0,1-1.16,3.15,5,5,0,0,1-3.57,1.16,16.77,16.77,0,0,1-1.9-.1Zm1,7.15a6.45,6.45,0,0,0,1.06.06,3.11,3.11,0,0,0,3.44-3.43c0-1.91-1.07-3.12-3.27-3.12a6,6,0,0,0-1.23.11Z"/><path class="cls-13" d="M61.23,69.09a1.86,1.86,0,0,0,2,2,3.8,3.8,0,0,0,1.61-.3l.18.76a4.67,4.67,0,0,1-1.93.36A2.69,2.69,0,0,1,60.23,69c0-1.75,1-3.13,2.72-3.13a2.47,2.47,0,0,1,2.4,2.74,4.35,4.35,0,0,1,0,.49Zm3.1-.76a1.5,1.5,0,0,0-1.47-1.71,1.74,1.74,0,0,0-1.61,1.71Z"/><path class="cls-13" d="M67.06,66l1.14,3.26a13.28,13.28,0,0,1,.47,1.49h0c.13-.48.3-1,.49-1.49L70.33,66h1.1L69.15,71.8h-1L65.94,66Z"/><path class="cls-13" d="M77.56,68.85a2.84,2.84,0,0,1-2.89,3.08,2.76,2.76,0,0,1-2.78-3,2.83,2.83,0,0,1,2.88-3.08A2.75,2.75,0,0,1,77.56,68.85Zm-4.6.06c0,1.27.73,2.23,1.76,2.23s1.76-1,1.76-2.26c0-1-.49-2.23-1.74-2.23S73,67.8,73,68.91Z"/><path class="cls-13" d="M78.9,63.28h1V71.8h-1Z"/><path class="cls-13" d="M86.58,70.21c0,.6,0,1.13,0,1.59H85.7l-.06-1h0a2.16,2.16,0,0,1-1.91,1.08c-.92,0-2-.5-2-2.54V66h1.06v3.22c0,1.1.33,1.84,1.29,1.84a1.52,1.52,0,0,0,1.39-1,1.49,1.49,0,0,0,.1-.54V66h1Z"/><path class="cls-13" d="M92.48,71.58a3.81,3.81,0,0,1-1.67.34,2.76,2.76,0,0,1-2.89-3A3,3,0,0,1,91,65.87a3.6,3.6,0,0,1,1.46.3l-.24.82A2.37,2.37,0,0,0,91,66.71,2,2,0,0,0,89,68.91a2,2,0,0,0,2,2.17,3,3,0,0,0,1.3-.29Z"/><path class="cls-13" d="M94.89,64.36a.62.62,0,0,1-.67.65.63.63,0,0,1-.64-.65.65.65,0,0,1,.66-.66A.63.63,0,0,1,94.89,64.36ZM93.72,71.8V66h1V71.8Z"/><path class="cls-13" d="M101.78,68.85a2.84,2.84,0,0,1-2.89,3.08,2.77,2.77,0,0,1-2.79-3A2.84,2.84,0,0,1,99,65.86,2.75,2.75,0,0,1,101.78,68.85Zm-4.61.06c0,1.27.73,2.23,1.76,2.23s1.77-1,1.77-2.26c0-1-.49-2.23-1.74-2.23S97.17,67.8,97.17,68.91Zm3.35-5.42L99.05,65.2H98.3l1-1.71Z"/><path class="cls-13" d="M103.11,67.56c0-.6,0-1.09,0-1.57H104l.06,1h0A2.14,2.14,0,0,1,106,65.86c.81,0,2,.48,2,2.47V71.8h-1V68.45c0-.93-.35-1.71-1.35-1.71a1.5,1.5,0,0,0-1.41,1.08,1.45,1.45,0,0,0-.07.49V71.8h-1.06Z"/><path class="cls-13" d="M117.57,68.85a2.84,2.84,0,0,1-2.89,3.08,2.76,2.76,0,0,1-2.78-3,2.83,2.83,0,0,1,2.87-3.08A2.75,2.75,0,0,1,117.57,68.85Zm-4.61.06c0,1.27.74,2.23,1.77,2.23s1.76-1,1.76-2.26c0-1-.49-2.23-1.74-2.23S113,67.8,113,68.91Z"/><path class="cls-13" d="M118.9,67.8c0-.68,0-1.27,0-1.81h.92l0,1.14h0a1.75,1.75,0,0,1,1.61-1.27,1,1,0,0,1,.3,0v1a1.94,1.94,0,0,0-.36,0A1.47,1.47,0,0,0,120,68.21a2.46,2.46,0,0,0,0,.49v3.1h-1Z"/><path class="cls-13" d="M127.72,63.28v7c0,.51,0,1.1,0,1.5h-1l0-1h0a2.14,2.14,0,0,1-2,1.14c-1.4,0-2.48-1.19-2.48-3,0-1.93,1.19-3.12,2.6-3.12a1.93,1.93,0,0,1,1.75.89h0V63.28Zm-1,5.08a2.22,2.22,0,0,0,0-.45,1.56,1.56,0,0,0-1.53-1.22c-1.09,0-1.73,1-1.73,2.24s.57,2.15,1.71,2.15a1.59,1.59,0,0,0,1.55-1.26,2.24,2.24,0,0,0,0-.46Z"/><path class="cls-13" d="M130.06,69.09a1.86,1.86,0,0,0,2,2,3.76,3.76,0,0,0,1.61-.3l.18.76a4.67,4.67,0,0,1-1.93.36A2.69,2.69,0,0,1,129.06,69c0-1.75,1-3.13,2.72-3.13a2.47,2.47,0,0,1,2.4,2.74,4.35,4.35,0,0,1,0,.49Zm3.1-.76a1.5,1.5,0,0,0-1.46-1.71,1.74,1.74,0,0,0-1.62,1.71Z"/><path class="cls-13" d="M135.49,67.56c0-.6,0-1.09-.05-1.57h.94l.06,1h0a2.14,2.14,0,0,1,1.92-1.09c.8,0,2.05.48,2.05,2.47V71.8h-1.06V68.45c0-.93-.34-1.71-1.34-1.71a1.48,1.48,0,0,0-1.41,1.08,1.44,1.44,0,0,0-.08.49V71.8h-1Z"/><path class="cls-13" d="M149.71,63.28v7c0,.51,0,1.1,0,1.5h-.94l-.05-1h0a2.14,2.14,0,0,1-2,1.14c-1.4,0-2.48-1.19-2.48-3,0-1.93,1.19-3.12,2.61-3.12a2,2,0,0,1,1.75.89h0V63.28Zm-1.06,5.08a1.68,1.68,0,0,0-.05-.45,1.54,1.54,0,0,0-1.52-1.22c-1.09,0-1.74,1-1.74,2.24s.58,2.15,1.71,2.15a1.59,1.59,0,0,0,1.55-1.26,1.71,1.71,0,0,0,.05-.46Z"/><path class="cls-13" d="M152.05,69.09a1.85,1.85,0,0,0,2,2,3.83,3.83,0,0,0,1.61-.3l.18.76a4.72,4.72,0,0,1-1.94.36A2.7,2.7,0,0,1,151,69c0-1.75,1-3.13,2.72-3.13a2.46,2.46,0,0,1,2.4,2.74,4.88,4.88,0,0,1,0,.49Zm3.09-.76a1.5,1.5,0,0,0-1.46-1.71,1.74,1.74,0,0,0-1.62,1.71Z"/><path class="cls-13" d="M164.15,71.58a3.72,3.72,0,0,1-1.66.34,2.76,2.76,0,0,1-2.89-3,3,3,0,0,1,3.11-3.08,3.61,3.61,0,0,1,1.47.3l-.24.82a2.39,2.39,0,0,0-1.23-.28,2.19,2.19,0,0,0,0,4.37,3,3,0,0,0,1.29-.29Z"/><path class="cls-13" d="M170.57,68.85a2.84,2.84,0,0,1-2.89,3.08,2.76,2.76,0,0,1-2.78-3,2.83,2.83,0,0,1,2.88-3.08A2.74,2.74,0,0,1,170.57,68.85Zm-4.6.06c0,1.27.73,2.23,1.76,2.23s1.76-1,1.76-2.26c0-1-.49-2.23-1.74-2.23S166,67.8,166,68.91Z"/><path class="cls-13" d="M171.91,67.56c0-.6,0-1.09,0-1.57h.92l.05.94h0a2,2,0,0,1,1.82-1.07A1.71,1.71,0,0,1,176.33,67h0a2.39,2.39,0,0,1,.64-.75,2,2,0,0,1,1.29-.41c.77,0,1.91.5,1.91,2.52V71.8h-1V68.51c0-1.11-.4-1.79-1.26-1.79a1.37,1.37,0,0,0-1.24,1,1.73,1.73,0,0,0-.09.53V71.8h-1V68.32c0-.92-.41-1.6-1.21-1.6A1.45,1.45,0,0,0,173,67.78a1.49,1.49,0,0,0-.08.52v3.5h-1Z"/><path class="cls-13" d="M181.92,67.89c0-.75,0-1.35,0-1.9h.95l0,1h0A2.27,2.27,0,0,1,185,65.86c1.4,0,2.46,1.19,2.46,3,0,2.09-1.27,3.12-2.64,3.12A2.05,2.05,0,0,1,183,71h0v3.15h-1Zm1,1.55a2,2,0,0,0,0,.43,1.62,1.62,0,0,0,1.58,1.23c1.12,0,1.76-.91,1.76-2.24,0-1.16-.61-2.16-1.72-2.16A1.69,1.69,0,0,0,183,68a2,2,0,0,0-.07.43Z"/><path class="cls-13" d="M188.74,67.8c0-.68,0-1.27,0-1.81h.92l0,1.14h0a1.75,1.75,0,0,1,1.61-1.27,1,1,0,0,1,.3,0v1a1.94,1.94,0,0,0-.36,0,1.49,1.49,0,0,0-1.42,1.35,3.6,3.6,0,0,0,0,.49v3.1h-1Z"/><path class="cls-13" d="M195.82,71.8l-.08-.73h0a2.17,2.17,0,0,1-1.77.86,1.66,1.66,0,0,1-1.78-1.67c0-1.4,1.25-2.17,3.49-2.16V68a1.19,1.19,0,0,0-1.32-1.34,2.93,2.93,0,0,0-1.51.43l-.24-.69a3.64,3.64,0,0,1,1.91-.52c1.77,0,2.2,1.21,2.2,2.38v2.17a8.4,8.4,0,0,0,.1,1.39Zm-.15-3c-1.16,0-2.46.18-2.46,1.3a.93.93,0,0,0,1,1,1.45,1.45,0,0,0,1.41-1,1.35,1.35,0,0,0,.06-.34Z"/></g></g></svg>