<svg xmlns="http://www.w3.org/2000/svg" xmlns:xlink="http://www.w3.org/1999/xlink" viewBox="0 0 200 76.52"><defs><style>.cls-1{fill:none;}.cls-2{fill:#4db79c;}.cls-13,.cls-3{fill:#010101;}.cls-12,.cls-18,.cls-3{opacity:0.1;}.cls-18,.cls-3{isolation:isolate;}.cls-4{fill:#d89471;}.cls-5{fill:#edb08e;}.cls-6{fill:#01a9a9;}.cls-18,.cls-7{fill:#fff;}.cls-8{fill:#b4b4b4;}.cls-9{fill:#d6d7d7;}.cls-10{fill:#cdcccc;}.cls-11{clip-path:url(#clip-path);}.cls-14{fill:#7f8080;}.cls-15{fill:#676767;}.cls-16{fill:#f9b03d;}.cls-17{clip-path:url(#clip-path-2);}.cls-19{font-size:12px;fill:#f2f2f2;font-family:MyriadPro-Regular, Myriad Pro;}.cls-20{letter-spacing:0.01em;}</style><clipPath id="clip-path"><path class="cls-1" d="M42.25,44.81a14.79,14.79,0,0,0,2.14-2.13c.36-.64,2.14-4.29,3-4.47s3.45,1.85,4.54,2.45,4.17-.1,5,.85a38,38,0,0,1,3.52,6c1.31,2.63,2.11,5.46,2.87,6.77s1.74,2.77,4,5.89S75,71.5,75,71.5H62.2s-3.23-9.46-5-12-3-2.48-4.46-2.94-5.06-1.81-7-3.92-2.62-.83-3.57-2.82c-.48-1,.88-1.17.44-2.59s2.08-1.49,2.8-.78A1.86,1.86,0,0,1,46,48.59a2.92,2.92,0,0,1,1.88.54,2.91,2.91,0,0,1,1.38.16s1.85-1.51,1.82-3.14-.51-2.4-3.2-3.64c0,0-1,1.24-1.69,1.31a12.69,12.69,0,0,1-1.46,1.36C44.19,45.5,42.69,46,42.25,44.81Z"/></clipPath><clipPath id="clip-path-2"><path class="cls-1" d="M29.77,36a6.56,6.56,0,0,0-3.6,2.08l-.09.11-.09.12a2.85,2.85,0,0,0-1.72.91,2.94,2.94,0,0,0-1.32.44,6.93,6.93,0,0,1-1.43-1,9.45,9.45,0,0,0-1.05,9.21l.62-.33c1.35-.76,4.55-2.82,6-5.27,1.14-2,2-1.64,2.55-2.6h0a6.9,6.9,0,0,1,2.09-1.95C32.44,37.24,31.58,35.59,29.77,36Z"/></clipPath></defs><g id="Capa_2" data-name="Capa 2"><g id="Capa_3" data-name="Capa 3"><rect class="cls-2" width="200" height="76.52"/><g id="Capa_4" data-name="Capa 4"><g id="Capa_2-2" data-name="Capa 2"><g id="OBJECTS"><path class="cls-3" d="M30.62,37.5a6.73,6.73,0,0,0-1.46.47,6.43,6.43,0,0,1-1.49-.89,3.68,3.68,0,0,0,1.33-1,1.06,1.06,0,0,0,.92-.94,15.57,15.57,0,0,1-2.55-1.58c-.49-.53-3.3-3.35-4.16-3.35-2.64,0-8,3.95-8.57,5a35.25,35.25,0,0,0-2.14,6.36c-.71,2.74-.88,5.58-1.34,7a66.3,66.3,0,0,1-2.63,6.35C7.69,56.78,6,61.2,4.62,64.77v7H14.91c.57-4.42,2.32-17.28,3.3-19.53a5.53,5.53,0,0,1,3.1-3.36l.62-.31.13-.08.07,0,.07,0,.11-.07h0l.14-.08h0l.15-.1h0a20.3,20.3,0,0,0,2.13-1.43h0a12.22,12.22,0,0,0,3.13-3.25c1.15-1.93,2-1.58,2.55-2.51h0a6.87,6.87,0,0,1,2.09-1.89C33.28,38.71,32.42,37.11,30.62,37.5Zm-5.5,3.11A2.93,2.93,0,0,0,23.8,41a6.8,6.8,0,0,1-1.43-1l-.19-.16c.84-.67,1.65-1.48,2.1-1.87.9-.76,1.47,1.14,2.58,1.67l0,0A2.89,2.89,0,0,0,25.12,40.61Z"/><path class="cls-4" d="M28.53,36.51a4.18,4.18,0,0,1-1.7-1c1-.43,2-1.69,1.42-1.69-.75,0-3.23-2.14-4.1-3.13s-4.59,1.14-5.52,2.45c0,0-1.15,2.82,0,3.53h0c-.24.89-.45,2.2.29,2.65,1.15.7,3.59-2,4.52-2.85s1.51,1.31,2.7,1.77S29.29,36.51,28.53,36.51Z"/><path class="cls-5" d="M26.53,31.9c-.49-.55-3.3-3.47-4.16-3.47-2.64,0-8,4.09-8.57,5.19a37.4,37.4,0,0,0-2.15,6.58C11,43,10.78,46,10.32,47.41S9.21,50.47,7.69,54c-.84,1.95-2.55,6.52-3.91,10.22V71.5H14.07c.57-4.57,2.32-17.88,3.3-20.21a5.62,5.62,0,0,1,3.1-3.47c.81-3.08.81-4.59,1.05-9.22-.46-.44-1.67-1.11-1.79-1.76-.31-1.59-1.1-3,2.2-4.88,0,0,2.41,1.49,3.14,1.41a12.49,12.49,0,0,0,1.72,1c.55.22,2.13.4,2.3-.86A15.06,15.06,0,0,1,26.53,31.9Z"/><path class="cls-3" d="M26.1,15.6H53.22a1.93,1.93,0,0,1,1.94,1.91V56.76a1.92,1.92,0,0,1-1.94,1.9H26.1a1.92,1.92,0,0,1-2-1.9V17.51A1.93,1.93,0,0,1,26.1,15.6Z"/><path class="cls-6" d="M26.1,14.78H53.22a1.92,1.92,0,0,1,1.94,1.9V55.93a1.93,1.93,0,0,1-1.94,1.91H26.1a1.93,1.93,0,0,1-2-1.91V16.68A1.92,1.92,0,0,1,26.1,14.78Z"/><rect class="cls-7" x="25.95" y="16.33" width="27.42" height="39.95"/><rect class="cls-8" x="33.99" y="23.52" width="16.65" height="1.35"/><rect class="cls-9" x="33.99" y="25.97" width="16.65" height="1.35"/><rect class="cls-9" x="28.53" y="28.41" width="22.1" height="1.35"/><path class="cls-9" d="M34,16.32a.7.7,0,0,0,.71.68h9.9a.69.69,0,0,0,.7-.68Z"/><path class="cls-9" d="M44.61,12.91H41.19a1.53,1.53,0,0,0-3.06,0H34.71a.7.7,0,0,0-.71.69h0V16a.7.7,0,0,0,.71.69h9.9a.7.7,0,0,0,.71-.69h0V13.6a.7.7,0,0,0-.71-.69Zm-5,.59a.59.59,0,0,1-.6-.59.59.59,0,0,1,.6-.59.59.59,0,0,1,.6.59A.6.6,0,0,1,39.66,13.5Z"/><path class="cls-10" d="M34,15.33V16a.7.7,0,0,0,.71.69h9.9a.7.7,0,0,0,.71-.69h0v-.62Z"/><path class="cls-9" d="M32,24.22V26.6H29.25V24.22H32m.72-.7H28.53v3.79h4.22V23.52Z"/><rect class="cls-8" x="33.99" y="32.03" width="16.65" height="1.35"/><rect class="cls-9" x="33.99" y="34.47" width="16.65" height="1.35"/><rect class="cls-9" x="28.53" y="36.92" width="22.1" height="1.35"/><rect class="cls-9" x="28.53" y="47.55" width="9.83" height="1.35"/><rect class="cls-9" x="28.53" y="49.91" width="5.38" height="1.35"/><rect class="cls-9" x="40.85" y="47.55" width="9.83" height="1.35"/><rect class="cls-9" x="40.85" y="49.91" width="5.38" height="1.35"/><path class="cls-9" d="M32,32.73v2.38H29.25V32.73H32m.72-.7H28.53v3.78h4.22Z"/><rect class="cls-8" x="28.53" y="40.53" width="22.1" height="1.32"/><path class="cls-9" d="M37.68,43.5v2.39H29.25V43.5h8.43m.72-.7H28.53v3.79H38.4Z"/><path class="cls-9" d="M49.92,43.5v2.39H41.49V43.5h8.43m.72-.7H40.78v3.79h9.86Z"/><path class="cls-3" d="M30.62,37.5a6.73,6.73,0,0,0-1.46.47,3.88,3.88,0,0,1-.81-.42c-.24.2-.49.4-.75.59a6.42,6.42,0,0,1-1.51.9,2.52,2.52,0,0,0,.78.63l0,0a2.91,2.91,0,0,0-1.73.88,3.2,3.2,0,0,0-1,.25v3.61h.05v2.77l.62-.46h0a12.22,12.22,0,0,0,3.13-3.25c1.15-1.94,2-1.58,2.55-2.51h0a6.74,6.74,0,0,1,2.09-1.89C33.28,38.71,32.42,37.11,30.62,37.5Z"/><path class="cls-3" d="M46.76,56.65h0l.18.14.08.06.14.1.09.06.13.09.09.06.14.1.08,0,.17.11.06,0,.22.14.07,0,.16.09.09,0,.14.08.1.05.14.08.09,0,.16.08.07,0,.23.11.05,0,.18.09.08,0,.15.06.09,0,.14.06.09,0,.14.06.08,0,.18.08h0l.21.09.07,0,.14.06.08,0,.13.05.08,0,.12,0,.08,0,.14.06,0,0,.18.06,0,0,.14,0,.06,0,.1,0,.07,0,.09,0h.06l.1,0h0l.14,0c1.49.46,2.68.42,4.46,2.93,1.09,1.59,2.82,6,3.91,9H73c-1.8-2.66-4.38-6.42-5.74-8.31-2.25-3.11-3.23-4.55-4-5.86a31.74,31.74,0,0,1-1.55-3.7.19.19,0,0,0,0-.07.7.7,0,0,0-.4-.88c-.28-.69-.59-1.4-.94-2.09a37.41,37.41,0,0,0-3.52-6c-.49-.59-1.87-.55-3.1-.57H52.69l-.12,0h0l-.1,0h0l-.1,0h0l-.08,0-.05,0-.07,0,0-.05-.11-.06-.1-.06,0,0-.07,0-.06,0-.06,0-.07,0,0,0-.09-.05-.05,0-.09-.06-.05,0L51,43.24l0,0-.15-.09c-1.23-.81-2.87-1.93-3.5-1.79-.83.17-2.61,3.81-3,4.44a11.43,11.43,0,0,1-1.77,1.8.1.1,0,0,0-.06.05l-.24.21-1.17-.13a.87.87,0,0,0-.32,0,.51.51,0,0,0-.17.07.46.46,0,0,0-.07.07h0l-.38,0c-.09,0-.18,0-.21.09s0,.16.13.19l.36.15c0,.2.2.3.43.37l1.23.52,0,.16a.15.15,0,0,0,.1.21h0l.37.1a.16.16,0,0,0,.18-.09l0,0a.76.76,0,0,0-.17.84c.43,1.42-.92,1.58-.44,2.58,1,2,1.65.7,3.56,2.81a8.82,8.82,0,0,0,1,.92Zm-2-8.44L45,48a1.32,1.32,0,0,0,.2.32Zm4.83.47a8.56,8.56,0,0,0,1.1-1l.1.2c-.52.61-1.13,1.22-1.13,1.22a2,2,0,0,0,.13.31l-1.48-.36a2.6,2.6,0,0,0,1.28-.39Zm-2.39-.28a1.1,1.1,0,0,0,.43.5l-1.11-.27a3,3,0,0,0,.68-.22ZM46,51.67a2.42,2.42,0,0,0,0-1.28l4,1.15a5.9,5.9,0,0,1-.78.8h0l0,0h0l-.12,0h-.05l-.08,0,0,0H48.8l-.08,0h-.48a2.6,2.6,0,0,0-.4,0A2.89,2.89,0,0,0,46,51.67Z"/><path class="cls-4" d="M50.56,42.58v-.91H47.72c-.31.51-.5.86-.59,1A14.79,14.79,0,0,1,45,44.82c.43,1.2,1.94.7,2.43.37a13.67,13.67,0,0,0,1.46-1.36S51.11,42.35,50.56,42.58Z"/><path class="cls-4" d="M52.75,43v-1.3H50.17a14.52,14.52,0,0,0-.85,1.41,14.79,14.79,0,0,1-2.14,2.13c.43,1.2,1.94.7,2.43.37a13.67,13.67,0,0,0,1.46-1.36S53.29,42.75,52.75,43Z"/><path class="cls-4" d="M54.34,43.78v-2.1H52.65a16.9,16.9,0,0,0-1.19,2.22A13.53,13.53,0,0,1,49.67,46c.36,1.21,1.62.71,2,.38A12.37,12.37,0,0,0,52.92,45S54.79,43.55,54.34,43.78Z"/><path class="cls-5" d="M42.25,44.81a14.79,14.79,0,0,0,2.14-2.13c.36-.64,2.14-4.29,3-4.47s3.45,1.85,4.54,2.45,4.17-.1,5,.85a38,38,0,0,1,3.52,6c1.31,2.63,2.11,5.46,2.87,6.77s1.74,2.77,4,5.89S75,71.5,75,71.5H62.2s-3.23-9.46-5-12-3-2.48-4.46-2.94-5.06-1.81-7-3.92-2.62-.83-3.57-2.82c-.48-1,.88-1.17.44-2.59s2.08-1.49,2.8-.78A1.86,1.86,0,0,1,46,48.59a2.92,2.92,0,0,1,1.88.54,2.91,2.91,0,0,1,1.38.16s1.85-1.51,1.82-3.14-.51-2.4-3.2-3.64c0,0-1,1.24-1.69,1.31a12.69,12.69,0,0,1-1.46,1.36C44.19,45.5,42.69,46,42.25,44.81Z"/><g class="cls-11"><path class="cls-3" d="M60.77,51l-1.12-.35,0,0s0,0,0-.05l0-.06a.08.08,0,0,0,0,0l0-.05a.41.41,0,0,1,0-.09l0,0,0-.05,0,0,0,0,0,0,0,0,0,0a.1.1,0,0,0-.05,0l0,0-.06,0h0l-.1,0-8.11-2.53a.18.18,0,0,0-.13-.2l-.5-.17a.21.21,0,0,0-.23.1l-9-2.79a.18.18,0,0,0-.11-.19L40.48,44a.2.2,0,0,0-.23.14h0l-.06.17L38.71,44a.64.64,0,0,0-.54,0l-.09.07L37.66,44c-.11,0-.2,0-.24.09s0,.19.13.22l.38.2c0,.22.2.35.45.44l1.33.67-.05.17a.18.18,0,0,0,.1.25l.4.14a.18.18,0,0,0,.21-.09l8.87,3.13a.2.2,0,0,0,.12.22l.5.17a.23.23,0,0,0,.23-.09l8,2.82a1.06,1.06,0,0,0,1-.18l.32.12h0l.79.28A.86.86,0,0,0,60.77,51Z"/></g><g class="cls-12"><path class="cls-13" d="M53.31,55.79c-.87-.29-3.75-1.29-6.55-2.2a20.07,20.07,0,0,0,6,3c1.49.46,2.68.42,4.46,2.94s5,12,5,12h.94S59.55,61.67,57.77,59,54.8,56.28,53.31,55.79Z"/></g><path class="cls-14" d="M60.32,51l1.73.49a.8.8,0,0,0,.94-.63.78.78,0,0,0-.5-1l-1.73-.43Z"/><path class="cls-14" d="M60.32,51l1.73.49a.8.8,0,0,0,.94-.63.78.78,0,0,0-.5-1l-1.73-.43Z"/><path class="cls-14" d="M60.32,51l1.73.49a.8.8,0,0,0,.94-.63.78.78,0,0,0-.5-1l-1.73-.43Z"/><path class="cls-15" d="M61.7,50.48a1.41,1.41,0,0,0,0-.86l-.91-.23L60.33,51l.9.26A1.39,1.39,0,0,0,61.7,50.48Z"/><path class="cls-14" d="M38.88,44.65l.5.22.13-.47L39,44.34c-.11,0-.2,0-.24.1S38.78,44.62,38.88,44.65Z"/><path class="cls-14" d="M39.75,45.23l1.54.66.4-1.45L40,44.26c-.33-.08-.62,0-.72.33S39.43,45.14,39.75,45.23Z"/><path class="cls-15" d="M41.47,45.26l.22-.82L40,44.26c-.33-.08-.62,0-.72.33a.29.29,0,0,0,0,.09Z"/><path class="cls-14" d="M41.57,46.18l18.34,5.19a1.24,1.24,0,0,0,1.46-1,1.21,1.21,0,0,0-.76-1.56L42.08,44.33Z"/><path class="cls-15" d="M61.42,50.11a1.16,1.16,0,0,0-.81-1.27L42.08,44.33,41.9,45Z"/><path class="cls-16" d="M53.84,48.41a.33.33,0,0,0,.23.41l6,1.69a.46.46,0,0,0,.52-.4.46.46,0,0,0-.28-.47l-6-1.46a.33.33,0,0,0-.41.23Z"/><path class="cls-16" d="M51.7,46.49l.51.14a.21.21,0,0,1,.13.27L51.77,49a.22.22,0,0,1-.25.17L51,49a.21.21,0,0,1-.13-.27l.57-2.09a.22.22,0,0,1,.25-.17Z"/><path class="cls-16" d="M41.79,44.1l.41.11a.18.18,0,0,1,.11.24l-.48,1.75a.18.18,0,0,1-.22.15h0l-.41-.11a.19.19,0,0,1-.12-.24l.48-1.75A.2.2,0,0,1,41.79,44.1Z"/><path class="cls-5" d="M46.28,48.6H46a1.85,1.85,0,0,0-.52-2.12c-.72-.72-3.24-.66-2.8.77s-.92,1.59-.44,2.59c1,2,1.66.71,3.57,2.82a6.38,6.38,0,0,0,.52.52Z"/><path class="cls-5" d="M46.28,39.34c-.79,1.19-1.65,2.92-1.89,3.34a14.6,14.6,0,0,1-2.14,2.12c.43,1.21,1.94.7,2.43.38a14.53,14.53,0,0,0,1.46-1.37l.14,0Z"/><path class="cls-3" d="M50.87,40h0a15.73,15.73,0,0,0,3.82,2.07c2.64,1.08-.2-1.13-.2-1.13h0a6.81,6.81,0,0,1-2.59-.29C51.63,40.51,51.27,40.28,50.87,40Z"/><path class="cls-3" d="M47.84,42.5a1.6,1.6,0,0,1-.46-.74s-.08.78.17,1.07Z"/><path class="cls-3" d="M42.19,49.84a1.57,1.57,0,0,1,1.34-1s-1.14.58-1.24,1.2Z"/><path class="cls-5" d="M29.77,36a6.56,6.56,0,0,0-3.6,2.08l-.09.11-.09.12a2.85,2.85,0,0,0-1.72.91,2.94,2.94,0,0,0-1.32.44,6.93,6.93,0,0,1-1.43-1,9.45,9.45,0,0,0-1.05,9.21l.62-.33c1.35-.76,4.55-2.82,6-5.27,1.14-2,2-1.64,2.55-2.6h0a6.9,6.9,0,0,1,2.09-1.95C32.44,37.24,31.58,35.59,29.77,36Z"/><g class="cls-17"><path class="cls-18" d="M30.77,36.69c-.91.26-1.88,1-1.69,1.22s1.11,1,1.34.78,1.52-.75,1.19-1.32S31.05,36.61,30.77,36.69Z"/><g class="cls-12"><path class="cls-13" d="M28.13,39.23a1.6,1.6,0,0,1,.48.11,2.55,2.55,0,0,1,.43.23,1.8,1.8,0,0,1,.37.3,1.52,1.52,0,0,1,.29.39,2.49,2.49,0,0,1-.43-.22l-.39-.24c-.13-.09-.26-.17-.38-.27A2.69,2.69,0,0,1,28.13,39.23Z"/></g></g><path class="cls-3" d="M14.59,57.83c-.62,4.41-1.78,11-2.25,13.67h1.72c.58-4.57,2.33-17.88,3.3-20.21a5.63,5.63,0,0,1,3.11-3.47l.62-.33a21.69,21.69,0,0,0,2.84-1.91c-3.28,1.22-5.54,2.17-6.67,3.26C16.61,49.48,15.36,52.36,14.59,57.83Z"/></g></g></g></g><g id="Capa_1-2" data-name="Capa 1"><text class="cls-19" transform="translate(86.8 72.56)"><tspan class="cls-20">M</tspan><tspan x="9.72" y="0">odulo de encuestas</tspan></text></g></g></svg>