<svg id="Capa_1" data-name="Capa 1" xmlns="http://www.w3.org/2000/svg" xmlns:xlink="http://www.w3.org/1999/xlink" viewBox="0 0 403.87 691.71"><defs><style>.cls-1,.cls-10{fill:none;}.cls-16,.cls-2,.cls-21{opacity:0.1;}.cls-11,.cls-12,.cls-13,.cls-14,.cls-2,.cls-21{isolation:isolate;}.cls-3{fill:#d89371;}.cls-4{fill:#edb08e;}.cls-5{fill:#00a8a8;}.cls-21,.cls-6{fill:#fff;}.cls-7{fill:#b3b3b3;}.cls-8{fill:#d6d6d6;}.cls-9{fill:#ccc;}.cls-10{stroke:#39b54a;stroke-linecap:round;stroke-linejoin:round;stroke-width:5.79px;}.cls-12,.cls-13,.cls-14{font-size:11.13px;fill:gray;font-family:Arial-BoldMT, Arial;font-weight:700;}.cls-13{letter-spacing:0.01em;}.cls-14{letter-spacing:-0.12em;}.cls-15{clip-path:url(#clip-path);}.cls-17{fill:#7f7f7f;}.cls-18{fill:#666;}.cls-19{fill:#fbb03b;}.cls-20{clip-path:url(#clip-path-2);}</style><clipPath id="clip-path"><path class="cls-1" d="M218.67,365s10.05-8.59,12.1-12.28,12.1-24.84,16.82-25.86,19.47,10.66,25.63,14.15,23.58-.59,28.09,4.94,12.51,19.47,19.89,34.64,11.9,31.58,16.23,39.17,9.84,16,22.56,34,43.88,65.62,43.88,65.62H331.46s-18.25-54.75-28.3-69.3S286.35,435.71,277.94,433s-28.63-10.44-39.44-22.66-14.8-4.81-20.15-16.29c-2.71-5.79,4.93-6.75,2.47-15s11.77-8.61,15.83-4.48c1.87,1.91,4.87,4.7,3,12.26,0,0,7.3-.37,10.62,3.12a16.11,16.11,0,0,1,7.8.9s10.46-8.69,10.26-18.13-2.88-13.91-18.06-21.09c0,0-5.46,7.17-9.6,7.58,0,0-5.48,6-8.24,7.87S221.13,371.89,218.67,365Z"/></clipPath><clipPath id="clip-path-2"><path class="cls-1" d="M148.12,313.93a37,37,0,0,0-20.39,12q-.26.3-.51.63c-.33.44-.5.69-.5.69s-7.23,1.2-9.74,5.3a16,16,0,0,0-7.43,2.53,38.43,38.43,0,0,1-8.12-6c-10.81,15.11-13.27,36.19-5.92,53.29,1.14-.6,2.31-1.21,3.5-1.89,7.65-4.39,25.76-16.31,33.75-30.5,6.49-11.58,11.36-9.48,14.44-15h0c3.44-3.63,4.22-6.82,11.83-11.32C163.17,321.21,158.32,311.64,148.12,313.93Z"/></clipPath></defs><g id="Capa_2" data-name="Capa 2"><g id="OBJECTS"><path class="cls-2" d="M152.88,322.67a40.85,40.85,0,0,0-8.22,2.72c-2-.65-5.15-2.64-8.44-5.13a20.32,20.32,0,0,0,7.53-5.84c2.56-.56,4.78-2.08,5.22-5.42,0,0-11.63-6.07-14.42-9.14S115.89,280.47,111,280.47c-14.92,0-45.24,22.85-48.47,29s-8.12,21-12.12,36.79-5,32.25-7.56,40.3S36.63,403.66,28,423.3c-4.76,10.88-14.44,36.45-22.13,57.09v40.79H64.06c3.25-25.56,13.14-99.92,18.67-113,5.68-13.35,11.36-16.28,17.55-19.42,1.15-.57,2.31-1.16,3.5-1.81l.74-.42.39-.22.39-.22.63-.37.19-.1.76-.46.1-.06.88-.53h0a130.6,130.6,0,0,0,12-8.29h0c6.7-5.21,13.54-11.71,17.66-18.8,6.49-11.19,11.36-9.15,14.44-14.51h0c3.44-3.51,4.23-6.59,11.83-10.94C168,329.71,163.09,320.46,152.88,322.67Zm-31.09,18a16.52,16.52,0,0,0-7.44,2.43,38.19,38.19,0,0,1-8.11-5.77c-.3-.29-.67-.59-1.07-.92,4.77-3.84,9.34-8.58,11.89-10.79,5.12-4.41,8.32,6.57,14.61,9.64a2.45,2.45,0,0,0-.19.28S124.28,336.69,121.79,340.66Z"/><path class="cls-3" d="M141.12,317c-1.87,0-5.63-2.38-9.66-5.54,5.77-2.49,11.23-9.82,8-9.82-4.25,0-18.26-12.32-23.15-18.05s-26,6.54-31.22,14.16c0,0-6.49,16.32,0,20.37h0c-1.38,5.15-2.54,12.76,1.63,15.36,6.49,4.06,20.28-11.77,25.56-16.49s8.52,7.56,15.25,10.26S145.37,317,141.12,317Z"/><path class="cls-4" d="M129.79,290.3c-2.79-3.17-18.67-20.07-23.54-20.07-14.91,0-45.23,23.65-48.47,30s-8.11,21.68-12.11,38.07-5,33.38-7.56,41.7-6.24,17.72-14.85,38C18.5,429.33,8.82,455.79,1.13,477.15v42.2H59.3C62.55,492.91,72.44,416,78,402.45c5.69-13.8,11.37-16.83,17.56-20.08,4.57-17.8,4.57-26.54,5.92-53.29-2.61-2.54-9.4-6.41-10.13-10.17-1.72-9.25-6.19-17.25,12.48-28.26,0,0,13.61,8.65,17.73,8.18,0,0,6.64,4.71,9.74,5.95s12,2.31,13-5C144.21,299.78,132.6,293.5,129.79,290.3Z"/><rect class="cls-2" x="116.34" y="196.06" width="175.34" height="249.05" rx="11"/><rect class="cls-5" x="116.34" y="191.26" width="175.34" height="249.05" rx="11"/><rect class="cls-6" x="126.49" y="200.26" width="155.03" height="231.06"/><rect class="cls-7" x="171.95" y="241.82" width="94.14" height="7.79"/><rect class="cls-8" x="171.95" y="255.98" width="94.14" height="7.79"/><rect class="cls-8" x="141.12" y="270.14" width="124.97" height="7.79"/><path class="cls-8" d="M172,200.22a4,4,0,0,0,4,3.93h56a4,4,0,0,0,4-3.93Z"/><path class="cls-8" d="M232,180.47H212.66a8.65,8.65,0,1,0-17.3,0H176a4,4,0,0,0-4,4h0V198a4,4,0,0,0,4,4h56a4,4,0,0,0,4-4h0V184.49a4,4,0,0,0-4-4Zm-28,3.4a3.4,3.4,0,1,1,3.4-3.4A3.4,3.4,0,0,1,204,183.87Z"/><path class="cls-9" d="M172,194.45V198a4,4,0,0,0,4,4h56a4,4,0,0,0,4-4h0v-3.59Z"/><path class="cls-8" d="M160.87,245.88v13.8h-15.7v-13.8h15.7m4.06-4.06H141.12v21.95h23.81V241.82Z"/><rect class="cls-7" x="171.95" y="291.03" width="94.14" height="7.79"/><rect class="cls-8" x="171.95" y="305.19" width="94.14" height="7.79"/><rect class="cls-8" x="141.12" y="319.35" width="124.97" height="7.79"/><rect class="cls-8" x="141.12" y="380.84" width="55.59" height="7.79"/><rect class="cls-8" x="141.12" y="394.5" width="30.43" height="7.79"/><rect class="cls-8" x="210.74" y="380.84" width="55.59" height="7.79"/><rect class="cls-8" x="210.74" y="394.5" width="30.43" height="7.79"/><path class="cls-8" d="M160.87,295.09v13.8h-15.7v-13.8h15.7m4.06-4.06H141.12v21.91h23.81Z"/><rect class="cls-7" x="141.12" y="340.24" width="124.97" height="7.66"/><path class="cls-8" d="M192.82,357.4v13.79H145.17V357.4h47.65m4.06-4.06H141.12v21.91h55.76Z"/><path class="cls-8" d="M262,357.4v13.79H214.39V357.4H262m4.06-4.06H210.33v21.91h55.76Z"/><polyline class="cls-10" points="167.01 242.6 152.97 256.63 145.65 249.31"/><polyline class="cls-10" points="167.01 291.03 152.97 305.07 145.65 297.75"/><g class="cls-11"><text class="cls-12" transform="translate(140.69 227.66)">REGIST</text><text class="cls-13" transform="translate(173.04 227.66)">R</text><text class="cls-14" transform="translate(179.09 227.66)">A</text><text class="cls-12" transform="translate(185.04 227.66)">TION FORM</text></g><path class="cls-2" d="M152.88,322.67a40.85,40.85,0,0,0-8.22,2.72,21.22,21.22,0,0,1-4.59-2.43c-1.38,1.19-2.78,2.34-4.24,3.44a37.17,37.17,0,0,1-8.55,5.2,15.06,15.06,0,0,0,4.42,3.64,3.28,3.28,0,0,0-.19.27s-7.23,1.15-9.74,5.12a17.76,17.76,0,0,0-5.68,1.46v20.84h.28v16c1.16-.81,2.35-1.72,3.54-2.65h0c6.7-5.21,13.54-11.72,17.66-18.81,6.49-11.19,11.36-9.15,14.44-14.51h0c3.44-3.5,4.23-6.59,11.83-10.94C168,329.71,163.09,320.46,152.88,322.67Z"/><path class="cls-2" d="M244.16,433.44h0l.12.09,1.05.81.42.32.82.59.48.35.76.53.48.35.82.54.46.31,1,.62.31.21,1.27.81.4.25.89.53.51.3.81.46.53.3.81.45.51.28.88.47.43.22c.42.23.81.45,1.28.67l.27.14,1,.52.47.22.81.4.51.25.82.36.5.24.81.36.45.2,1,.46.19.09,1.2.51.39.16.81.33.44.18.73.3.44.17.7.28.42.16.81.3.28.11,1,.38.22.08.77.28.35.13.6.21.35.12.56.19.33.11.57.19.24.08.81.24c8.41,2.65,15.17,2.43,25.22,16.94,6.19,9.2,15.92,34.52,22.12,51.77h67c-10.23-15.42-24.78-37.17-32.5-48.1-12.72-18-18.25-26.32-22.56-33.88-2.63-4.62-5.34-12.51-8.74-21.41a2.29,2.29,0,0,0,.12-.37,4.1,4.1,0,0,0-2.26-5.1c-1.62-4-3.36-8.11-5.32-12.1-7.38-15.1-15.42-29-19.89-34.48-2.8-3.42-10.6-3.15-17.58-3.28h-.11c-.63,0-1.25,0-1.86-.05h-1.24l-.81,0h-.16l-.78-.07h-.17l-.65-.07h-.27l-.63-.1h-.24l-.57-.1-.26-.05-.53-.13-.25-.07-.46-.13-.27-.09a3.84,3.84,0,0,1-.36-.14l-.31-.31c-.21-.1-.41-.19-.61-.3l-.59-.35-.27-.16-.37-.23-.35-.22-.34-.21-.43-.27-.29-.18-.47-.31-.29-.2-.53-.34-.26-.17-.62-.42-.2-.13-.81-.54c-7-4.7-16.23-11.13-19.81-10.36-4.71,1-14.77,22.05-16.81,25.72-1.45,2.61-6.92,7.66-10,10.38a1.11,1.11,0,0,0-.36.32l-1.33,1.16-6.65-.73a4.74,4.74,0,0,0-1.76-.17,2.3,2.3,0,0,0-1,.43,3.33,3.33,0,0,0-.39.36l-.05.08-2.16-.24c-.54-.14-1-.08-1.19.55s.21.93.75,1.08l2,.87c.16,1.15,1.15,1.76,2.44,2.12l7,3.05-.24.9a1,1,0,0,0,.57,1.24h0l2.09.56a.93.93,0,0,0,1-.51l.28.08a4.54,4.54,0,0,0-1,4.87c2.43,8.21-5.19,9.17-2.48,14.94,5.36,11.42,9.35,4.06,20.15,16.23a50.51,50.51,0,0,0,5.68,5.36Zm-11.22-48.81c.44-.34.93-.75,1.44-1.21a7.18,7.18,0,0,0,1.13,1.85Zm27.31,2.74a51.4,51.4,0,0,0,6.21-5.68c.2.39.38.81.54,1.18-2.94,3.49-6.39,7-6.39,7a7.94,7.94,0,0,0,.77,1.8L253,389.6a14.58,14.58,0,0,0,7.25-2.23Zm-13.51-1.62a6.18,6.18,0,0,0,2.43,2.87l-6.29-1.56a15.94,15.94,0,0,0,3.86-1.29Zm-7.12,18.9a14.11,14.11,0,0,0,.2-7.38l22.87,6.64a39,39,0,0,1-4.45,4.64h0l-.13.11h0l-.05,0h0l-.68-.26-.24-.08-.46-.14a1,1,0,0,1-.28-.08L256,408l-.28-.06-.43-.08-.25,0-.46-.07h-.21l-.48,0h-1.32a15.63,15.63,0,0,0-2.27.13c-3.33-3.56-10.65-3.2-10.65-3.2Z"/><path class="cls-3" d="M265.68,352.1v-5.26H249.62c-1.79,2.93-2.82,5-3.33,5.89-2,3.69-12.1,12.29-12.1,12.29,2.43,7,11,4.06,13.72,2.15s8.25-7.89,8.25-7.89C256.43,359.28,268.75,350.75,265.68,352.1Z"/><path class="cls-3" d="M278,354.41v-7.54h-14.6c-2.73,4.16-4.16,7-4.8,8.18-2.05,3.69-12.1,12.28-12.1,12.28,2.44,7,11,4.06,13.73,2.15s8.25-7.87,8.25-7.87C268.75,361.55,281.1,353.05,278,354.41Z"/><path class="cls-3" d="M287,359.05V346.87h-9.54a101.21,101.21,0,0,0-6.73,12.84C269,363.4,260.61,372,260.61,372c2.06,6.94,9.19,4.06,11.5,2.15s6.91-7.87,6.91-7.87C279.24,366.21,289.57,357.7,287,359.05Z"/><path class="cls-4" d="M218.67,365s10.05-8.59,12.1-12.28,12.1-24.84,16.82-25.86,19.47,10.66,25.63,14.15,23.58-.59,28.09,4.94,12.51,19.47,19.89,34.64,11.9,31.58,16.23,39.17,9.84,16,22.56,34,43.88,65.62,43.88,65.62H331.46s-18.25-54.75-28.3-69.3S286.35,435.71,277.94,433s-28.63-10.44-39.44-22.66-14.8-4.81-20.15-16.29c-2.71-5.79,4.93-6.75,2.47-15s11.77-8.61,15.83-4.48c1.87,1.91,4.87,4.7,3,12.26,0,0,7.3-.37,10.62,3.12a16.11,16.11,0,0,1,7.8.9s10.46-8.69,10.26-18.13-2.88-13.91-18.06-21.09c0,0-5.46,7.17-9.6,7.58,0,0-5.48,6-8.24,7.87S221.13,371.89,218.67,365Z"/><g class="cls-15"><path class="cls-2" d="M323.42,400.73l-6.38-2-.08-.25a.79.79,0,0,0-.08-.26,3.08,3.08,0,0,1-.13-.34l-.12-.25-.14-.31c-.1-.18-.2-.34-.3-.5l-.15-.21-.21-.29-.18-.21-.24-.26a1.45,1.45,0,0,0-.18-.17l-.27-.24-.19-.15-.31-.22-.21-.12a4,4,0,0,0-.35-.2l-.19-.09a5.83,5.83,0,0,0-.58-.23l-45.85-14.6a1.12,1.12,0,0,0-.7-1.2l-2.83-1a1.15,1.15,0,0,0-1.34.6L211.59,362.1A1,1,0,0,0,211,361l-2.29-.81a1.1,1.1,0,0,0-1.32.81h0l-.33,1-8.37-1.48a3.67,3.67,0,0,0-3,0,2.3,2.3,0,0,0-.53.45l-2.39-.42c-.6-.19-1.13-.16-1.37.54s.17,1,.77,1.25l2.15,1.12c.09,1.3,1.15,2.05,2.54,2.55l7.54,3.91-.33,1a1.09,1.09,0,0,0,.57,1.43l2.28.81a1.06,1.06,0,0,0,1.18-.5l50.16,18.06a1.18,1.18,0,0,0,.7,1.3l2.83.95a1.14,1.14,0,0,0,1.29-.52l45.26,16.36a6.08,6.08,0,0,0,5.68-1l1.81.64h0l4.48,1.63c2.18.81,4.68-.7,5.55-3.25S325.62,401.42,323.42,400.73Z"/></g><g class="cls-16"><path d="M281.23,428.46c-4.91-1.68-21.22-7.41-37.07-12.72,11.17,9.12,26.68,15,33.78,17.29,8.41,2.67,15.17,2.44,25.22,17s28.3,69.31,28.3,69.31h5.31s-20.29-56.87-30.31-72.56S289.64,431.33,281.23,428.46Z"/></g><path class="cls-17" d="M320.87,400.56l9.74,2.81c2.22.64,4.61-1,5.33-3.63s-.55-5.25-2.79-5.81l-9.79-2.44Z"/><path class="cls-17" d="M320.87,400.56l9.74,2.81c2.22.64,4.61-1,5.33-3.63s-.55-5.25-2.79-5.81l-9.79-2.44Z"/><path class="cls-17" d="M320.87,400.56l9.74,2.81c2.22.64,4.61-1,5.33-3.63s-.55-5.25-2.79-5.81l-9.79-2.44Z"/><path class="cls-18" d="M328.66,397.79a8.43,8.43,0,0,0-.16-5l-5.16-1.28-2.43,9.07L326,402A8.4,8.4,0,0,0,328.66,397.79Z"/><path class="cls-17" d="M199.64,364.06l2.83,1.25.74-2.73-3.09-.34c-.6-.16-1.13-.1-1.33.62S199,363.89,199.64,364.06Z"/><path class="cls-17" d="M204.55,367.4l8.72,3.83,2.25-8.39-9.46-1.07c-1.86-.46-3.5-.28-4.1,1.92S202.7,366.89,204.55,367.4Z"/><path class="cls-18" d="M214.26,367.58l1.26-4.72-9.46-1.06c-1.86-.47-3.5-.29-4.1,1.91a5.07,5.07,0,0,0-.09.54Z"/><path class="cls-17" d="M214.84,372.91l103.69,30c3.44,1,7.15-1.54,8.25-5.63s-.81-8.11-4.31-9L217.71,362.21Z"/><path class="cls-18" d="M327.06,395.65c.27-3.49-1.58-6.63-4.59-7.37L217.71,362.21l-1,3.76Z"/><path class="cls-19" d="M284.18,385.82a1.94,1.94,0,0,0,1.33,2.37l33.78,9.74a2.63,2.63,0,0,0,1.35-5l-34.12-8.46a1.93,1.93,0,0,0-2.34,1.37Z"/><path class="cls-19" d="M272.12,374.7l2.88.81a1.23,1.23,0,0,1,.73,1.56l-3.24,12.1a1.24,1.24,0,0,1-1.42,1l-2.88-.81a1.23,1.23,0,0,1-.73-1.56l3.25-12.09a1.21,1.21,0,0,1,1.41-1Z"/><path class="cls-19" d="M216,360.86l2.34.62a1.12,1.12,0,0,1,.66,1.4L216.31,373a1.1,1.1,0,0,1-1.26.9h0l-2.33-.63a1.1,1.1,0,0,1-.66-1.4l2.72-10.14A1.1,1.1,0,0,1,216,360.86Z"/><path class="cls-4" d="M241.45,386.87a17.88,17.88,0,0,0-1.83,0c1.87-7.55-1.1-10.34-3-12.25-4.06-4.13-18.29-3.79-15.83,4.47s-5.18,9.21-2.47,15c5.35,11.48,9.35,4.1,20.15,16.28.92,1,1.91,2,2.95,3Z"/><path class="cls-4" d="M241.45,333.36c-4.48,6.83-9.32,16.86-10.68,19.29-2.05,3.69-12.1,12.29-12.1,12.29,2.44,6.95,11,4,13.73,2.15s8.24-7.87,8.24-7.87a4.31,4.31,0,0,0,.81-.17Z"/><path class="cls-2" d="M267.4,337.22h0c.18.13,6.62,5.68,21.59,11.95s-1.13-6.49-1.13-6.49h0c-5.69-.11-11.57,0-14.61-1.7C271.71,340.11,269.67,338.75,267.4,337.22Z"/><path class="cls-2" d="M250.27,351.63a9.27,9.27,0,0,1-2.58-4.31s-.47,4.52,1,6.22Z"/><path class="cls-2" d="M218.35,394.07s2.25-5.91,7.59-5.79c0,0-6.5,3.33-7,6.92Z"/><path class="cls-4" d="M148.12,313.93a37,37,0,0,0-20.39,12q-.26.3-.51.63c-.33.44-.5.69-.5.69s-7.23,1.2-9.74,5.3a16,16,0,0,0-7.43,2.53,38.43,38.43,0,0,1-8.12-6c-10.81,15.11-13.27,36.19-5.92,53.29,1.14-.6,2.31-1.21,3.5-1.89,7.65-4.39,25.76-16.31,33.75-30.5,6.49-11.58,11.36-9.48,14.44-15h0c3.44-3.63,4.22-6.82,11.83-11.32C163.17,321.21,158.32,311.64,148.12,313.93Z"/><g class="cls-20"><path class="cls-21" d="M153.78,318c-5.19,1.52-10.66,5.8-9.56,7s6.24,6,7.58,4.56,8.6-4.35,6.71-7.65S155.32,317.57,153.78,318Z"/><g class="cls-16"><path d="M138.82,332.7a9.82,9.82,0,0,1,2.72.65,13.78,13.78,0,0,1,2.43,1.29,13.36,13.36,0,0,1,2.12,1.77,9.17,9.17,0,0,1,1.62,2.28,22.52,22.52,0,0,1-2.43-1.28c-.75-.45-1.49-.93-2.22-1.42s-1.44-1-2.15-1.52A18.62,18.62,0,0,1,138.82,332.7Z"/></g></g><path class="cls-2" d="M62.26,440.3c-3.51,25.5-10,63.5-12.71,79.06h9.74C62.54,492.92,72.43,416,78,402.45c5.68-13.79,11.36-16.83,17.55-20.07,1.14-.6,2.31-1.21,3.5-1.89a129.82,129.82,0,0,0,16.09-11c-18.59,7-31.37,12.52-37.74,18.83C73.68,392,66.6,408.65,62.26,440.3Z"/></g></g></svg>