<svg xmlns="http://www.w3.org/2000/svg" xmlns:xlink="http://www.w3.org/1999/xlink" viewBox="0 0 200 76.52"><defs><style>.cls-1{fill:#4496ca;}.cls-2{fill:none;}.cls-3{fill:#60bfed;}.cls-4{fill:#fab51d;}.cls-5{fill:#082c3f;}.cls-6{fill:#176585;}.cls-7{fill:#a9dcf2;}.cls-8{fill:#fff;}.cls-9{clip-path:url(#clip-path);}.cls-10{clip-path:url(#clip-path-2);}.cls-11{clip-path:url(#clip-path-3);}.cls-12{fill:#ffd56e;}.cls-13{fill:#feca34;}.cls-14{font-size:12px;fill:#f2f2f2;font-family:MyriadPro-Regular, Myriad Pro;}.cls-15{letter-spacing:0.01em;}.cls-16{letter-spacing:0.01em;}.cls-17{letter-spacing:0em;}</style><clipPath id="clip-path"><rect class="cls-1" x="35.27" y="13.58" width="19.19" height="11.9" rx="1.92"/></clipPath><clipPath id="clip-path-2"><rect class="cls-2" x="33.48" y="5.55" width="10.28" height="8.16" rx="1.32"/></clipPath><clipPath id="clip-path-3"><path class="cls-2" d="M49.6,50H34.7a1.9,1.9,0,0,1-1.86-1.92V27.2a1.9,1.9,0,0,1,1.86-1.92H49.6a1.89,1.89,0,0,1,1.86,1.92V48.12A1.89,1.89,0,0,1,49.6,50Z"/></clipPath></defs><g id="Capa_2" data-name="Capa 2"><g id="Capa_3" data-name="Capa 3"><rect class="cls-3" width="200" height="76.52"/><g id="Capa_4" data-name="Capa 4"><path class="cls-4" d="M49.6,50H34.7a1.9,1.9,0,0,1-1.86-1.92V27.2a1.9,1.9,0,0,1,1.86-1.92H49.6a1.89,1.89,0,0,1,1.86,1.92V48.12A1.89,1.89,0,0,1,49.6,50Z"/><rect class="cls-5" x="33.48" y="5.55" width="10.28" height="8.16" rx="1.32"/><path class="cls-6" d="M50.67,57.93H30.87a.77.77,0,1,1,0-1.54h19.8a2.49,2.49,0,0,0,2.49-2.49v-.07a2.5,2.5,0,0,0-2.49-2.49H30.87a.77.77,0,1,1,0-1.53h19.8a4,4,0,0,1,4,4v.07A4,4,0,0,1,50.67,57.93Z"/><path class="cls-6" d="M52.68,51.42a.45.45,0,0,1-.16,0,.57.57,0,0,1-.39-.71l5.49-18.15H27.55L31,50.73a.58.58,0,0,1-.45.68.58.58,0,0,1-.68-.46L26.16,31.38h33L53.23,51A.57.57,0,0,1,52.68,51.42Z"/><path class="cls-6" d="M58.39,32.53a.63.63,0,0,1-.19,0,.58.58,0,0,1-.35-.74l2.27-6.37h5.39a.58.58,0,0,1,0,1.15H60.94l-2,5.61A.58.58,0,0,1,58.39,32.53Z"/><path class="cls-6" d="M70.2,26.92H65.52a1,1,0,1,1,0-1.91H70.2a1,1,0,1,1,0,1.91Z"/><path class="cls-7" d="M47.23,63a4,4,0,1,0,4-4A4,4,0,0,0,47.23,63Z"/><path class="cls-7" d="M28.57,63a4,4,0,1,0,4-4A4,4,0,0,0,28.57,63Z"/><path class="cls-8" d="M49.35,63a1.85,1.85,0,1,0,1.85-1.85A1.85,1.85,0,0,0,49.35,63Z"/><path class="cls-8" d="M30.49,63a1.86,1.86,0,1,0,1.85-1.85A1.85,1.85,0,0,0,30.49,63Z"/><path class="cls-6" d="M48.7,50.94h-.1a.58.58,0,0,1-.47-.66l3.08-17.7a.57.57,0,1,1,1.13.2l-3.07,17.7A.58.58,0,0,1,48.7,50.94Z"/><path class="cls-6" d="M44.37,50.56h0a.58.58,0,0,1-.54-.62L45,32.44a.57.57,0,0,1,.61-.54.57.57,0,0,1,.54.61L44.94,50A.58.58,0,0,1,44.37,50.56Z"/><path class="cls-6" d="M35.33,50.94a.57.57,0,0,1-.57-.48L32,32.76a.58.58,0,0,1,1.14-.18l2.79,17.7a.58.58,0,0,1-.48.66Z"/><path class="cls-6" d="M39.94,50.56a.57.57,0,0,1-.57-.55L38.5,32.5a.58.58,0,0,1,1.15,0L40.52,50a.59.59,0,0,1-.55.61Z"/><path class="cls-6" d="M56.49,38.63H28.79a.58.58,0,1,1,0-1.15h27.7a.58.58,0,1,1,0,1.15Z"/><path class="cls-6" d="M54.18,44.79H29.75a.58.58,0,0,1,0-1.16H54.18a.58.58,0,0,1,0,1.16Z"/><circle class="cls-5" cx="57.95" cy="41.85" r="5.26"/><rect class="cls-8" x="57.35" y="38.94" width="1.2" height="5.83"/><rect class="cls-8" x="55.04" y="41.25" width="5.83" height="1.2"/><rect class="cls-1" x="35.27" y="13.58" width="19.19" height="11.9" rx="1.92"/><g class="cls-9"><rect class="cls-8" x="48.13" y="11.27" width="0.19" height="17.79"/><rect class="cls-8" x="30.64" y="18.28" width="26.04" height="0.19"/></g><g class="cls-10"><rect class="cls-8" x="36.36" y="3.34" width="0.19" height="12.92"/></g><g class="cls-11"><rect class="cls-8" x="30.55" y="28.32" width="22.22" height="0.19"/></g><circle class="cls-12" cx="67.88" cy="33.41" r="4.69"/><path class="cls-8" d="M71.31,33.7a4,4,0,0,1-6.72,0,3.7,3.7,0,0,1,6.72,0Z"/><path class="cls-12" d="M69.43,33.55A1.42,1.42,0,1,1,68,32.14,1.41,1.41,0,0,1,69.43,33.55Z"/><path class="cls-5" d="M29.38,26.34a3.51,3.51,0,1,1-3.5-3.5A3.51,3.51,0,0,1,29.38,26.34Z"/><path class="cls-8" d="M27.83,28H24a.38.38,0,0,1-.38-.38V25.18A.38.38,0,0,1,24,24.8h3.82a.38.38,0,0,1,.38.38v2.44A.38.38,0,0,1,27.83,28Zm-3.43-.77h3V25.57h-3Z"/><circle class="cls-8" cx="25.97" cy="26.34" r="0.54"/><path class="cls-8" d="M27,25.52a.48.48,0,0,1-.48-.48v-.3a.48.48,0,0,1,.48-.48.49.49,0,0,1,.48.48V25A.49.49,0,0,1,27,25.52Z"/><path class="cls-1" d="M63,21.34a2.94,2.94,0,1,1-2.94-2.94A2.94,2.94,0,0,1,63,21.34Z"/><path class="cls-8" d="M58.85,22.82a.39.39,0,0,1-.28-.12.38.38,0,0,1,0-.54L61,19.82a.38.38,0,1,1,.53.55l-2.4,2.34A.38.38,0,0,1,58.85,22.82Z"/><path class="cls-8" d="M59.76,20.36a.56.56,0,1,1-.56-.56A.56.56,0,0,1,59.76,20.36Z"/><circle class="cls-8" cx="61.01" cy="22.11" r="0.56"/><path class="cls-1" d="M61.24,22.11a.23.23,0,0,1-.23.23.23.23,0,0,1-.24-.23.24.24,0,0,1,.24-.24A.23.23,0,0,1,61.24,22.11Z"/><path class="cls-1" d="M59.44,20.36a.24.24,0,0,1-.24.24.23.23,0,0,1-.23-.24.23.23,0,0,1,.23-.23A.23.23,0,0,1,59.44,20.36Z"/><circle class="cls-1" cx="21.22" cy="44.78" r="6.31" transform="translate(-25.45 28.12) rotate(-45)"/><path class="cls-8" d="M24,42.5a2.28,2.28,0,0,0-2.76,1,2.36,2.36,0,0,0-2.83-1,1.78,1.78,0,0,0-.7,2.57,21.41,21.41,0,0,0,3.53,3.41,21,21,0,0,0,3.53-3.41A1.79,1.79,0,0,0,24,42.5Z"/><circle class="cls-13" cx="27.79" cy="16.48" r="5.1" transform="translate(5.57 39.95) rotate(-77.23)"/><polygon class="cls-8" points="27.79 12.9 28.88 15.1 31.3 15.45 29.55 17.16 29.96 19.57 27.79 18.43 25.62 19.57 26.04 17.16 24.28 15.45 26.71 15.1 27.79 12.9"/></g></g><g id="Capa_1-2" data-name="Capa 1"><text class="cls-14" transform="translate(109.36 72.56)"><tspan class="cls-15">M</tspan><tspan x="9.72" y="0">odulo </tspan><tspan class="cls-16" x="41.65" y="0">I</tspan><tspan class="cls-17" x="44.64" y="0">nsumos</tspan></text></g></g></svg>