<svg xmlns="http://www.w3.org/2000/svg" xmlns:xlink="http://www.w3.org/1999/xlink" viewBox="0 0 200 76.52"><defs><style>.cls-1{fill:#4082c4;}.cls-2{fill:#e7d4ce;}.cls-3{fill:#4656a2;}.cls-4{fill:#e34658;}.cls-5{fill:#eea886;}.cls-6{fill:#183442;}.cls-7{fill:#a77961;}.cls-8{fill:#514e5a;}.cls-9{fill:#a99594;}.cls-10{fill:#fcc357;}.cls-11{fill:url(#linear-gradient);}.cls-12{fill:#efaa88;}.cls-13{fill:#fff;}</style><linearGradient id="linear-gradient" x1="11.12" y1="33.75" x2="47.29" y2="33.75" gradientTransform="matrix(1, 0, 0, -1, 0, 78)" gradientUnits="userSpaceOnUse"><stop offset="0" stop-color="#5dc2d8"/><stop offset="1" stop-color="#556db3"/></linearGradient></defs><g id="Layer_2" data-name="Layer 2"><g id="Layer_2-2" data-name="Layer 2"><g id="Capa_3" data-name="Capa 3"><rect class="cls-1" width="200" height="76.52"/><g id="Capa_2-2" data-name="Capa 2-2"><path class="cls-2" d="M11,66.94a5.4,5.4,0,0,1-.62,1.13C10.07,68.39,9,69,9,69.91s1.83.75,2.54.71.77-.59,1.07-1.17.61-.49.67-1A6,6,0,0,0,13,67Z"/><path class="cls-2" d="M27.84,67.13a4.84,4.84,0,0,0,2,1.26c1,.22,1.72.5,1.73,1.1s-2.91,1-4.07.39c-1.73-.9-1.91-.63-2.1-1.08s.23-1.66.22-1.8A11.87,11.87,0,0,1,27.84,67.13Z"/><path class="cls-3" d="M25.18,36.89s1.05,7.61,1.48,10.18c.5,3,.67,5.49.81,7,.17,2,.51,12.25.63,12.82s-2.74.29-2.74.29-2.07-13.35-2.6-15.44-1.82-9.94-2.27-9.41-3.23,9.89-3.56,11.42-3.5,13.52-3.5,13.52-2.37.51-3,0c0,0,2.07-11,2.28-13.88.08-1.1.73-13,2.58-17.88C16.29,33,25.18,36.89,25.18,36.89Z"/><path class="cls-4" d="M22.11,18.64a17.6,17.6,0,0,1,3.1.86,13.09,13.09,0,0,1,1,4.19,33.13,33.13,0,0,1-.7,5.7,56.15,56.15,0,0,0-.11,9.26,39,39,0,0,1-11,.37s.95-6,.73-7.76c-.28-2.31-1-7.63-1-7.63s.74-3.58,1.22-4a20.23,20.23,0,0,1,3.89-1.08Z"/><path class="cls-5" d="M21,10.07s3.34-1.24,3.13,3.2-1,4.88-3.18,4.26-2.38-3.42-2.67-4.76S19.87,10.26,21,10.07Z"/><path class="cls-5" d="M22.66,19.34s-1.73,1.41-3.4-.79a11.8,11.8,0,0,0-.44-3.45c-.51-1.67,3.49,2.22,3.49,2.22v.43a3.89,3.89,0,0,0,.13.68A7.65,7.65,0,0,0,22.66,19.34Z"/><path class="cls-6" d="M18.71,15s0-1.18.48-1.29.75.58.75.58h.39s-.35-1.2.12-1.48,3.27,0,3.63-.44-.16-2.8-.93-3-2.86-.72-4.18.47a1.25,1.25,0,0,0-1.2,1.3.57.57,0,0,0,0,.13A11,11,0,0,0,18.71,15Z"/><path class="cls-7" d="M22.42,18.43c-2.59-.43-3-1.9-3-1.92a3.81,3.81,0,0,0,2.85,1.24A3.93,3.93,0,0,0,22.42,18.43Z"/><path class="cls-5" d="M19.75,13.17a.49.49,0,0,0-.65-.2.5.5,0,0,0-.25.48c.09.62.78,1.57,1,1.39S20,13.71,19.75,13.17Z"/><path class="cls-5" d="M18.36,18.74s1.56,3.16,3.86,2.9,1-2.46.75-2.81C23,18.83,21.59,17.94,18.36,18.74Z"/><path class="cls-4" d="M30.09,28.24q3.06,1.07,6.23,1.83l.34-2a39.71,39.71,0,0,0-4.23-1.42A12.76,12.76,0,0,1,30.64,26c-.14-.07-2.89-3.41-3.09-3.77A8.57,8.57,0,0,0,26.12,20a3.67,3.67,0,0,0-1.65-.82c-1.82,1.54.65,4.45.65,4.45S28.28,27.41,30.09,28.24Z"/><path class="cls-8" d="M24.48,25.57H35.75a16,16,0,0,1,16,16h0a16,16,0,0,1-16,16H24.48a16,16,0,0,1-16-16h0A16,16,0,0,1,24.48,25.57Z"/><path class="cls-9" d="M48.62,56.61h0Zm-.35,0h0Zm-.36,0h0Zm-.35,0h0Zm-.36,0h0Zm-.35,0h0Zm-.36,0h0Zm-.35,0h0Zm-.36,0h0Zm-.35,0h0Zm-.36,0h0Zm-.35,0h0Zm-.36,0h0Zm-.35,0h0Zm-.36,0h0Zm-.35,0h0Zm-.36,0h0Zm-.35,0h0Zm-.36,0h0Zm-.35,0h0Zm-.36,0h0Zm-.35,0h0Zm-.36,0h0Zm-.35,0h0Zm-.36,0h0Zm-.35,0h0Zm-.36,0h0Zm-.35,0h0Zm-.36,0h0Zm-.36,0h0Zm-.35,0h0Zm-.36,0h0Zm-.35,0h0Zm-.36,0h0Zm-.35,0h0Zm-.36,0h0Zm-.35,0h0Zm-.36,0h0Zm-.35,0h0Zm-.36,0h0Zm-.35,0h0Zm-.36,0h0Zm-.35,0h0Zm-.36,0h0Zm-.35,0h0Zm-.36,0h0Zm-.35,0h0Zm-.36,0h0Zm-.35,0h0Zm-.36,0h0Zm-.35,0h0Zm-.36,0h0Zm-.35,0h0Zm-.36,0h0Zm-.35,0h0Zm-.36,0h0Zm-.35,0h0Zm-.36,0h0Zm-.35,0h0Zm-.36,0h0Zm-.35,0h0Zm-.36,0h0Zm-.36,0h0Zm-.35,0h0Zm-.36,0h0Zm-.35,0h0Zm-.36,0h0Zm-.35,0h0Zm-.36,0h0Zm-.35,0h0Zm-.36,0h0Zm-.35,0h0Zm-.36,0h0Zm-.35,0h0Zm-.36,0h0Zm-.35,0h0Zm-.36,0h0Zm-.35,0h0Zm-.36,0h0Zm-.35,0h0Zm-.36,0h0Zm-.35,0h0Zm-.36,0h0Zm-.35,0h0Zm-.36,0h0Zm-.35,0h0Zm-.36,0h0Zm-.35,0h0Zm-.36,0h0Zm-.35,0h0Zm-.36,0h0Zm-.35,0h0Zm-.36,0h0Zm-.35,0h0Zm-.36,0h0Zm-.35,0h0Zm-.36,0h0Zm-.36,0h0Zm-.35,0h0Zm-.36,0h0Zm-.35,0h0Zm-.36,0h0Zm-.35,0h0Zm-.36,0h0Zm-.35,0h0Zm37.11,0H49v0Zm-37.47,0h0Zm37.83,0ZM11,56.53l-.17-.07h0a.44.44,0,0,0,.16.06Zm38.51-.1h0l.16-.09h0Zm-38.84,0-.15-.09h0a.42.42,0,0,0,.14.09Zm39.15-.15h0l.13-.12h0Zm-39.44,0a.8.8,0,0,1-.13-.13h0l.13.12ZM50.05,56h0a.76.76,0,0,1,.11-.14h0A.76.76,0,0,1,50.05,56Zm-39.94-.07-.1-.14h0l.1.15Zm40.15-.22h0a.77.77,0,0,0,.07-.16h.05Zm-40.34-.1-.06-.17h0l.06.16Zm40.48-.25h0v-.17h0A.25.25,0,0,1,50.4,55.36ZM9.8,55.27v-.18h0v.17ZM50.46,55h0v-.15h0ZM9.75,54.92v-.18H9.8v.17Zm40.72-.27h0v-.18h0ZM9.8,54.56H9.75v-.18H9.8Zm40.67-.27h0v-.18h0ZM9.8,54.2H9.75V54H9.8Zm40.67-.26h0v-.18h0ZM9.8,53.85H9.75v-.18H9.8Zm40.67-.27h0V53.4h0ZM9.8,53.49H9.75v-.17H9.8Zm40.67-.26h0v-.18h0ZM9.8,53.14H9.75V53H9.8Zm40.67-.27h0v-.18h0ZM9.8,52.78H9.75v-.17H9.8Zm40.67-.26h0v-.18h0ZM9.8,52.43H9.75v-.18H9.8Zm40.67-.27h0V52h0ZM9.8,52.07H9.75V51.9H9.8Zm40.67-.26h0v-.18h0ZM9.8,51.72H9.75v-.18H9.8Zm40.67-.27h0v-.18h0ZM9.8,51.36H9.75v-.17H9.8Zm40.67-.26h0v-.18h0ZM9.8,51H9.75v-.18H9.8Zm40.67-.27h0v-.18h0ZM9.8,50.65H9.75v-.17H9.8Zm40.67-.26h0v-.18h0ZM9.8,50.3H9.75v-.18H9.8ZM50.47,50h0v-.18h0ZM9.8,49.94H9.75v-.18H9.8Zm40.67-.26h0V49.5h0ZM9.8,49.59H9.75v-.18H9.8Zm40.67-.27h0v-.18h0ZM9.8,49.23H9.75v-.18H9.8ZM50.47,49h0v-.17h0ZM9.8,48.88H9.75V48.7H9.8Zm40.67-.27h0v-.18h0ZM9.8,48.52H9.75v-.18H9.8Zm40.67-.27h0v-.17h0ZM9.8,48.17H9.75V48H9.8Zm40.67-.27h0v-.18h0ZM9.8,47.81H9.75v-.18H9.8Zm40.67-.27h0v-.17h0ZM9.8,47.46H9.75v-.18H9.8Zm40.67-.27h0V47h0ZM9.8,47.1H9.75v-.18H9.8Zm40.67-.27h0v-.17h0ZM9.8,46.75H9.75v-.18H9.8Zm40.67-.27h0V46.3h0ZM9.8,46.39H9.75v-.18H9.8Zm40.67-.27h0V46h0ZM9.8,46H9.75v-.18H9.8Zm40.67-.27h0v-.18h0Zm-40.67,0H9.75V45.5H9.8Zm40.67-.27h0v-.17h0ZM9.8,45.33H9.75v-.18H9.8Zm40.67-.27h0v-.18h0ZM9.8,45H9.75v-.18H9.8Zm40.67-.27h0v-.17h0ZM9.8,44.62H9.75v-.18H9.8Zm40.67-.27h0v-.18h0ZM9.8,44.26H9.75v-.18H9.8ZM50.47,44h0v-.17h0ZM9.8,43.9H9.75v-.17H9.8Zm40.67-.26h0v-.18h0ZM9.8,43.55H9.75v-.18H9.8Zm40.67-.27h0v-.17h0ZM9.8,43.19H9.75V43H9.8Zm40.67-.26h0v-.18h0ZM9.8,42.84H9.75v-.18H9.8Zm40.67-.27h0v-.18h0ZM9.8,42.48H9.75v-.17H9.8Zm40.67-.26h0V42h0ZM9.8,42.13H9.75V42H9.8Zm40.67-.27h0v-.18h0ZM9.8,41.77H9.75V41.6H9.8Zm40.67-.26h0v-.18h0ZM9.8,41.42H9.75v-.18H9.8Zm40.67-.27h0V41h0ZM9.8,41.06H9.75v-.17H9.8Zm40.67-.26h0v-.18h0ZM9.8,40.71H9.75v-.18H9.8Zm40.67-.27h0v-.18h0ZM9.8,40.35H9.75v-.17H9.8Zm40.67-.26h0v-.18h0ZM9.8,40H9.75v-.18H9.8Zm40.67-.27h0v-.18h0ZM9.8,39.64H9.75v-.17H9.8Zm40.67-.26h0V39.2h0ZM9.8,39.29H9.75v-.18H9.8ZM50.47,39h0v-.18h0ZM9.8,38.93H9.75v-.17H9.8Zm40.67-.26h0v-.18h0ZM9.8,38.58H9.75V38.4H9.8Zm40.67-.27h0v-.18h0ZM9.8,38.22H9.75v-.17H9.8ZM50.47,38h0v-.18h0ZM9.8,37.87H9.75v-.18H9.8Zm40.67-.27h0v-.18h0ZM9.8,37.51H9.75v-.18H9.8Zm40.67-.26h0v-.18h0ZM9.8,37.16H9.75V37H9.8Zm40.67-.27h0v-.18h0ZM9.8,36.8H9.75v-.18H9.8Zm40.67-.27h0v-.17h0ZM9.8,36.45H9.75v-.18H9.8Zm40.67-.27h0V36h0ZM9.8,36.09H9.75v-.18H9.8Zm40.67-.27h0v-.17h0ZM9.8,35.74H9.75v-.18H9.8Zm40.67-.27h0v-.18h0ZM9.8,35.38H9.75V35.2H9.8Zm40.67-.27h0v-.17h0ZM9.8,35H9.75v-.18H9.8Zm40.67-.27h0v-.18h0ZM9.8,34.67H9.75v-.18H9.8Zm40.67-.27h0v-.17h0ZM9.8,34.32H9.75v-.18H9.8Zm40.67-.27h0v-.18h0ZM9.8,34H9.75v-.18H9.8Zm40.67-.27h0v-.17h0ZM9.8,33.61H9.75v-.18H9.8Zm40.67-.27h0v-.18h0ZM9.8,33.25H9.75v-.18H9.8ZM50.47,33h0v-.17h0ZM9.8,32.9H9.75v-.18H9.8Zm40.67-.27h0v-.18h0ZM9.8,32.54H9.75v-.18H9.8Zm40.67-.27h0V32.1h0ZM9.8,32.19H9.75V32H9.8Zm40.67-.27h0v-.18h0ZM9.8,31.83H9.75v-.18H9.8Zm40.67-.27h0v-.17h0ZM9.8,31.47H9.75V31.3H9.8Zm40.67-.26h0V31h0ZM9.8,31.12H9.75v-.18H9.8Zm40.67-.27h0v-.17h0ZM9.8,30.76H9.75v-.17H9.8Zm40.67-.26h0v-.18h0ZM9.8,30.41H9.75v-.18H9.8Zm40.67-.27h0V30h0ZM9.8,30.05H9.75v-.17H9.8Zm40.67-.26h0v-.18h0ZM9.8,29.7H9.75v-.18H9.8Zm40.67-.27h0v-.18h0ZM9.8,29.34H9.75v-.17H9.8Zm40.67-.26h0V28.9h0ZM9.8,29H9.75v-.18H9.8Zm40.67-.27h0v-.18h0ZM9.8,28.63H9.75v-.17H9.8Zm40.67-.26h0v-.18h0ZM9.8,28.28H9.75v-.15h0v.18ZM50.41,28v-.18h0ZM9.83,27.93H9.78a.84.84,0,0,1,.05-.17h0Zm40.5-.25a.87.87,0,0,0-.07-.17h0A.87.87,0,0,1,50.33,27.68Zm-40.4-.09h0a.16.16,0,0,1,.07-.16h0A.77.77,0,0,0,9.93,27.59Zm40.25-.23-.1-.14h0l.1.15Zm-40.09-.07h0a.76.76,0,0,1,.11-.14h0A.76.76,0,0,0,10.09,27.29ZM50,27.08,49.84,27h0l.13.12ZM10.32,27h0l.13-.12h0Zm39.38-.17-.15-.09h0Zm-39.11,0h0a.51.51,0,0,1,.16-.09h0A.51.51,0,0,0,10.59,26.8Zm38.81-.12-.17-.06v-.05l.16.07Zm-38.49,0h0l.17-.05h0Zm38.15-.08h0Zm-37.81,0h.18v0Zm37.47,0h-.19v-.05h.19Zm-.37,0h-.17v-.05h.17Zm-.35,0h-.18v-.05H48Zm-.36,0h-.17v-.05h.17Zm-.35,0h-.18v-.05h.18Zm-.36,0h-.18v-.05h.18Zm-.35,0H46.4v-.05h.18Zm-.36,0H46v-.05h.18Zm-.35,0h-.18v-.05h.18Zm-.36,0h-.18v-.05h.18Zm-.35,0H45v-.05h.18Zm-.36,0h-.18v-.05h.18Zm-.35,0h-.18v-.05h.18Zm-.36,0h-.18v-.05h.18Zm-.35,0h-.18v-.05h.18Zm-.36,0H43.2v-.05h.18Zm-.35,0h-.18v-.05H43Zm-.36,0h-.18v-.05h.18Zm-.35,0h-.18v-.05h.18Zm-.36,0h-.18v-.05H42Zm-.35,0h-.18v-.05h.18Zm-.36,0h-.18v-.05h.18Zm-.36,0h-.17v-.05h.17Zm-.35,0h-.18v-.05h.18Zm-.36,0H40v-.05h.17Zm-.35,0h-.18v-.05h.18Zm-.36,0H39.3v-.05h.17Zm-.35,0h-.18v-.05h.18Zm-.36,0h-.17v-.05h.17Zm-.35,0h-.18v-.05h.18Zm-.36,0h-.17v-.05h.17Zm-.35,0h-.18v-.05h.18Zm-.36,0h-.17v-.05h.17Zm-.35,0h-.18v-.05H37Zm-.36,0h-.17v-.05h.17Zm-.35,0H36.1v-.05h.18Zm-.36,0h-.17v-.05h.17Zm-.35,0h-.18v-.05h.18Zm-.36,0H35v-.05h.17Zm-.35,0h-.18v-.05h.18Zm-.36,0h-.18v-.05h.18Zm-.35,0H34v-.05h.18Zm-.36,0h-.18v-.05h.18Zm-.35,0h-.18v-.05h.18Zm-.36,0H32.9v-.05h.18Zm-.35,0h-.18v-.05h.18Zm-.36,0h-.18v-.05h.18Zm-.35,0h-.18v-.05H32Zm-.36,0h-.18v-.05h.18Zm-.35,0h-.18v-.05h.18Zm-.36,0h-.18v-.05H31Zm-.35,0h-.18v-.05h.18Zm-.36,0h-.18v-.05h.18Zm-.35,0h-.18v-.05h.18Zm-.36,0h-.18v-.05h.18Zm-.35,0H29v-.05h.18Zm-.36,0h-.18v-.05h.18Zm-.35,0h-.18v-.05h.18Zm-.36,0h-.18v-.05h.18Zm-.36,0h-.17v-.05h.17Zm-.35,0h-.18v-.05h.18Zm-.36,0h-.17v-.05H27Zm-.35,0h-.18v-.05h.18Zm-.36,0h-.17v-.05h.17Zm-.35,0H25.8v-.05H26Zm-.36,0h-.17v-.05h.17Zm-.35,0h-.18v-.05h.18Zm-.36,0h-.17v-.05h.17Zm-.35,0h-.18v-.05h.18Zm-.36,0H24v-.05h.17Zm-.35,0h-.18v-.05h.18Zm-.36,0h-.17v-.05h.17Zm-.35,0H23v-.05h.18Zm-.36,0h-.17v-.05h.17Zm-.35,0h-.18v-.05h.18Zm-.36,0h-.18v-.05h.18Zm-.35,0h-.18v-.05h.18Zm-.36,0h-.18v-.05h.18Zm-.35,0h-.18v-.05H21Zm-.36,0h-.18v-.05h.18Zm-.35,0h-.18v-.05h.18Zm-.36,0h-.18v-.05h.18Zm-.35,0h-.18v-.05h.18Zm-.36,0h-.18v-.05h.18Zm-.35,0H18.7v-.05h.18Zm-.36,0h-.18v-.05h.18Zm-.35,0H18v-.05h.18Zm-.36,0h-.18v-.05h.18Zm-.35,0h-.18v-.05h.18Zm-.36,0h-.18v-.05h.18Zm-.35,0h-.18v-.05h.18Zm-.36,0h-.18v-.05h.18Zm-.36,0h-.17v-.05H16Zm-.35,0H15.5v-.05h.18Zm-.36,0h-.17v-.05h.17Zm-.35,0h-.18v-.05H15Zm-.36,0h-.17v-.05h.17Zm-.35,0h-.18v-.05h.18Zm-.36,0h-.17v-.05h.17Zm-.35,0h-.18v-.05h.18Zm-.36,0H13v-.05h.17Zm-.35,0h-.18v-.05h.18Zm-.36,0h-.17v-.05h.17Zm-.35,0H12v-.05h.18Zm-.36,0H11.6v-.05h.17Z"/><path class="cls-10" d="M22.35,28H36.06A11.23,11.23,0,0,1,47.29,39.26h0A11.23,11.23,0,0,1,36.06,50.49H22.35A11.23,11.23,0,0,1,11.12,39.26h0A11.23,11.23,0,0,1,22.35,28Z"/><rect class="cls-8" x="9.75" y="32.41" width="40.11" height="19.86"/><rect class="cls-11" x="11.12" y="34.71" width="36.17" height="19.09" rx="9.54"/><rect class="cls-8" x="10.19" y="39.08" width="39.67" height="16.44"/><path class="cls-12" d="M12.21,41.38a1.51,1.51,0,0,1-.1-.42l.05-.45a.38.38,0,0,0,0-.15,2.62,2.62,0,0,1,0-.79c.07-.35.47-1.54.47-1.54l1.08.16.93-.13a16.21,16.21,0,0,1,.66,2.36v.1a2.66,2.66,0,0,1-.26.6c0,.05-.22.55-.38.6a.52.52,0,0,1-.51-.07,1.38,1.38,0,0,1-.7,0,.79.79,0,0,1-.68-.14S12.35,41.58,12.21,41.38Z"/><path class="cls-4" d="M16.9,19.56c.36.14.75,1,.46,2.74a7.55,7.55,0,0,1-1.16,3.07,24.64,24.64,0,0,0-1.76,3.75v4.26c.06.39.31,4.8.31,4.8l-2.38.57s-.43-5-.63-6.49a16,16,0,0,1-.06-3.91A33.31,33.31,0,0,1,13.21,23C13.36,22.68,14.5,18.63,16.9,19.56Z"/></g></g><path class="cls-13" d="M67.4,65v8.08h-1V65Z"/><path class="cls-13" d="M69.31,68.83c0-.6,0-1.09,0-1.57h.94l.06,1h0a2.14,2.14,0,0,1,1.92-1.09c.8,0,2,.48,2,2.47v3.46h-1V69.72c0-.94-.35-1.72-1.35-1.72a1.5,1.5,0,0,0-1.41,1.08,1.45,1.45,0,0,0-.07.49v3.49H69.31Z"/><path class="cls-13" d="M80.11,72.85a4,4,0,0,1-1.67.33,2.75,2.75,0,0,1-2.89-3,2.94,2.94,0,0,1,3.12-3.08,3.44,3.44,0,0,1,1.46.3l-.24.81A2.47,2.47,0,0,0,78.67,68a2,2,0,0,0-2,2.19,2,2,0,0,0,2,2.17,2.9,2.9,0,0,0,1.3-.29Z"/><path class="cls-13" d="M81.35,69.07c0-.69,0-1.27,0-1.81h.92l0,1.14h0a1.74,1.74,0,0,1,1.6-1.27,1.32,1.32,0,0,1,.3,0v1a1.23,1.23,0,0,0-.36,0,1.48,1.48,0,0,0-1.41,1.36,3.37,3.37,0,0,0,0,.49v3.09h-1Z"/><path class="cls-13" d="M86.49,65.63a.65.65,0,0,1-1.3,0,.64.64,0,0,1,.66-.66A.62.62,0,0,1,86.49,65.63Zm-1.17,7.43v-5.8h1.05v5.8Z"/><path class="cls-13" d="M88.13,69.15c0-.74,0-1.34,0-1.89h1l0,1h0a2.26,2.26,0,0,1,2.06-1.12c1.4,0,2.46,1.18,2.46,3,0,2.08-1.27,3.11-2.64,3.11a2,2,0,0,1-1.79-.91h0v3.16h-1Zm1,1.55a1.88,1.88,0,0,0,0,.43,1.63,1.63,0,0,0,1.58,1.24c1.12,0,1.76-.91,1.76-2.25C92.56,69,92,68,90.84,68a1.7,1.7,0,0,0-1.6,1.31,2,2,0,0,0-.07.43Z"/><path class="cls-13" d="M99.09,72.85a3.92,3.92,0,0,1-1.67.33,2.75,2.75,0,0,1-2.88-3,2.94,2.94,0,0,1,3.11-3.08,3.45,3.45,0,0,1,1.47.3l-.24.81A2.51,2.51,0,0,0,97.65,68a2.19,2.19,0,0,0,0,4.36,2.86,2.86,0,0,0,1.29-.29Z"/><path class="cls-13" d="M101.51,65.63a.63.63,0,0,1-.68.64.62.62,0,0,1-.63-.64.64.64,0,0,1,.66-.66A.63.63,0,0,1,101.51,65.63Zm-1.18,7.43v-5.8h1.06v5.8Z"/><path class="cls-13" d="M108.39,70.11a2.83,2.83,0,0,1-2.89,3.08,2.76,2.76,0,0,1-2.78-3,2.83,2.83,0,0,1,2.88-3.08A2.75,2.75,0,0,1,108.39,70.11Zm-4.6.06c0,1.27.73,2.23,1.76,2.23s1.76-.94,1.76-2.25c0-1-.49-2.23-1.74-2.23S103.79,69.07,103.79,70.17Zm3.34-5.42-1.46,1.72h-.76L106,64.75Z"/><path class="cls-13" d="M109.73,68.83c0-.6,0-1.09,0-1.57h.93l.06,1h0a2.14,2.14,0,0,1,1.92-1.09c.8,0,2,.48,2,2.47v3.46h-1.06V69.72c0-.94-.34-1.72-1.34-1.72a1.5,1.5,0,0,0-1.42,1.08,1.75,1.75,0,0,0-.07.49v3.49h-1Z"/><path class="cls-13" d="M123.94,64.55v7c0,.52,0,1.11,0,1.5H123l0-1h0a2.14,2.14,0,0,1-2,1.14c-1.4,0-2.48-1.18-2.48-3,0-1.93,1.19-3.11,2.6-3.11a1.92,1.92,0,0,1,1.75.88h0V64.55Zm-1,5.07a1.65,1.65,0,0,0,0-.44A1.54,1.54,0,0,0,121.32,68c-1.09,0-1.74,1-1.74,2.25s.57,2.14,1.71,2.14a1.67,1.67,0,0,0,1.6-1.71Z"/><path class="cls-13" d="M126.29,70.35a1.86,1.86,0,0,0,2,2,3.83,3.83,0,0,0,1.61-.3l.17.75a4.63,4.63,0,0,1-1.93.36,2.69,2.69,0,0,1-2.85-2.92c0-1.76,1-3.13,2.72-3.13a2.45,2.45,0,0,1,2.4,2.73,2.72,2.72,0,0,1,0,.49Zm3.09-.75a1.51,1.51,0,0,0-1.46-1.72,1.75,1.75,0,0,0-1.62,1.72Z"/><path class="cls-13" d="M134.26,69.15c0-.74,0-1.34,0-1.89h.94l0,1h0a2.26,2.26,0,0,1,2.06-1.12c1.4,0,2.46,1.18,2.46,3,0,2.08-1.27,3.11-2.64,3.11a2,2,0,0,1-1.79-.91h0v3.16h-1Zm1,1.55a1.88,1.88,0,0,0,0,.43,1.63,1.63,0,0,0,1.58,1.24c1.11,0,1.76-.91,1.76-2.25,0-1.16-.61-2.16-1.72-2.16a1.69,1.69,0,0,0-1.6,1.31,1.55,1.55,0,0,0-.07.43Z"/><path class="cls-13" d="M141.08,69.07c0-.69,0-1.27-.05-1.81H142l0,1.14h0a1.75,1.75,0,0,1,1.61-1.27,1.39,1.39,0,0,1,.3,0v1a1.32,1.32,0,0,0-.36,0,1.5,1.5,0,0,0-1.42,1.36,3.47,3.47,0,0,0,0,.49v3.09h-1Z"/><path class="cls-13" d="M150.14,70.11a2.83,2.83,0,0,1-2.89,3.08,2.76,2.76,0,0,1-2.78-3,2.83,2.83,0,0,1,2.88-3.08A2.75,2.75,0,0,1,150.14,70.11Zm-4.61.06c0,1.27.74,2.23,1.77,2.23s1.76-.94,1.76-2.25c0-1-.49-2.23-1.74-2.23S145.53,69.07,145.53,70.17Z"/><path class="cls-13" d="M151.8,67.26l1.14,3.26c.19.53.35,1,.47,1.49h0c.13-.48.3-1,.49-1.49l1.13-3.26h1.1l-2.27,5.8h-1l-2.21-5.8Z"/><path class="cls-13" d="M157.63,70.35a1.86,1.86,0,0,0,2,2,3.8,3.8,0,0,0,1.61-.3l.18.75a4.67,4.67,0,0,1-1.93.36,2.69,2.69,0,0,1-2.86-2.92c0-1.76,1-3.13,2.73-3.13a2.45,2.45,0,0,1,2.39,2.73,4.68,4.68,0,0,1,0,.49Zm3.09-.75a1.49,1.49,0,0,0-1.46-1.72,1.76,1.76,0,0,0-1.62,1.72Z"/><path class="cls-13" d="M163.64,70.35a1.87,1.87,0,0,0,2,2,3.8,3.8,0,0,0,1.61-.3l.18.75a4.67,4.67,0,0,1-1.93.36,2.69,2.69,0,0,1-2.85-2.92c0-1.76,1-3.13,2.72-3.13a2.46,2.46,0,0,1,2.4,2.73,4.15,4.15,0,0,1,0,.49Zm3.1-.75a1.51,1.51,0,0,0-1.47-1.72,1.77,1.77,0,0,0-1.62,1.72Z"/><path class="cls-13" d="M174.08,64.55v7c0,.52,0,1.11,0,1.5h-.95l-.05-1h0a2.15,2.15,0,0,1-2,1.14c-1.4,0-2.48-1.18-2.48-3,0-1.93,1.18-3.11,2.6-3.11A1.92,1.92,0,0,1,173,68h0V64.55ZM173,69.62a2.18,2.18,0,0,0,0-.44A1.56,1.56,0,0,0,171.45,68c-1.09,0-1.74,1-1.74,2.25s.58,2.14,1.72,2.14A1.59,1.59,0,0,0,173,71.08a2.09,2.09,0,0,0,0-.45Z"/><path class="cls-13" d="M181.09,70.11a2.83,2.83,0,0,1-2.89,3.08,2.76,2.76,0,0,1-2.79-3,2.84,2.84,0,0,1,2.88-3.08A2.75,2.75,0,0,1,181.09,70.11Zm-4.61.06c0,1.27.73,2.23,1.76,2.23s1.77-.94,1.77-2.25c0-1-.49-2.23-1.74-2.23S176.48,69.07,176.48,70.17Z"/><path class="cls-13" d="M182.42,69.07c0-.69,0-1.27,0-1.81h.93l0,1.14h0A1.75,1.75,0,0,1,185,67.13a1.39,1.39,0,0,1,.3,0v1a1.32,1.32,0,0,0-.36,0,1.5,1.5,0,0,0-1.42,1.36,3.47,3.47,0,0,0,0,.49v3.09h-1.05Z"/><path class="cls-13" d="M186.81,70.35a1.87,1.87,0,0,0,2,2,3.75,3.75,0,0,0,1.6-.3l.18.75a4.67,4.67,0,0,1-1.93.36,2.69,2.69,0,0,1-2.85-2.92c0-1.76,1-3.13,2.72-3.13a2.46,2.46,0,0,1,2.4,2.73,4.15,4.15,0,0,1,0,.49Zm3.1-.75a1.51,1.51,0,0,0-1.46-1.72,1.75,1.75,0,0,0-1.62,1.72Z"/><path class="cls-13" d="M192.09,72a2.76,2.76,0,0,0,1.4.42c.76,0,1.12-.38,1.12-.86s-.3-.78-1.08-1.07c-1-.37-1.53-1-1.53-1.64a1.78,1.78,0,0,1,2-1.7,2.83,2.83,0,0,1,1.43.36l-.27.76a2.25,2.25,0,0,0-1.18-.33c-.63,0-1,.36-1,.79s.34.69,1.1,1c1,.39,1.52.89,1.52,1.75,0,1-.79,1.74-2.17,1.74a3.33,3.33,0,0,1-1.63-.39Z"/></g></g></svg>