<svg xmlns="http://www.w3.org/2000/svg" viewBox="0 0 200 76.52"><defs><style>.cls-1{isolation:isolate;}.cls-2{fill:#e52e1d;}.cls-3{fill:#f1895d;}.cls-10,.cls-11,.cls-12,.cls-13,.cls-14,.cls-15,.cls-16,.cls-17,.cls-18,.cls-19,.cls-20,.cls-21,.cls-22,.cls-23,.cls-24,.cls-25,.cls-26,.cls-27,.cls-28,.cls-29,.cls-3,.cls-30,.cls-31,.cls-32,.cls-33,.cls-34,.cls-35,.cls-36,.cls-37,.cls-38,.cls-39,.cls-4,.cls-40,.cls-41,.cls-42,.cls-43,.cls-44,.cls-45,.cls-46,.cls-47,.cls-48,.cls-49,.cls-5,.cls-50,.cls-51,.cls-52,.cls-53,.cls-54,.cls-55,.cls-56,.cls-57,.cls-58,.cls-59,.cls-6,.cls-60,.cls-61,.cls-62,.cls-63,.cls-64,.cls-7,.cls-8,.cls-9{fill-rule:evenodd;}.cls-4{fill:#e9744d;}.cls-5{fill:#f6aa81;}.cls-6{fill:#f2926a;}.cls-7{fill:#571d0f;}.cls-8{fill:#207b95;}.cls-9{fill:#2b8fab;}.cls-10{fill:#f18c51;}.cls-11{fill:#fcddcd;}.cls-12{fill:#ee7d4d;}.cls-13{fill:#273f70;}.cls-14{fill:#3d60aa;}.cls-15{fill:#4d2916;}.cls-16{fill:#0f1626;}.cls-17{fill:#fff;}.cls-18{fill:#f5a381;}.cls-19{fill:#f9c0a9;}.cls-20{fill:#864b2c;}.cls-21{fill:#f28f78;}.cls-22{fill:#962d22;}.cls-23{fill:#f08162;}.cls-24{fill:#175b83;}.cls-25{fill:#2fa6c8;}.cls-26{fill:#38badd;}.cls-27{fill:#2191b1;}.cls-28{fill:#522110;}.cls-29{fill:#5197bd;}.cls-30{fill:#582311;}.cls-31{fill:#296d92;}.cls-32{fill:#1b5a7e;}.cls-33{fill:#612c16;}.cls-34{fill:#1d5c7e;}.cls-35{fill:#76381f;}.cls-36{fill:#0b344f;opacity:0.41;}.cls-36,.cls-46,.cls-64{mix-blend-mode:multiply;}.cls-37{fill:#662912;}.cls-38{fill:#713016;}.cls-39{fill:#3d7b9c;}.cls-40{fill:#632812;}.cls-41{fill:#a87d34;}.cls-42{fill:#f9c776;}.cls-43{fill:#fdd38e;}.cls-44{fill:#fedca6;}.cls-45{fill:#c77735;}.cls-46,.cls-64{fill:#f1ac5d;}.cls-46{opacity:0.46;}.cls-47{fill:#f5a377;}.cls-48{fill:#ec854d;}.cls-49{fill:#f5a77b;}.cls-50{fill:#f7af89;}.cls-51{fill:#f7b38e;}.cls-52{fill:#f8b792;}.cls-53{fill:#f9c2a3;}.cls-54{fill:#f6a97e;}.cls-55{fill:#f5a275;}.cls-56{fill:#f5a276;}.cls-57{fill:#f49c6d;}.cls-58{fill:#fbd3bd;}.cls-59{fill:#f9be9d;}.cls-60{fill:#fbceb6;}.cls-61{fill:#fac7ac;}.cls-62{fill:#f39562;}.cls-63{fill:#ee8c56;}.cls-64{opacity:0.45;}.cls-65{font-size:12px;fill:#f2f2f2;font-family:MyriadPro-Regular, Myriad Pro;}.cls-66{letter-spacing:0.01em;}.cls-67{letter-spacing:-0.02em;}.cls-68{letter-spacing:-0.01em;}.cls-69{letter-spacing:-0.01em;}.cls-70{letter-spacing:-0.01em;}</style></defs><g class="cls-1"><g id="Capa_2" data-name="Capa 2"><g id="Capa_3" data-name="Capa 3"><g id="Capa_4" data-name="Capa 4"><rect class="cls-2" width="200" height="76.52"/><g id="Man"><path class="cls-3" d="M33.28,15.62a1.66,1.66,0,0,1-1.08-.1A3.29,3.29,0,0,1,31.48,13c0-.17.13-.25.4-.37.55,0,.68.65,1.15,1.77A1.54,1.54,0,0,1,33.28,15.62Z"/><path class="cls-4" d="M32.38,14.91c.53.53.57.43.45-.32A3.71,3.71,0,0,0,31.69,13a2.36,2.36,0,0,0,.45,2.21,3,3,0,0,1-.2-1.74c.12.07.11.3.24.36a.7.7,0,0,1,.37.42C32.29,14.37,32.34,14.58,32.38,14.91Z"/><path class="cls-3" d="M39.88,16A1.64,1.64,0,0,0,41,15.83a3.33,3.33,0,0,0,.51-2.57c0-.16-.16-.24-.44-.33-.54.06-.71.46-1.08,1.61A2.21,2.21,0,0,0,39.88,16Z"/><path class="cls-4" d="M40.72,15.23c-.48.58-.53.48-.47-.28a3.83,3.83,0,0,1,1-1.68A2.36,2.36,0,0,1,41,15.51a3,3,0,0,0,.06-1.75c-.12.09-.1.31-.22.38a.72.72,0,0,0-.33.45C40.76,14.69,40.73,14.9,40.72,15.23Z"/><path class="cls-5" d="M40.19,12.61c0,.37-.08.57-.1,1a7.45,7.45,0,0,1-.15,1c-.28,1.92-1.09,3.85-3.41,3.89s-2.75-.82-3.26-2.93c-.25-1-.41-2.15-.5-2.75.36-.26.3-1,.46-1.27.35-.62.71-.79,1.4-1.29a15.74,15.74,0,0,1,3.38,0c.36.28,1,.49,1.17.95A8.5,8.5,0,0,0,40.19,12.61Z"/><path class="cls-6" d="M33.28,12.42c1.08-1,1.92-1.24,2.51-.8.39.28.44,1,.16,2.08-.26-1.49-1-1.59-2.31-.33C33.1,13.46,33,13.14,33.28,12.42Z"/><path class="cls-7" d="M32.89,13c.07.82.16,1.58.16,1.58-.1-.34-.53-.39-.54-.7a2.07,2.07,0,0,0-.35-1.19c-.11-.27.12-.85.11-1.06a3.16,3.16,0,0,1,.08-1.25q5.07-1.71,7.95,0c-.18.82.14,1,.23,1.37,0,.18.13.5.69.3a.49.49,0,0,1-.4.16,1,1,0,0,1,0,.54,1,1,0,0,1,0,.1,1.91,1.91,0,0,0-.31,1.09c0,.31-.44.35-.54.7v-.12c0-.24.1-.83.15-1.46-.16-.13-.19-.37-.25-.66A3.07,3.07,0,0,1,38.91,11c-.24-.6-2-.79-4.31-.58-.51.39-1.13.76-1.27,1.29S33.15,12.75,32.89,13Z"/><path class="cls-8" d="M38.92,7.38c1,.4,2.48,1.19,1.66,4.36-2-1.1-4.81-1.14-8.3-.15-.61-2.15.38-3.78,1.23-4.11C36.38,6.6,36.54,6.53,38.92,7.38Z"/><path class="cls-9" d="M36.64,10.29l3.44.91a8,8,0,0,0-.4-3.41,6,6,0,0,0-3.07-.59q.3,3.3,0,3.09Zm-.24,0L33,11.2a8,8,0,0,1,.4-3.41,6,6,0,0,1,3.07-.59Q36.13,10.5,36.4,10.29Z"/><path class="cls-10" d="M40,10.93a0,0,0,1,1,0,0v-.09a0,0,0,1,1,0,0v.09Zm-1.8-3.41-.09,0s0,0,0,0l.09,0s0,0,0,0ZM37,9.88s0,0,0,0V9.8s0,0,0,0v.09Zm0-.22a0,0,0,0,1,0,0V9.57a0,0,0,1,1,0,0v.09Zm0-.23s0,0,0,0V9.35s.05,0,.05,0v.09Zm0-.22a0,0,0,1,1,0,0s0-.06,0-.09,0,0,0,0v.09ZM37,9a0,0,0,0,1,0,0V8.9s0,0,0,0V9Zm0-.22s0,0,0,0V8.67s0,0,.05,0v.09Zm0-.22s0,0,0,0a.28.28,0,0,0,0-.09,0,0,0,0,1,0,0,.28.28,0,0,0,0,.09Zm0-.23s0,0-.05,0V8.23s0,0,0,0v.09Zm0-.22a0,0,0,1,1,0,0V8s0,0,0,0v.09Zm0-.23s0,0,0,0V7.78s0,0,0,0v.09Zm0-.22s0,0,0,0V7.55s0,0,0,0v.09ZM37,7.36s0-.05,0-.05h.09s0,.05,0,.05Zm.22,0a0,0,0,0,1,0-.05h.09s0,0,0,0Zm.22,0a0,0,0,0,1,0,0h.09s0,0,0,0Zm.22,0s0-.05,0,0h.09a0,0,0,0,1,0,0l-.09,0Zm.22,0s0-.05,0,0l.09,0s0,0,0,0l-.09,0Zm.44.11s0-.06,0,0l.09,0s0,0,0,0l-.09,0Zm.22.06a0,0,0,0,1,0-.05l.09,0a0,0,0,0,1,0,0l-.08,0Zm.21.06s0,0,0,0l.08,0s0,0,0,0l-.09,0Zm.21.08a0,0,0,0,1,0,0l.08,0s0,.06,0,0l-.09,0Zm.22.07s0-.05,0,0l.09,0a0,0,0,0,1,0,0l-.08,0Zm.21.08s0-.05,0,0l.09,0a0,0,0,0,1,0,0l-.08,0Zm.2.08s0-.05,0,0h0l0,.08s0,.05,0,0l0-.07Zm.08.2s0,0,0,0l0,.09s0,0,0,0l0-.08Zm.06.21s0,0,0,0a.29.29,0,0,0,0,.09s0,0-.05,0a.29.29,0,0,0,0-.09Zm0,.22a0,0,0,0,1,0,0s0,.06,0,.09,0,0,0,0a.29.29,0,0,0,0-.09Zm0,.22s0,0,0,0l0,.09a0,0,0,0,1,0,0V8.83Zm0,.22a0,0,0,0,1,.05,0v.09a0,0,0,0,1,0,0V9.05Zm0,.22a0,0,0,1,1,0,0v.09s0,0,0,0V9.27Zm0,.23s0,0,0,0v.09s0,0,0,0V9.5Zm0,.22s0,0,0,0v.09s0,0-.05,0V9.72Zm0,.22a0,0,0,1,1,0,0V10a0,0,0,0,1-.05,0V9.94Zm0,.23a0,0,0,1,1,0,0v.09a0,0,0,0,1,0,0v-.09Zm0,.22a0,0,0,0,1,0,0v.09a0,0,0,1,1,0,0v-.09Zm0,.23a0,0,0,1,1,0,0v.09a0,0,0,1,1,0,0Z"/><path class="cls-10" d="M33.12,10.91a0,0,0,1,0,0,0v-.09a0,0,0,1,0,0,0v.09Zm1.8-3.42.09,0s0,0,0,0l-.08,0s0,0,0,0Zm1.15,2.37a0,0,0,0,0,0,0V9.77a0,0,0,1,0,0,0v.09Zm0-.23a0,0,0,0,0,.05,0V9.55s0,0,0,0v.09Zm0-.22s0,0,0,0V9.32s0,0,0,0v.09Zm0-.23s0,0,0,0a.28.28,0,0,1,0-.09s0,0,0,0v.09Zm0-.22a0,0,0,1,0,0,0V8.87s0,0-.05,0V9Zm0-.22s0,0,0,0V8.65s0,0,0,0v.09Zm0-.23s0,0,.05,0V8.42s0,0,0,0,0,.06,0,.09Zm0-.22a0,0,0,1,0,0,0V8.2a0,0,0,1,0,0,0v.09Zm0-.23s0,0,0,0V8a0,0,0,0,0-.05,0v.09Zm0-.22s0,0,0,0V7.75s0,0,0,0v.09Zm0-.23s0,0,0,0V7.53s0,0,0,0v.09Zm-.11-.28a0,0,0,1,0,0,0H36a0,0,0,1,0,0,0Zm-.22,0a0,0,0,1,0,0,0h-.09s0,0,0,0Zm-.23,0s0,0,0,0h-.09s0,0,0,0Zm-.22,0s0,0,0,0l-.09,0s0,.05,0,0Zm-.22,0a0,0,0,0,0,0,0l-.09,0s0,.05,0,.05l.09,0Zm-.43.1a0,0,0,0,0,0,0l-.08,0s0,0,0,0l.09,0Zm-.22.06s0,0,0,0l-.09,0s0,0,0,0l.09,0Zm-.21.07a0,0,0,0,0,0,0l-.08,0s0,.06,0,0l.09,0Zm-.22.07s0,0,0,0l-.09,0s0,0,0,0l.08,0Zm-.21.08s0-.06,0,0l-.09,0s0,0,0,0l.08,0Zm-.21.08a0,0,0,0,0,0,0l-.08,0s0,0,0,0l.08,0Zm-.2.08s0,0,0,0h0a.36.36,0,0,1,0,.09s0,0,0,0l0-.07Zm-.08.19s0,0,0,0l0,.08a0,0,0,0,0,0,0l0-.09Zm-.07.21s0,0,0,0,0,.06,0,.09,0,0,0,0a.29.29,0,0,0,0-.09Zm-.05.22s0,0,0,0,0,.06,0,.09,0,0,0,0a.29.29,0,0,0,0-.09Zm0,.22s0,0,0,0l0,.08a0,0,0,0,0,.05,0V8.8Zm0,.22s0,0,0,0v.09a0,0,0,1,0,0,0l0-.09Zm0,.23a0,0,0,0,0,0,0v.09s0,0,0,0V9.25Zm0,.22a0,0,0,0,0-.05,0v.09a0,0,0,0,0,.05,0V9.47Zm0,.22s0,0,0,0v.09s0,0,0,0V9.69Zm0,.23s0,0,0,0V10a0,0,0,1,0,0,0V9.92Zm0,.22a0,0,0,0,0-.05,0v.09a0,0,0,0,0,.05,0v-.09Zm0,.23a0,0,0,1,0,0,0v.09a0,0,0,1,0,0,0v-.09Zm0,.22a0,0,0,1,0,0,0v.09a0,0,0,1,0,0,0Z"/><path class="cls-7" d="M36.05,12a2.21,2.21,0,0,0-2.79.48A3.69,3.69,0,0,1,36,11.13.76.76,0,0,1,36.05,12Z"/><path class="cls-3" d="M36.16,14.87a1,1,0,0,0,.8,0c.2-.15.21-.38.22-.7a1.85,1.85,0,0,1-1.31,0A1.17,1.17,0,0,0,36.16,14.87Z"/><path class="cls-11" d="M33.87,13.38c.5-.9,1.47-1.46,1.76,0a1.33,1.33,0,0,1-.77.12A1.75,1.75,0,0,1,33.87,13.38Z"/><path class="cls-12" d="M35.55,12.68a1.75,1.75,0,0,0-1.7.46c.16-.66.46-1,.89-1.13S35.34,12.21,35.55,12.68Z"/><path class="cls-3" d="M36.06,14.74c-.28-.12-.36-.18-.37.16-.24-.12-.41-.19-.38-.3C35.39,14.27,35.94,14.08,36.06,14.74Z"/><path class="cls-3" d="M37,14.75c.28-.12.36-.17.37.16.24-.12.41-.18.38-.3C37.69,14.28,37.14,14.09,37,14.75Z"/><path class="cls-3" d="M36.07,13.84a.57.57,0,0,1,1,0A.93.93,0,0,0,36.07,13.84Z"/><path class="cls-13" d="M34.79,13.57a.51.51,0,0,0,.5-.52.51.51,0,0,0-.5-.52.52.52,0,0,0-.51.52A.51.51,0,0,0,34.79,13.57Z"/><path class="cls-14" d="M34.44,13.32a.62.62,0,0,1,.73-.06A.43.43,0,0,1,34.44,13.32Z"/><path class="cls-15" d="M35.49,12.51a.64.64,0,0,0,.31-.17.83.83,0,0,1-.22.36,1.78,1.78,0,0,0-1.83.63v0h0a.68.68,0,0,1-.44-.12,1.37,1.37,0,0,0,.49,0l0,0a.61.61,0,0,1-.41-.12,1.86,1.86,0,0,0,.47,0A1.46,1.46,0,0,1,35.49,12.51Z"/><path class="cls-16" d="M34.79,13.42a.37.37,0,0,0,.35-.37.36.36,0,1,0-.71,0A.37.37,0,0,0,34.79,13.42Z"/><path class="cls-17" d="M34.8,13.08a1.85,1.85,0,0,0-.72.15,1,1,0,0,1,.68-.32Z"/><path class="cls-18" d="M35,12.1c-.27.2-.28.3,0,.31a.77.77,0,0,0-.46.13c.35-.36.4-.51.12-.43A.43.43,0,0,1,35,12.1Z"/><path class="cls-19" d="M36.17,14a1.87,1.87,0,0,0,.78.14,1.16,1.16,0,0,1-.89,0C36.14,14,36.18,14,36.17,14Z"/><path class="cls-3" d="M33.72,13.53a3.67,3.67,0,0,0,1.07-.11,3.21,3.21,0,0,1,.82.07,7,7,0,0,1-1,.37C34.26,13.91,33.89,13.88,33.72,13.53Z"/><path class="cls-20" d="M33.74,13.58c.61.06,1.07-.25,1.94-.08-.58-.28-1.34,0-1.94-.08l-.26.16Z"/><path class="cls-21" d="M33.44,14.47a1,1,0,0,0,.9.3c.55-.1,1.14-.45,1.22-.95A2.07,2.07,0,0,0,33.44,14.47Z"/><path class="cls-22" d="M36.17,14.88c-.17-.26-.34-.31-.49-.18a.36.36,0,0,0,.32.21C36.1,14.88,36.16,14.87,36.17,14.88Z"/><path class="cls-22" d="M36.92,14.87c.17-.25.34-.31.49-.17a.38.38,0,0,1-.32.2C37,14.87,36.93,14.86,36.92,14.87Z"/><path class="cls-23" d="M34.91,14c.05,0,.09,0,.1,0s0,.05-.08.06-.09,0-.1,0,0-.05.08-.06Zm-.37.42c.05,0,.09,0,.09,0s0,0-.08.05-.09,0-.09,0,0-.05.08-.05Zm-.24-.13c.05,0,.09,0,.09,0s0,0-.08,0-.09,0-.09,0,0,0,.08-.05Zm.41-.06s.09,0,.09,0,0,.05-.08.06-.09,0-.09,0,0,0,.08,0Zm-.2-.16s.08,0,.09,0,0,0-.08.05a.09.09,0,0,1-.1,0s0,0,.09,0Zm-.38.06s.09,0,.09,0,0,0-.08.06-.09,0-.09,0S34.08,14.13,34.13,14.13Z"/><path class="cls-7" d="M32.27,11.64a.37.37,0,0,1,.17.39.51.51,0,0,1-.66-.08C32,12,32.12,11.91,32.27,11.64Z"/><path class="cls-24" d="M40.45,11.52a14,14,0,0,0-7.91,0c.28-.55,1.08-.84,1.44-1.25a7,7,0,0,1,5,0C39.37,10.68,40.17,11,40.45,11.52Z"/><path class="cls-25" d="M39.15,10.25a4.37,4.37,0,0,1,1.07.93c.23.34.2.35.19.46-1.41-.11-1.06-.72-1.49-1a5.86,5.86,0,0,0-4.85,0c-.43.32-.08.93-1.49,1,0-.11,0-.12.19-.47a4.56,4.56,0,0,1,1.07-.92A6.71,6.71,0,0,1,39.15,10.25Z"/><path class="cls-26" d="M34,10.18c-.28.29-.27.41,0,.35C33.91,10.49,33.89,10.38,34,10.18Z"/><path class="cls-26" d="M38.93,10.19c.29.29.27.4,0,.35C39,10.5,39,10.38,38.93,10.19Z"/><path class="cls-9" d="M35.9,6.83a2.11,2.11,0,0,1,1.17,0s0,0,0,.13a4.77,4.77,0,0,1-1.13,0C35.88,6.86,35.87,6.82,35.9,6.83Z"/><path class="cls-27" d="M32.66,11.56c0-.13.14-.33.41-.6a2.49,2.49,0,0,0,.65-.22c0,.33-.15.53-.3.61Z"/><path class="cls-27" d="M40.32,11.5c0-.13-.14-.33-.41-.6a2.49,2.49,0,0,1-.65-.22c.05.33.15.53.3.61Z"/><path class="cls-6" d="M39.69,12.4c-1.08-1-1.92-1.24-2.51-.8-.39.28-.44,1-.16,2.07q.39-2.22,2.31-.32C39.87,13.43,40,13.11,39.69,12.4Z"/><path class="cls-7" d="M36.92,12a2.25,2.25,0,0,1,2.8.48A3.79,3.79,0,0,0,37,11.1.78.78,0,0,0,36.92,12Z"/><path class="cls-11" d="M39.1,13.35c-.5-.89-1.47-1.46-1.76,0,.21.16.51.1.77.12A1.84,1.84,0,0,0,39.1,13.35Z"/><path class="cls-12" d="M37.42,12.65a1.77,1.77,0,0,1,1.7.46c-.16-.66-.46-1-.88-1.12S37.63,12.19,37.42,12.65Z"/><path class="cls-13" d="M38.18,13.54a.52.52,0,0,0,0-1,.52.52,0,0,0,0,1Z"/><path class="cls-14" d="M38.53,13.29a.62.62,0,0,0-.73-.06A.42.42,0,0,0,38.53,13.29Z"/><path class="cls-15" d="M37.48,12.48a.55.55,0,0,1-.31-.16.83.83,0,0,0,.23.36,1.76,1.76,0,0,1,1.82.62v0h0a.58.58,0,0,0,.44-.12,1.37,1.37,0,0,1-.49,0l0,0a.61.61,0,0,0,.41-.12,1.25,1.25,0,0,1-.47,0A1.47,1.47,0,0,0,37.48,12.48Z"/><path class="cls-16" d="M38.18,13.39a.36.36,0,0,0,.36-.36.36.36,0,1,0-.71,0A.36.36,0,0,0,38.18,13.39Z"/><path class="cls-17" d="M38.17,13.06a1.54,1.54,0,0,1,.72.15,1.12,1.12,0,0,0-.68-.33Z"/><path class="cls-18" d="M38,12.08c.28.19.28.3,0,.3a1,1,0,0,1,.46.13c-.35-.36-.4-.5-.12-.43A.43.43,0,0,0,38,12.08Z"/><path class="cls-3" d="M39.26,13.5a3.7,3.7,0,0,1-1.08-.11,3.22,3.22,0,0,0-.82.08c.28,0,.54.3,1,.36S39.08,13.86,39.26,13.5Z"/><path class="cls-20" d="M39.23,13.56a9.52,9.52,0,0,0-1.94-.08c.58-.28,1.34,0,1.94-.08l.26.16Z"/><path class="cls-21" d="M39.53,14.45a1,1,0,0,1-.9.29c-.55-.1-1.14-.45-1.22-.94A2,2,0,0,1,39.53,14.45Z"/><path class="cls-23" d="M38.06,14C38,14,38,14,38,14s0,0,.08.05.09,0,.1,0,0,0-.08,0Zm.37.41s-.09,0-.09,0,0,.05.08.05.09,0,.09,0,0,0-.08-.06Zm.24-.13c-.05,0-.09,0-.09,0s0,.05.08.06.09,0,.09,0,0-.05-.08-.06Zm-.41-.06s-.09,0-.09,0,0,0,.08,0,.09,0,.09,0,0,0-.08-.06Zm.21-.16a.09.09,0,0,0-.1,0s0,0,.08,0,.09,0,.1,0,0,0-.08-.06Zm.37.06s-.09,0-.09,0,0,0,.08,0,.09,0,.09,0S38.89,14.11,38.84,14.1Z"/><path class="cls-28" d="M42.16,64.9c-.87.45-2.06.25-3.57-.61-.29.64-.69,1.72-1,2.76l-.32.8a4.57,4.57,0,0,0,2,1.23l.44-.13c1.28.77,1.54,1.89,2.86,2,.95.06,2.16-.06,3.22,0l.18-.61-.2-.07c.39-.58.42-1,.09-1.24a8.31,8.31,0,0,1-3-1.4c.1-.27-.07-.41-.5-.42a1.08,1.08,0,0,1-.27-.89C42.14,65.35,42.16,64.9,42.16,64.9Z"/><path class="cls-29" d="M38.38,63.23c-.11.37-.24.81-.46,1.53a5.72,5.72,0,0,0,4.49,1.55c.18-.77.28-1.34.39-1.68.19-.64-.19-.32-1.27-.59a11.14,11.14,0,0,1-2.23-.92C38.75,62.84,38.54,62.71,38.38,63.23Z"/><path class="cls-30" d="M32,69.35l2.49-.43A11.44,11.44,0,0,1,35,70.25,2.63,2.63,0,0,0,35,71.61a5.77,5.77,0,0,1,.13,1.54l-2.47-1C32.22,70.12,32,69.18,32,69.35Z"/><path class="cls-29" d="M30.26,67.65c0,.39,0,.85,0,1.6a6.48,6.48,0,0,0,5.05.12c-.08-.79-.17-1.37-.17-1.72,0-.67-.3-.25-1.47-.18a12,12,0,0,1-2.56-.2C30.5,67.17,30.24,67.11,30.26,67.65Z"/><path class="cls-31" d="M40.32,53.21A26.08,26.08,0,0,1,37.68,44s-.89.1-1.8.15c-.06,3.94-1.18,7.38-1.22,9,0,0,0,0,.4.13.18,0-.38,1.05-.28,1.07.34,0,.51.32.34,1.4-.13.78.36,1,.36,2.38,0,2.51-1.3,6.83-.78,10a17.63,17.63,0,0,1-3.91,0c.2-3.31.37-7.67-.49-11.31,0-.16-.06-1.17-.16-1.5s-.22-.36-.2-.49a5.1,5.1,0,0,1,.11-.77c0-.12-.06-.58-.05-.76.28-3.83.42-7.25.78-9.69.09-.6.19-1.14.28-1.6.08-1.5.12-4.43.12-4.43,7.94,0,10.32-.8,10.32-.8a13.81,13.81,0,0,0,.85,5.49c2.08,4.64,1.32,8.08,2.28,10.21.13.3-.14,1.17-.1,1.36-1.8,9.34-2.34,10.81-2.31,10.82-.92.22-2.89-.27-3.37-1.28,2.53-6.78.47-7.71,1.65-9.54C39.93,53.28,39.87,53.11,40.32,53.21Z"/><path class="cls-32" d="M42.07,37.17c.31,2.43,1.14,4.22.62,6.13-.74-1.52-.85-2.5-1.45-2.7-1-.32-3.23,1.47-3.38,4.83a8.78,8.78,0,0,0-2,0C35,43.94,33,41.39,32.16,41.41s-1.16.77-1.42,2.36c-.73-.93-.21-5.7-.21-5.7A74,74,0,0,0,42.07,37.17Z"/><path class="cls-33" d="M33.91,71c.24,1.46.72,1.37,1.24,1.47.11.12.26.68.17.69-1.78,0-3,.18-3.84.11-.4,0-.35-.1-.43-.24s-.13-.44-.21-.58-.58-.36-1-.71c-2.23-1.87-.69-3.63.92-3.76S33.71,69.82,33.91,71Z"/><path class="cls-34" d="M32.91,54.17c.07,2.32-.3,3.51-1.11,3.58a7.85,7.85,0,0,1-1.14-3.54A2.38,2.38,0,0,0,32.91,54.17Z"/><path class="cls-34" d="M42.2,52.13c-.07,2.31.77,3.39,1.58,3.46a6.66,6.66,0,0,0,.85-3.24A2.9,2.9,0,0,1,42.2,52.13Z"/><path class="cls-35" d="M29.08,70.07l3.74-.57s-1.23.06-4,.24Z"/><path class="cls-35" d="M29.11,70.65,33,70l-4.11.34Z"/><path class="cls-35" d="M29.58,71.17l3.88-.66-4.11.33Z"/><path class="cls-35" d="M30.18,71.63,33.64,71l-3.68.3Z"/><path class="cls-31" d="M40.27,39.27c-1,.43-.78.58.58.44l-.3.69a3.82,3.82,0,0,0-3,2.47s-.37.27-2.22.23l-2.46-2L32,40.23c1.15.08,1.08-.18-.22-.78C33.66,39.16,37.31,40.34,40.27,39.27Z"/><path class="cls-32" d="M37.18,39.73l-1.93-.43c-.14,2.54,0,4.43,1.28,4.11.45,0,.68,0,.68,0A31.56,31.56,0,0,0,37.18,39.73Z"/><path class="cls-36" d="M30.45,39l-.09,1.59a21.82,21.82,0,0,1,12.37.12c-.23-1.15-.34-1.73-.34-1.73Q33.59,37.54,30.45,39Z"/><path class="cls-31" d="M37,40a3.43,3.43,0,0,0-1.4-.13C35.5,41.58,35.36,43.15,37,43A25.91,25.91,0,0,0,37,40Z"/><path class="cls-32" d="M33.38,54.54c-.54.24-.91.44-1.15.33s.3-.22.43-.6a4.47,4.47,0,0,0,0-1.46c2.28-5.51,1.11-7.23,1.18-9.36.74.88.86.61.32-.42a3.38,3.38,0,0,1,1.26,1.69,37.76,37.76,0,0,1-.9,6.82c-.32.86-.38,1.57.15,1.53C35.36,53.25,34.4,54.26,33.38,54.54Z"/><path class="cls-32" d="M34.5,54.34c-1.13,0-2,0-2.42.32.1.29.67,1.22.74,1.52a17.31,17.31,0,0,1,.49,5.13c-.09,2.92-.53,5.62-.38,6.81l1.33-.06c-.57-4.73,1.26-10,.59-11.85-.26-.72.19-.86.12-1.46-.68.6-1.24.45-1.33.38S34.14,54.65,34.5,54.34Z"/><path class="cls-34" d="M42.79,52.34a3.12,3.12,0,0,1,.2,1.74c-.48,0-.18,1.78-.69,4a24.78,24.78,0,0,1-1.9,6.12,4,4,0,0,1-1.11-.61c2.58-5.14.3-8.14,2-9.77-.49-.31-.54-.59-.15-.85-.44-.29-3.15-7.32-3.35-8-.07-.4.28-2.37,1-2.06a14.51,14.51,0,0,0,3.39,7.77C42.37,51.15,42.22,51.79,42.79,52.34Z"/><path class="cls-30" d="M38,67.15a2.9,2.9,0,0,0,2.21.92c2.16,1.18,1.16,1.84,2.82,2.08a18.4,18.4,0,0,0,2.37.09c.24-.31.3-.81,0-1a7.85,7.85,0,0,1-2.69-.83c0-.09-.54.19-.56.1s.31-.42.26-.39c0-.58-.28-.72-.81-.41-.51-.49-.78-.84-.8-1.06a3.28,3.28,0,0,1-1.57-.19,1.26,1.26,0,0,1-.71-.77Z"/><path class="cls-30" d="M43.26,70.38c-1.07.17-1.15.32-.23.44a1.86,1.86,0,0,1-1.22-.27c.5,0,.52-.23.07-.57A4.33,4.33,0,0,0,43.26,70.38Z"/><path class="cls-37" d="M44.24,69.4c.67-.11,1,0,1.1.36A1.44,1.44,0,0,1,44.24,69.4Z"/><path class="cls-38" d="M28.77,69.45a2,2,0,0,1,.5-1,2.11,2.11,0,0,1,2.49-.61,4.54,4.54,0,0,1,2.1,2.33c0,.29.08.26-.17.08A3.73,3.73,0,0,0,31.11,68,2.31,2.31,0,0,0,28.77,69.45Z"/><path class="cls-39" d="M33.64,68.32c0,.75,0,1.12,0,1.12a6.05,6.05,0,0,0,1.55-.24l-.18-1.45-.12.36Z"/><path class="cls-39" d="M39.84,64.32a3.26,3.26,0,0,0-.26,1.38,5.19,5.19,0,0,1-1.52-1l.6-1.51A2,2,0,0,0,39.84,64.32Z"/><path class="cls-39" d="M41.62,64.77a1.66,1.66,0,0,0,1-.27l-.39,1.66a2.91,2.91,0,0,1-1-.06A3.35,3.35,0,0,0,41.62,64.77Z"/><path class="cls-32" d="M30.07,52.26c.53-3.09.16-7.68,1.38-10.59C30.07,42.29,29.93,46.29,30.07,52.26Z"/><path class="cls-32" d="M42.26,40.87c1.7,4.37,1.43,6.6,1.89,9.56-.55-3.1-1.55-7.52-2.6-9.62Z"/><path class="cls-30" d="M29.47,68.32c1.4-1.13,2.48-1,3.26.25A2.42,2.42,0,0,0,29.47,68.32Z"/><path class="cls-40" d="M34.05,70.69c.16.4.49.59.51.49.15-.88-.21-1.18-.66-1.37s-.64-.69-.79-.83A6,6,0,0,1,34.05,70.69Z"/><path class="cls-41" d="M39.23,63.59c0,.08.08.13.11.06l.11-.22a.06.06,0,0,0-.11-.06,1.51,1.51,0,0,1-.11.22ZM34.2,68c0,.08.12.07.12,0l0-.25a.06.06,0,0,0-.12,0,2.28,2.28,0,0,0,0,.26Zm-.05-.86a.06.06,0,0,0,.12,0,1.93,1.93,0,0,0,0-.24.06.06,0,0,0-.12,0v0c0,.08,0,.17,0,.25Zm0-.86a.06.06,0,0,0,.12,0h0V66a.07.07,0,0,0-.13,0v.25Zm0-.86a.06.06,0,0,0,.12,0h0v-.25a.06.06,0,1,0-.12,0v.25Zm0-.86c0,.07.1.09.12,0a2.09,2.09,0,0,0,0-.25.06.06,0,1,0-.12,0,2,2,0,0,0,0,.25Zm.05-.86c0,.08.11.08.12,0a1.94,1.94,0,0,1,0-.24.07.07,0,0,0-.13,0c0,.08,0,.16,0,.25Zm.07-.86a.06.06,0,1,0,.12,0l0-.24c0-.09-.11-.1-.12,0l0,.25Zm.1-.86c0,.08.11.1.12,0a2,2,0,0,1,0-.24c0-.08-.11-.1-.12,0a2,2,0,0,0,0,.24Zm.13-.85s0,0,0,0a.06.06,0,0,0,.1,0,2,2,0,0,0,0-.24.06.06,0,0,0,0-.07.07.07,0,0,0-.09,0c0,.08,0,.16,0,.24Zm.18-.84c0,.07.1.1.12,0l.05-.24c0-.07-.09-.1-.12,0h0a2,2,0,0,0,0,.24Zm.17-.84a.06.06,0,1,0,.12,0,2,2,0,0,0,0-.24.06.06,0,1,0-.11,0,1.84,1.84,0,0,0,0,.25ZM35,58.6c0,.08.11.1.12,0a2.13,2.13,0,0,0,0-.25.06.06,0,0,0-.12,0l0,.25Zm.07-.85s0,.06.05.06a.06.06,0,0,0,.07-.06v-.24a.06.06,0,1,0-.12,0v.24ZM35,56.91a.06.06,0,1,0,.11,0,1,1,0,0,0-.07-.25.06.06,0,0,0-.12,0,2.09,2.09,0,0,1,.08.23Zm-.24-.83c0,.08.14.06.12,0l0-.23a.06.06,0,1,0-.12,0l0,.25Zm0-.86a.06.06,0,0,0,.12,0,2.43,2.43,0,0,0,0-.27.07.07,0,0,0-.13,0,1.93,1.93,0,0,1,0,.24Zm-.22-.75c0,.06.14,0,.08-.09l-.08-.06,0-.06a.06.06,0,0,0-.1-.06l0,0a.58.58,0,0,1,0,.14l.15.11Zm-.09-.78c.05.06.14,0,.09-.08h0a.4.4,0,0,0-.23-.12.06.06,0,0,0,0,.11h0a.31.31,0,0,1,.18.09Zm-.75-.32c0,.07.15,0,.11-.06a.6.6,0,0,1-.08-.21c0-.08-.13-.06-.12,0h0a.75.75,0,0,0,.09.25Zm0-.88a.06.06,0,0,0,.12,0,2.33,2.33,0,0,0,.07-.25.06.06,0,1,0-.12,0l-.07.24Zm.22-.83a.06.06,0,0,0,.12,0l.06-.24a.06.06,0,0,0-.11,0,2.33,2.33,0,0,0-.07.25Zm.21-.83c0,.08.1.1.12,0l.06-.23a.06.06,0,0,0-.12,0l-.06.24Zm.2-.84a.06.06,0,0,0,.12,0l0-.24a0,0,0,0,0,0-.06.06.06,0,0,0-.1,0l0,.24Zm.18-.84a.06.06,0,0,0,.12,0c0-.08,0-.16,0-.24s-.09-.11-.12,0a2.21,2.21,0,0,0,0,.25Zm.16-.84a.07.07,0,0,0,0,.07s.08,0,.08-.05l0-.24a.14.14,0,0,0,0-.06.06.06,0,0,0-.1,0l-.05.24Zm.15-.85c0,.09.11.1.12,0l0-.24c0-.08-.11-.1-.12,0l0,.24Zm.11-.85c0,.07.1.1.12,0h0l0-.25a.06.06,0,1,0-.12,0l0,.24Zm.09-.85c0,.08.12.09.12,0s0-.16,0-.24a.06.06,0,0,0-.12,0h0a1.94,1.94,0,0,0,0,.24Zm0-.85a0,0,0,0,0,0,0,.06.06,0,0,0,.11,0,2,2,0,0,0,0-.25.07.07,0,0,0-.13,0v.25Zm.31-.63a.06.06,0,1,0,0,.12l.24,0a.06.06,0,0,0,0-.12l-.25,0Zm.85.08a.08.08,0,0,0-.06,0,.07.07,0,0,0,.06.09h.24a.06.06,0,1,0,0-.12Zm.84,0s0,0,0,0,0,.08.08.07a1,1,0,0,0,.24-.07c.08,0,0-.14,0-.11l-.23.06Zm.76-.26a.06.06,0,0,0,0,.11h0l0,.15c0,.08.13.06.12,0a1.77,1.77,0,0,1,0-.2v0l-.1.05.1-.05,0-.06-.09,0Zm0,.11Zm.26.73a.06.06,0,0,0-.12,0v0a2,2,0,0,1,0,.24c0,.08.14.06.12,0a2,2,0,0,0-.05-.24Zm.18.84c0-.08-.13-.05-.11,0a2,2,0,0,0,.05.24c0,.08.14.06.12,0l-.06-.24Zm.21.83a.06.06,0,0,0-.12,0h0l.06.24a.06.06,0,1,0,.12,0l-.06-.24Zm.22.83a.06.06,0,0,0-.12,0c0,.07,0,.16.07.24a.06.06,0,1,0,.12,0,2,2,0,0,0-.07-.23Zm.25.82a.06.06,0,0,0-.12,0v0c0,.07.05.15.07.23a.06.06,0,0,0,.12,0h0l-.08-.23Zm.28.81a.06.06,0,1,0-.11,0,2.09,2.09,0,0,0,.08.23c0,.08.15,0,.12,0L39.22,49Zm.31.8,0,0a.06.06,0,0,0-.08.07,1.57,1.57,0,0,0,.09.23c0,.07.13,0,.12,0v0l-.09-.22Zm.34.78a.06.06,0,0,0-.11,0c0,.08.07.15.1.23a.07.07,0,0,0,.12,0c0-.07-.08-.15-.11-.23Zm.38.77a.07.07,0,0,0-.12,0h0a2.26,2.26,0,0,0,.11.22c0,.07.15,0,.11-.06a1.51,1.51,0,0,1-.11-.22Zm.41.75c0-.07-.15,0-.11.06l.13.22c0,.06.13,0,.11-.06h0a2.39,2.39,0,0,1-.13-.21Zm.46.73a.06.06,0,0,0-.11.06l0,.07,0,0s0,.14.07.1h0l.13-.1c0-.06-.07-.11-.1-.16Zm-.09.7a.06.06,0,1,0-.09.08,1.09,1.09,0,0,0,.19.18c.06,0,.14-.06.07-.1a1.29,1.29,0,0,1-.17-.16Zm0,.7s0,0,0,0a.06.06,0,0,0-.11,0l-.12.22a.06.06,0,0,0,.11.06l.12-.21Zm-.33.77a.06.06,0,0,0-.12,0l-.06.25c0,.07.1.11.12,0l.06-.24Zm-.14.83c0-.07-.11-.09-.12,0s0,.16,0,.25.12.08.12,0,0-.16,0-.25Zm0,.85a.07.07,0,0,0-.13,0l0,.25a.05.05,0,0,0,0,0,.06.06,0,0,0,.1,0,2.11,2.11,0,0,1,0-.25Zm.07.86a.06.06,0,0,0-.12,0v.26a.06.06,0,0,0,.08.06.06.06,0,0,0,.05-.06c0-.08,0-.17,0-.25Zm0,.87a.06.06,0,1,0-.12,0c0,.08,0,.16,0,.25s.1.09.12,0a2.09,2.09,0,0,0,0-.25Zm-.06.86a.06.06,0,1,0-.12,0l0,.25c0,.07.11.1.12,0a1.13,1.13,0,0,0,0-.25Zm-.12.85a0,0,0,0,0,0,0,.06.06,0,0,0-.11,0,2,2,0,0,1,0,.24.06.06,0,0,0,.12,0,1.87,1.87,0,0,0,0-.25Zm-.17.85a.06.06,0,0,0-.12,0l-.06.23c0,.07.08.12.11,0a2.17,2.17,0,0,0,.07-.24Zm-.24.83a.06.06,0,0,0-.11,0h0c0,.08,0,.15-.07.23a.06.06,0,1,0,.11,0l.08-.23Zm-.3.81a.06.06,0,0,0,0-.08.06.06,0,0,0-.08,0l-.09.23a.06.06,0,0,0,.11,0Z"/><path class="cls-42" d="M36.07,15c-3.11,0-6.23-.07-9.2-.21L21.7,16.85c1.6,9,3.31,17.36,3.67,21.91,3.76.1,7.24.14,10.7.14s7,0,10.71-.14c.35-4.55,2.07-12.95,3.66-21.91l-5.16-2.11C42.3,14.88,39.19,15,36.07,15Z"/><path class="cls-43" d="M46.7,38.19a35.25,35.25,0,0,1,.17-10.53c.16-.95,3.57-8.66,2.49-9.34-.66-.41-1.44-.18-.37-1.05q-13.2.23-24.4-.14c-.68,0,.37.61-.3.58,0,.17-1.67-.32-1.64-.16.9,4,2.5,7.07,3,10.05A31.32,31.32,0,0,1,26.34,33c0,2.07-.48,3.85-.44,5.2C36.65,37.7,44.49,38.11,46.7,38.19Z"/><path class="cls-43" d="M24.86,16.72q11.93.47,22.12.22A72.78,72.78,0,0,0,24.86,16.72Z"/><path class="cls-44" d="M23.29,16.72a151.09,151.09,0,0,0,26.4.11Q36.28,17,23.29,16.72Z"/><path class="cls-45" d="M25,15.49c4.23.12,8.22.26,12,.3s7.32,0,10.46-.13l.15.06c-3.14.15-6.78.25-10.61.21s-8-.25-12.21-.37Z"/><path class="cls-46" d="M25.24,36.73a84.32,84.32,0,0,0-1.73-8.83A5.53,5.53,0,0,1,26,31.74a16.53,16.53,0,0,1,0,3.44Z"/><path class="cls-47" d="M24.26,30.29,24,29.83a2.72,2.72,0,0,1-.14-1.29c-.12-.52-.29-.8-.54-.87s-.6,0-.54.3a1.81,1.81,0,0,1,0,.87A2,2,0,0,1,22.71,30a1.62,1.62,0,0,1-.55.66c-.1.1-.08.27.1.25-.06.1.32.08.25.19.19,2,1,3,2.38,3.1a12.27,12.27,0,0,0-.68-3.85Z"/><path class="cls-48" d="M24.94,34.37a7.69,7.69,0,0,1-.51-3.66A14.76,14.76,0,0,1,24.94,34.37Z"/><path class="cls-49" d="M24.65,34.52a12.31,12.31,0,0,1-1.79-.42c-.36-.7-.22-.77.24-1.07.66.2.72.38,1.15.52.82.08,1.5.05,1.62.45-.06.26.06.22-.16.46A3.57,3.57,0,0,0,24.65,34.52Z"/><path class="cls-50" d="M24.3,33.55a7.5,7.5,0,0,1-1.68-.25c-.31-.32-.41-.56,0-.95.73.07,1.21.18,1.69.24.87-.09,1.44-.2,1.67.18.1.69-.29.58-.78.64A5.92,5.92,0,0,0,24.3,33.55Z"/><path class="cls-51" d="M24.39,32.37a8.33,8.33,0,0,1-1.87.3c-.44-.29-.68-.51-.46-1,.76-.16,1.07-.07,1.58-.17s1.31-.5,1.74-.3a.4.4,0,0,1,.22.58C24.79,32.19,24.39,32.37,24.39,32.37Z"/><path class="cls-52" d="M24.08,31.2a15.37,15.37,0,0,1-2.08.61.71.71,0,0,1,0-1.24c.82-.12.84-.15,1.37-.26.91-.36,1.36-.57,1.78-.27a.84.84,0,0,1,.16.51Z"/><path class="cls-53" d="M24.52,30.24a.8.8,0,0,0,.25.43,2,2,0,0,0,.54-.23.55.55,0,0,0-.22-.46A1.7,1.7,0,0,0,24.52,30.24Z"/><path class="cls-50" d="M22,31.74a5.09,5.09,0,0,0,1.5-.35,1.76,1.76,0,0,1-.33-.59,8,8,0,0,1-1.43.36A.55.55,0,0,0,22,31.74Z"/><path class="cls-54" d="M22.49,32.57A3.4,3.4,0,0,0,24,32.35a1.33,1.33,0,0,1-.13-.5,15.24,15.24,0,0,1-1.76.2A.85.85,0,0,0,22.49,32.57Z"/><path class="cls-55" d="M22.82,33.26a3.28,3.28,0,0,0,1.52.14,1.26,1.26,0,0,1,0-.51c-1-.1-1.57-.17-1.76-.22A.81.81,0,0,0,22.82,33.26Z"/><path class="cls-56" d="M23,34.09a3.39,3.39,0,0,0,1.53.32,1.47,1.47,0,0,1,0-.51q-1.49-.32-1.77-.42A.9.9,0,0,0,23,34.09Z"/><path class="cls-57" d="M23.29,30.31l.64-.23a4.24,4.24,0,0,1-.14-1.39c-.05-.64-.21-1-.66-.94.17.76,0,.67-.11.73s.19.22.19.31a7.73,7.73,0,0,1,0,1A1.48,1.48,0,0,1,23.29,30.31Z"/><path class="cls-58" d="M24.52,30.24c.19.14.27.28.25.43A.8.8,0,0,1,24.52,30.24Z"/><path class="cls-53" d="M24.92,31.49a.83.83,0,0,0,.21.43,2.76,2.76,0,0,0,.56-.25c0-.24-.07-.4-.18-.46A1.79,1.79,0,0,0,24.92,31.49Z"/><path class="cls-58" d="M24.92,31.49a.43.43,0,0,1,.21.43A.7.7,0,0,1,24.92,31.49Z"/><path class="cls-59" d="M25.23,32.92a.63.63,0,0,0,.07.42,1.81,1.81,0,0,0,.54-.08.49.49,0,0,0,0-.44A1.84,1.84,0,0,0,25.23,32.92Z"/><path class="cls-60" d="M25.23,32.92a.4.4,0,0,1,.07.42A.65.65,0,0,1,25.23,32.92Z"/><path class="cls-52" d="M25.24,34a.63.63,0,0,0,0,.38,1.94,1.94,0,0,0,.5,0c.09-.18.11-.31.05-.41A1.58,1.58,0,0,0,25.24,34Z"/><path class="cls-61" d="M25.24,34c.07.16.07.29,0,.38A.63.63,0,0,1,25.24,34Z"/><path class="cls-53" d="M23.17,28.37a.24.24,0,0,1-.27,0,3.54,3.54,0,0,1-.11-.58q.15-.13.27,0A3.5,3.5,0,0,1,23.17,28.37Z"/><path class="cls-58" d="M23.17,28.37c-.13-.09-.22-.1-.27,0A.24.24,0,0,0,23.17,28.37Z"/><path class="cls-62" d="M22.48,31.66c.35-.09.65-.18.91-.26l.63-.21L24.3,31l.67-.32c-.28.16-.64.42-.91.55A5.46,5.46,0,0,1,22.48,31.66Z"/><path class="cls-62" d="M23.15,32.58l.73-.1a1.53,1.53,0,0,0,.41-.11l.31-.13c.19-.09.31-.12.57-.25-.18.09-.36.24-.48.3l-.35.16a5.39,5.39,0,0,1-1.33.17Z"/><path class="cls-63" d="M23.86,33.51a2,2,0,0,0,.61,0l.42-.07a2,2,0,0,1,.51,0l-.5.09-.42.07a2,2,0,0,1-.62,0,6.4,6.4,0,0,1-.89-.2A7.29,7.29,0,0,1,23.86,33.51Z"/><path class="cls-63" d="M23.81,34.33c.26.06.52.11.79.15l.27,0a.81.81,0,0,1,.31,0,4.84,4.84,0,0,0-.55.07,3.55,3.55,0,0,1-.84-.14c-.26-.06-.57-.18-.84-.26A5.78,5.78,0,0,1,23.81,34.33Z"/><path class="cls-48" d="M23.42,27.68a.62.62,0,0,1,.34.35,1.46,1.46,0,0,1,.15.63h0a2.51,2.51,0,0,0,0,.67,2.92,2.92,0,0,0,.22.67l-.06,0a3.07,3.07,0,0,1-.22-.69,2.61,2.61,0,0,1,0-.68,1.47,1.47,0,0,0-.14-.6A.94.94,0,0,0,23.42,27.68Z"/><path class="cls-64" d="M46.83,37.26a83.25,83.25,0,0,1,1.74-8.83,5.5,5.5,0,0,0-2.47,3.84,16.53,16.53,0,0,0,0,3.44Z"/><path class="cls-47" d="M47.82,30.82l.22-.46a2.87,2.87,0,0,0,.14-1.29c.12-.52.28-.8.53-.87s.6,0,.54.3a1.93,1.93,0,0,0,0,.87,2,2,0,0,0,.11,1.13c.07.29.42.55.54.66s.08.27-.1.25c.06.1-.31.08-.25.19-.18,2-1,3-2.38,3.1a12,12,0,0,1,.69-3.85Z"/><path class="cls-48" d="M47.14,34.9a7.52,7.52,0,0,0,.5-3.66A14.32,14.32,0,0,0,47.14,34.9Z"/><path class="cls-49" d="M47.42,35.05a12.18,12.18,0,0,0,1.8-.42c.36-.69.21-.77-.24-1.07-.66.2-.72.38-1.15.52-.82.08-1.51.05-1.62.45,0,.26-.07.22.16.46A3.45,3.45,0,0,1,47.42,35.05Z"/><path class="cls-50" d="M47.77,34.08a7.51,7.51,0,0,0,1.69-.25c.3-.32.41-.56,0-.95-.73.07-1.21.18-1.7.24-.86-.09-1.43-.2-1.66.18-.11.69.28.58.78.64A5.6,5.6,0,0,1,47.77,34.08Z"/><path class="cls-51" d="M47.69,32.9a7.72,7.72,0,0,0,1.87.3c.43-.29.67-.51.46-1C49.25,32,49,32.12,48.43,32c-.37-.16-1.3-.5-1.73-.3a.41.41,0,0,0-.23.58C47.29,32.72,47.69,32.9,47.69,32.9Z"/><path class="cls-52" d="M48,31.73a14,14,0,0,0,2.07.61.71.71,0,0,0,0-1.24c-.82-.12-.84-.15-1.38-.26-.9-.36-1.36-.57-1.78-.27a.83.83,0,0,0-.15.51Z"/><path class="cls-53" d="M47.55,30.77a.85.85,0,0,1-.24.43,2.27,2.27,0,0,1-.55-.23.58.58,0,0,1,.22-.46A1.7,1.7,0,0,1,47.55,30.77Z"/><path class="cls-50" d="M50.05,32.27a5.09,5.09,0,0,1-1.5-.35,1.57,1.57,0,0,0,.32-.59,8.47,8.47,0,0,0,1.43.36A.54.54,0,0,1,50.05,32.27Z"/><path class="cls-54" d="M49.58,33.1a3.43,3.43,0,0,1-1.52-.22,1.18,1.18,0,0,0,.14-.5,15.24,15.24,0,0,0,1.76.2A.87.87,0,0,1,49.58,33.1Z"/><path class="cls-55" d="M49.26,33.79a3.32,3.32,0,0,1-1.53.14,1.27,1.27,0,0,0,0-.51c1-.1,1.57-.17,1.76-.22A.85.85,0,0,1,49.26,33.79Z"/><path class="cls-56" d="M49.07,34.62a3.42,3.42,0,0,1-1.54.32,1.27,1.27,0,0,0,0-.51Q49,34.11,49.32,34A1,1,0,0,1,49.07,34.62Z"/><path class="cls-57" d="M48.78,30.84l-.64-.23a4,4,0,0,0,.14-1.39c0-.64.21-1,.66-.94-.17.76,0,.67.12.73s-.2.22-.2.31,0,.57,0,1A1.6,1.6,0,0,0,48.78,30.84Z"/><path class="cls-58" d="M47.55,30.77a.48.48,0,0,0-.24.43A.73.73,0,0,0,47.55,30.77Z"/><path class="cls-53" d="M47.16,32a.83.83,0,0,1-.21.43,2.53,2.53,0,0,1-.56-.25c0-.24.07-.4.18-.46A2.16,2.16,0,0,1,47.16,32Z"/><path class="cls-58" d="M47.16,32a.4.4,0,0,0-.21.43A.76.76,0,0,0,47.16,32Z"/><path class="cls-59" d="M46.85,33.45a.63.63,0,0,1-.07.42,2.29,2.29,0,0,1-.54-.07.47.47,0,0,1,0-.45A1.9,1.9,0,0,1,46.85,33.45Z"/><path class="cls-60" d="M46.85,33.45a.38.38,0,0,0-.07.42A.65.65,0,0,0,46.85,33.45Z"/><path class="cls-52" d="M46.84,34.55a.55.55,0,0,1,0,.38,1.88,1.88,0,0,1-.5,0c-.08-.18-.1-.31,0-.41A1.58,1.58,0,0,1,46.84,34.55Z"/><path class="cls-61" d="M46.84,34.55a.34.34,0,0,0,0,.38A.55.55,0,0,0,46.84,34.55Z"/><path class="cls-53" d="M48.91,28.91a.27.27,0,0,0,.26,0,3.06,3.06,0,0,0,.12-.59q-.15-.14-.27,0A3.42,3.42,0,0,0,48.91,28.91Z"/><path class="cls-58" d="M48.91,28.91c.12-.1.21-.1.26,0A.27.27,0,0,1,48.91,28.91Z"/><path class="cls-62" d="M49.6,32.19c-.35-.09-.65-.18-.91-.26l-.63-.21-.29-.14c-.23-.12-.42-.22-.66-.33.28.16.63.42.91.55A5.38,5.38,0,0,0,49.6,32.19Z"/><path class="cls-62" d="M48.93,33.11,48.2,33a2.2,2.2,0,0,1-.41-.1l-.32-.14c-.18-.09-.3-.12-.56-.25.18.09.35.24.48.3l.35.16a5.33,5.33,0,0,0,1.33.17Z"/><path class="cls-63" d="M48.22,34a2,2,0,0,1-.61,0l-.43-.07a2.54,2.54,0,0,0-.51,0l.51.09.41.07a2.11,2.11,0,0,0,.63,0,6.4,6.4,0,0,0,.89-.2A7.29,7.29,0,0,0,48.22,34Z"/><path class="cls-63" d="M48.27,34.86c-.26.06-.52.11-.79.15l-.27,0a.81.81,0,0,0-.31,0,4.28,4.28,0,0,1,.54.07,3.41,3.41,0,0,0,.84-.14c.27-.06.58-.18.85-.26A5.26,5.26,0,0,0,48.27,34.86Z"/><path class="cls-48" d="M48.66,28.22a.62.62,0,0,0-.35.34,1.82,1.82,0,0,0-.15.63h0a1.89,1.89,0,0,1,0,.67,2.88,2.88,0,0,1-.21.67l.06,0a3.68,3.68,0,0,0,.22-.69,2.59,2.59,0,0,0,0-.68,1.47,1.47,0,0,1,.14-.6A.83.83,0,0,1,48.66,28.22Z"/></g></g></g><g id="Capa_1-2" data-name="Capa 1"><text class="cls-65" transform="translate(86.8 72.56)"><tspan class="cls-66">M</tspan><tspan x="9.72" y="0">odulo </tspan><tspan class="cls-67" x="41.65" y="0">P</tspan><tspan class="cls-68" x="47.84" y="0">r</tspan><tspan class="cls-69" x="51.65" y="0">o</tspan><tspan class="cls-70" x="58.15" y="0">v</tspan><tspan x="63.8" y="0">eedo</tspan><tspan class="cls-68" x="89.18" y="0">r</tspan><tspan x="92.99" y="0">es</tspan></text></g></g></g></svg>