<svg xmlns="http://www.w3.org/2000/svg" viewBox="0 0 200 76.52"><defs><style>.cls-1{isolation:isolate;}.cls-2{fill:#3b64ae;}.cls-3{fill:#f2f2f2;}.cls-4{fill:#38464f;}.cls-5{fill:#f2f2f7;}.cls-6{fill:#fff;}.cls-7{fill:#010101;}.cls-8{fill:#d82a41;}.cls-9{fill:#58bbde;}.cls-10{fill:#0c1f24;}.cls-11{fill:#4b5b67;}.cls-12{opacity:0.3;}.cls-13,.cls-15{opacity:0.5;mix-blend-mode:multiply;}.cls-14,.cls-15{fill:#4d5353;}.cls-16{fill:#e97242;}.cls-17{fill:#f6a86b;}.cls-18{fill:#f18858;}.cls-19{fill:#fac4a0;}</style></defs><g class="cls-1"><g id="Capa_2" data-name="Capa 2"><g id="Capa_3" data-name="Capa 3"><g id="Capa_4" data-name="Capa 4"><rect class="cls-2" width="200" height="76.52"/></g></g><g id="Capa_1-2" data-name="Capa 1"><path class="cls-3" d="M92.61,59.26a10.66,10.66,0,0,1,2-.17,3.28,3.28,0,0,1,2.34.66,2,2,0,0,1,.63,1.53,2.13,2.13,0,0,1-1.52,2.07v0A2,2,0,0,1,97.25,65a12.33,12.33,0,0,0,.62,2.22H96.79a10.79,10.79,0,0,1-.54-1.93c-.24-1.11-.67-1.53-1.62-1.57h-1v3.5h-1Zm1,3.68h1.07c1.11,0,1.82-.61,1.82-1.54s-.75-1.49-1.86-1.51a4.15,4.15,0,0,0-1,.1Z"/><path class="cls-3" d="M99.66,64.52a1.87,1.87,0,0,0,2,2,3.8,3.8,0,0,0,1.61-.3l.18.75a4.67,4.67,0,0,1-1.93.36,2.69,2.69,0,0,1-2.85-2.92c0-1.75,1-3.13,2.72-3.13a2.46,2.46,0,0,1,2.4,2.73,4.15,4.15,0,0,1,0,.49Zm3.1-.75a1.51,1.51,0,0,0-1.47-1.72,1.74,1.74,0,0,0-1.61,1.72Z"/><path class="cls-3" d="M104.94,66.15a2.72,2.72,0,0,0,1.39.42c.77,0,1.13-.38,1.13-.86s-.3-.78-1.08-1.07c-1-.37-1.53-.94-1.53-1.64a1.78,1.78,0,0,1,2-1.7,2.83,2.83,0,0,1,1.43.36l-.27.76a2.25,2.25,0,0,0-1.18-.33c-.63,0-1,.36-1,.79s.34.69,1.1,1c1,.39,1.52.89,1.52,1.75,0,1-.79,1.74-2.17,1.74a3.3,3.3,0,0,1-1.63-.39Z"/><path class="cls-3" d="M109.84,63.32c0-.74,0-1.34,0-1.89h.95l.05,1h0a2.29,2.29,0,0,1,2.06-1.12c1.41,0,2.46,1.18,2.46,3,0,2.08-1.27,3.12-2.64,3.12a2,2,0,0,1-1.78-.92h0v3.16h-1Zm1,1.55a2.68,2.68,0,0,0,.05.43,1.63,1.63,0,0,0,1.58,1.24c1.12,0,1.77-.91,1.77-2.25,0-1.16-.62-2.15-1.73-2.15a1.69,1.69,0,0,0-1.6,1.3,2,2,0,0,0-.07.43Z"/><path class="cls-3" d="M121.92,64.28A2.84,2.84,0,0,1,119,67.37a2.76,2.76,0,0,1-2.78-3,2.83,2.83,0,0,1,2.88-3.08A2.75,2.75,0,0,1,121.92,64.28Zm-4.6.06c0,1.27.73,2.23,1.76,2.23s1.76-.94,1.76-2.25c0-1-.49-2.23-1.74-2.23S117.32,63.24,117.32,64.34Z"/><path class="cls-3" d="M123.26,63c0-.6,0-1.09-.05-1.57h.93l.06,1h0a2.13,2.13,0,0,1,1.92-1.09c.8,0,2,.48,2,2.47v3.46h-1.06V63.89c0-.94-.35-1.72-1.34-1.72a1.5,1.5,0,0,0-1.42,1.08,1.45,1.45,0,0,0-.07.49v3.49h-1Z"/><path class="cls-3" d="M134.93,58.72v7c0,.52,0,1.11,0,1.5H134l-.05-1h0a2.17,2.17,0,0,1-2,1.14c-1.41,0-2.48-1.19-2.48-3,0-1.93,1.18-3.11,2.6-3.11a1.94,1.94,0,0,1,1.75.88h0V58.72Zm-1.06,5.07a1.65,1.65,0,0,0-.05-.44,1.55,1.55,0,0,0-1.52-1.23c-1.09,0-1.74,1-1.74,2.25s.58,2.14,1.72,2.14a1.57,1.57,0,0,0,1.54-1.26,1.59,1.59,0,0,0,.05-.45Z"/><path class="cls-3" d="M137.27,64.52a1.86,1.86,0,0,0,2,2,3.8,3.8,0,0,0,1.61-.3l.18.75a4.67,4.67,0,0,1-1.93.36,2.69,2.69,0,0,1-2.86-2.92c0-1.75,1-3.13,2.73-3.13A2.45,2.45,0,0,1,141.38,64a4.68,4.68,0,0,1,0,.49Zm3.09-.75a1.5,1.5,0,0,0-1.46-1.72,1.75,1.75,0,0,0-1.62,1.72Z"/><path class="cls-3" d="M142.7,63.24c0-.68,0-1.27,0-1.81h.92l0,1.14h0a1.75,1.75,0,0,1,1.61-1.27,1.32,1.32,0,0,1,.3,0v1a1.28,1.28,0,0,0-.36,0,1.48,1.48,0,0,0-1.41,1.36,2.38,2.38,0,0,0,0,.49v3.09h-1Z"/><path class="cls-3" d="M149.75,64.52a1.86,1.86,0,0,0,2,2,3.8,3.8,0,0,0,1.61-.3l.18.75a4.67,4.67,0,0,1-1.93.36,2.69,2.69,0,0,1-2.86-2.92c0-1.75,1-3.13,2.73-3.13A2.45,2.45,0,0,1,153.86,64a4.68,4.68,0,0,1,0,.49Zm3.09-.75a1.5,1.5,0,0,0-1.46-1.72,1.75,1.75,0,0,0-1.62,1.72Z"/><path class="cls-3" d="M155.18,63c0-.6,0-1.09-.05-1.57h.93l.06,1h0a2.13,2.13,0,0,1,1.92-1.09c.8,0,2.05.48,2.05,2.47v3.46h-1.06V63.89c0-.94-.35-1.72-1.34-1.72a1.5,1.5,0,0,0-1.42,1.08,1.45,1.45,0,0,0-.07.49v3.49h-1Z"/><path class="cls-3" d="M166,67a4,4,0,0,1-1.67.33,2.75,2.75,0,0,1-2.89-3,3,3,0,0,1,3.12-3.08,3.45,3.45,0,0,1,1.47.3l-.24.81a2.54,2.54,0,0,0-1.23-.27,2.19,2.19,0,0,0,0,4.36,3,3,0,0,0,1.29-.28Z"/><path class="cls-3" d="M172.07,65.65c0,.6,0,1.13.05,1.58h-.94l-.06-.94h0a2.21,2.21,0,0,1-1.92,1.08c-.91,0-2-.51-2-2.55V61.43h1.06v3.21c0,1.11.34,1.85,1.3,1.85a1.54,1.54,0,0,0,1.39-1A1.57,1.57,0,0,0,171,65V61.43h1.06Z"/><path class="cls-3" d="M174.41,64.52a1.86,1.86,0,0,0,2,2,3.8,3.8,0,0,0,1.61-.3l.18.75a4.67,4.67,0,0,1-1.93.36,2.69,2.69,0,0,1-2.86-2.92c0-1.75,1-3.13,2.73-3.13A2.45,2.45,0,0,1,178.52,64a4.68,4.68,0,0,1,0,.49Zm3.09-.75A1.5,1.5,0,0,0,176,62.05a1.75,1.75,0,0,0-1.62,1.72Z"/><path class="cls-3" d="M179.69,66.15a2.69,2.69,0,0,0,1.39.42c.77,0,1.13-.38,1.13-.86s-.3-.78-1.08-1.07c-1-.37-1.54-.94-1.54-1.64a1.79,1.79,0,0,1,2-1.7,2.77,2.77,0,0,1,1.42.36l-.26.76a2.32,2.32,0,0,0-1.19-.33c-.62,0-1,.36-1,.79s.35.69,1.1,1c1,.39,1.53.89,1.53,1.75,0,1-.79,1.74-2.17,1.74a3.27,3.27,0,0,1-1.63-.39Z"/><path class="cls-3" d="M185.86,59.76v1.67h1.51v.8h-1.51v3.13c0,.72.2,1.13.79,1.13a2.68,2.68,0,0,0,.61-.07l.05.79a2.69,2.69,0,0,1-.94.14,1.47,1.47,0,0,1-1.14-.44,2.15,2.15,0,0,1-.4-1.51V62.23h-.9v-.8h.9V60Z"/><path class="cls-3" d="M191.77,67.23l-.08-.73h0a2.15,2.15,0,0,1-1.77.87,1.66,1.66,0,0,1-1.78-1.67c0-1.41,1.25-2.17,3.49-2.16v-.12a1.19,1.19,0,0,0-1.32-1.34,2.84,2.84,0,0,0-1.51.43l-.24-.7a3.63,3.63,0,0,1,1.91-.51c1.77,0,2.21,1.21,2.21,2.37v2.17a8.32,8.32,0,0,0,.09,1.39Zm-.15-3c-1.16,0-2.46.18-2.46,1.31a.93.93,0,0,0,1,1,1.45,1.45,0,0,0,1.41-1,1.2,1.2,0,0,0,.06-.33Z"/><path class="cls-3" d="M194.2,66.15a2.69,2.69,0,0,0,1.39.42c.77,0,1.13-.38,1.13-.86s-.3-.78-1.08-1.07c-1-.37-1.54-.94-1.54-1.64a1.79,1.79,0,0,1,2-1.7,2.79,2.79,0,0,1,1.42.36l-.26.76a2.32,2.32,0,0,0-1.19-.33c-.62,0-1,.36-1,.79s.35.69,1.1,1c1,.39,1.53.89,1.53,1.75,0,1-.79,1.74-2.17,1.74a3.34,3.34,0,0,1-1.64-.39Z"/><g class="cls-1"><path class="cls-4" d="M11,26.82c-.15.15-.14-.29-.21-.09A5.88,5.88,0,0,0,10.53,28a1.63,1.63,0,0,0,.18.66L27,60.73a1.84,1.84,0,0,0,.45.57,1.68,1.68,0,0,0,.61.34,1.56,1.56,0,0,0,.68.08,1.62,1.62,0,0,0,.67-.2l25-13.72,12.17-6.69a1.1,1.1,0,0,0,.39-.35,1.28,1.28,0,0,0,.2-.5,1.56,1.56,0,0,0,0-.57,1.9,1.9,0,0,0-.21-.59L52,12.24a1.74,1.74,0,0,0-.38-.47,1.92,1.92,0,0,0-.48-.32,1.77,1.77,0,0,0-.54-.13,1.37,1.37,0,0,0-.53.08L26.17,20.74,11.55,26.45A1.76,1.76,0,0,0,11,26.82Z"/><path class="cls-5" d="M15.68,27.73a1.27,1.27,0,0,0-.08.48,1.3,1.3,0,0,0,.14.49L29.58,54.8a1.52,1.52,0,0,0,.34.44,1.75,1.75,0,0,0,.46.26,1.49,1.49,0,0,0,.51.06,1.43,1.43,0,0,0,.52-.16L62.59,38.56a.91.91,0,0,0,.44-.65,1.23,1.23,0,0,0,0-.43,1.46,1.46,0,0,0-.16-.44l-12-22a1.25,1.25,0,0,0-.28-.36,1.2,1.2,0,0,0-.37-.23,1,1,0,0,0-.41-.1.86.86,0,0,0-.39.06L16.37,27.05a1.39,1.39,0,0,0-.43.28A1.31,1.31,0,0,0,15.68,27.73Z"/><path class="cls-6" d="M49.75,29.62l.07.07.06,0h.06l0,0,0,0s0,0,0-.05a.13.13,0,0,0,0-.06l-.22-.42h-.16a.12.12,0,0,0,0,.05.15.15,0,0,0,0,.07.43.43,0,0,0,0,.11l.06.13A.62.62,0,0,0,49.75,29.62Z"/><path class="cls-7" d="M51.53,33.35h-.07l-.07,0v.11s0,0,0,0l0,0a.05.05,0,0,1,0,0l0,0,0,.07.32.6H52l0,0h0l0,0,0,0-.31-.57a.13.13,0,0,1,0-.06.09.09,0,0,1,0-.05l0,0,0,0h.08v-.06a.64.64,0,0,0,0-.07.14.14,0,0,0,0-.06l0,0h-.11l-.06,0a.21.21,0,0,0,0,.06s0,0,0,.07a.22.22,0,0,0,0,.08l-.07,0Z"/><path class="cls-6" d="M47.81,30.36l.06.11a.6.6,0,0,0,.08.08.13.13,0,0,0,.07,0,.1.1,0,0,0,.09,0,.1.1,0,0,0,.06,0,.14.14,0,0,0,0-.09.19.19,0,0,0,0-.1.61.61,0,0,0,0-.12.41.41,0,0,0-.07-.11L48,30,47.88,30h-.09l-.06.06a.28.28,0,0,0,0,.09l0,.1A.34.34,0,0,0,47.81,30.36Z"/><path class="cls-7" d="M47.59,30.46l.06.11.07.09.09.07.09.05.08,0h.15l.08,0,.07,0a.12.12,0,0,0,0,0,.21.21,0,0,0,0-.06.09.09,0,0,0,0-.07.26.26,0,0,0,0-.2.23.23,0,0,0,0-.11.54.54,0,0,0,0-.11.41.41,0,0,0-.07-.11l-.07-.09-.08-.07L48,29.8l-.08,0h-.15l-.07,0-.07,0-.06.05s0,0,0,.06l0,.07a.31.31,0,0,0,0,.1.34.34,0,0,0,0,.1l0,.11A.6.6,0,0,0,47.59,30.46Zm.14-.41.06-.06h.09L48,30l.07.08a.41.41,0,0,1,.07.11.61.61,0,0,1,0,.12.19.19,0,0,1,0,.1.14.14,0,0,1,0,.09.1.1,0,0,1-.06,0,.1.1,0,0,1-.09,0,.13.13,0,0,1-.07,0,.6.6,0,0,1-.08-.08l-.06-.11a.34.34,0,0,1-.06-.12l0-.1A.28.28,0,0,1,47.73,30.05Z"/><path class="cls-7" d="M46.53,30.23a.2.2,0,0,1,.1-.08l.08,0h.17l.09,0,0-.05s0,0,0-.06a488806954763.94,488806954763.94,0,0,0,0-.12h-.24l-.12,0-.11,0a.52.52,0,0,0-.17.12.63.63,0,0,0-.1.2.7.7,0,0,0,0,.25,1.22,1.22,0,0,0,.11.32,1.46,1.46,0,0,0,.17.24,1,1,0,0,0,.19.16.46.46,0,0,0,.23.06.57.57,0,0,0,.24-.06l.12-.06.11-.07L47.5,31l.06-.07-.25-.47a.15.15,0,0,0,0-.06l-.06,0h-.06l-.08,0-.25.12v.09l0,0,0,.05,0,0H47l.11-.06v0l0,0,0,0v0l.09.16,0,0,0,0-.05,0,0,0a.32.32,0,0,1-.14,0,.31.31,0,0,1-.13,0,.45.45,0,0,1-.13-.11.7.7,0,0,1-.13-.19,1.28,1.28,0,0,1-.09-.22.45.45,0,0,1,0-.16A.17.17,0,0,1,46.53,30.23Z"/><path class="cls-6" d="M48.37,40.51h.05l.08,0,0,0,0,0v0a.14.14,0,0,0,0-.06v0l0,0,0,0v0l-.81.41v0l0,0v.07l0,0,0,0,0,0,.18-.1h0l0,0h0l0,0,0,0,0,0,0,0,.49.93h.07l0,0h.05l0,0,0,0,0,0-.5-.93,0,0v0l0,0,0,0,0,0Z"/><path class="cls-7" d="M39.56,33.66v.09l0,0v0l0,0,.13-.06.28.53a.86.86,0,0,0,.07.1l.08,0a.11.11,0,0,0,.08,0,.17.17,0,0,0,.1,0l.06,0,0,0,0,0,0,0h0v0h0v0l0,0,0,0,0,0,0,0-.11,0h-.07l0,0s0,0,0,0L40,33.64l.21-.09v-.12l0,0v0l0,0-.21.1-.14-.27h0l-.09,0,0,0s0,0,0,0a.31.31,0,0,0,0,.12l.07.14-.14.06Z"/><path class="cls-7" d="M39,34.16l0,0,0,0h.05l0,0s0,0,0,0l0,.06.23.44,0,.06,0,0h0l.06,0,0,0,0,0,0,0,0,0a.05.05,0,0,1,0,0l0,0,0,0,0,0L39.49,34l-.08-.12a.39.39,0,0,0-.1-.08.2.2,0,0,0-.11,0,.27.27,0,0,0-.12,0l-.06,0-.06.06a.21.21,0,0,0,0,.06.3.3,0,0,0,0,.08l0,0,0,0h-.1l-.09,0v0l.49.93h.12l0,0,0,0h0l0,0L39,34.26s0,0,0,0Z"/><path class="cls-7" d="M38.58,34.72s0,0,0,0,0,0,0,0l0-.05a.49.49,0,0,0-.11-.14.35.35,0,0,0-.29-.13.59.59,0,0,0-.17,0,.31.31,0,0,0-.15.12.33.33,0,0,0-.07.16.65.65,0,0,0,0,.19.6.6,0,0,0,.08.21,1,1,0,0,0,.11.17.61.61,0,0,0,.15.13.34.34,0,0,0,.17.05.41.41,0,0,0,.21,0l.09-.05.08-.07.06-.07a.22.22,0,0,0,0-.08l0,0,0,0,0,0,0,0,0,.06,0,0-.06.05-.06,0a.15.15,0,0,1-.09,0,.12.12,0,0,1-.08,0l-.07-.05a.41.41,0,0,1,0-.09l.48-.23A.06.06,0,0,0,38.58,34.72Zm-.57.1,0-.1s0-.06,0-.08a.14.14,0,0,1,0-.07.1.1,0,0,1,0,0l.08,0,.07,0,.06.05a.43.43,0,0,1,0,.07l0,0Z"/><path class="cls-7" d="M37.54,35.68a.11.11,0,0,0,.08,0,.19.19,0,0,0,.1,0l0,0,.05,0,0,0,0,0h0v0h0v0l0,0,0,0,0,0,0,0-.06,0h-.07s0,0,0,0,0,0,0,0l-.51-1a.43.43,0,0,0,0-.07l0,0h0l-.07,0-.08,0v0l.61,1.15.06.1A.18.18,0,0,0,37.54,35.68Z"/><path class="cls-6" d="M41.31,38.75v0l0-.08-.06,0-.07,0-.07,0-.06,0a.64.64,0,0,0,0,.07.25.25,0,0,0,0,.08.42.42,0,0,0,0,.1Z"/><path class="cls-7" d="M41.58,38.78s0,0,0,0,0,0,0,0l0-.05a.56.56,0,0,0-.1-.15.42.42,0,0,0-.14-.09.41.41,0,0,0-.16,0,.32.32,0,0,0-.16,0,.31.31,0,0,0-.15.12.33.33,0,0,0-.07.16.71.71,0,0,0,0,.2.64.64,0,0,0,.08.2.78.78,0,0,0,.11.18.87.87,0,0,0,.15.13.34.34,0,0,0,.17.05.43.43,0,0,0,.21-.05l.09,0,.07-.07a.23.23,0,0,0,.07-.07l0-.08,0,0,0,0,0,0,0,0,0,0,0,0-.05.05-.06,0-.09,0a.11.11,0,0,1-.08,0l-.07-.05-.06-.08.49-.24Zm-.56.11a.42.42,0,0,1,0-.1.25.25,0,0,1,0-.08.64.64,0,0,1,0-.07l.06,0,.07,0,.07,0,.06,0,0,.08v0Z"/><path class="cls-7" d="M40.4,38.82l0,0,0,0h0l0,0,0,0s0,0,0,0,0,0,0,0H40a.11.11,0,0,0-.07,0,.27.27,0,0,0-.12.09.34.34,0,0,0-.06.15.41.41,0,0,0,0,.19.79.79,0,0,0,.08.23.7.7,0,0,0,.13.19.43.43,0,0,0,.14.13.3.3,0,0,0,.15,0,.4.4,0,0,0,.15,0l.06,0,.05,0,0-.06,0,0,0,.07a.36.36,0,0,1,0,.09.28.28,0,0,1,0,.09.3.3,0,0,1,0,.08l-.08.06-.06,0-.07,0h-.14a.09.09,0,0,0,0,0s0,0,0,.06,0,0,0,0l0,0h.09l.09,0,.09,0,.09,0,.09-.06a.23.23,0,0,0,.07-.07l.05-.07a.16.16,0,0,0,0-.09V40a.44.44,0,0,0,0-.1.93.93,0,0,0,0-.13l-.08-.16L40.46,39a.08.08,0,0,1,0-.05s0,0,0,0v0a.06.06,0,0,1,0,0Zm.05.72s0,0,0,.06l0,0,0,0,0,0h-.06l-.07,0a.29.29,0,0,1-.07-.08.62.62,0,0,1-.08-.12.53.53,0,0,1-.06-.14.23.23,0,0,1,0-.11.19.19,0,0,1,0-.08.1.1,0,0,1,.06,0l0,0h.16Z"/><path class="cls-6" d="M40.13,39.61a.29.29,0,0,0,.07.08l.07,0h.06l0,0,0,0,0,0s0,0,0-.06l-.22-.42h-.16l0,0a.1.1,0,0,0-.06,0,.19.19,0,0,0,0,.08.23.23,0,0,0,0,.11.53.53,0,0,0,.06.14A.62.62,0,0,0,40.13,39.61Z"/><path class="cls-7" d="M36.92,36,37,36l.1,0,0,0,0,0,0,0,0,0h0v0h0v0l0,0,0,0,0,0,0,0,0,0H37l0,0,0,0-.51-1,0-.07s0,0,0,0h-.06l-.06,0-.09,0v0l.61,1.16a.86.86,0,0,0,.07.1Z"/><path class="cls-6" d="M36.1,35.71v0L36,35.62,36,35.56l-.07,0-.08,0a.1.1,0,0,0,0,0,.14.14,0,0,0,0,.07s0,0,0,.08a.42.42,0,0,0,0,.1Z"/><path class="cls-7" d="M36.38,35.75l0,0s0,0,0-.05l0,0a.58.58,0,0,0-.11-.15.42.42,0,0,0-.14-.09.41.41,0,0,0-.16,0,.38.38,0,0,0-.17,0,.31.31,0,0,0-.15.12.33.33,0,0,0-.07.16.61.61,0,0,0,0,.19,1.8,1.8,0,0,0,.08.21l.12.18a.47.47,0,0,0,.15.13.34.34,0,0,0,.17.05.39.39,0,0,0,.21,0l.09-.06.08-.06a.46.46,0,0,0,.07-.07l0-.08,0,0,0,0,0,0,0,0,0,0s0,0,0,.05l-.05,0-.06,0-.1,0-.08,0L36,36.11,35.89,36l.5-.23Zm-.58.1a.42.42,0,0,1,0-.1s0-.06,0-.08a.14.14,0,0,1,0-.07.1.1,0,0,1,0,0l.08,0,.07,0,.06.06.05.07v0Z"/><path class="cls-7" d="M34.9,36H35A.09.09,0,0,1,35,36s0,0,.06.06l.06.09h.1l0,0,0,0V36l0,0a.31.31,0,0,0-.09-.11.24.24,0,0,0-.11-.06.39.39,0,0,0-.15,0l-.15,0a.45.45,0,0,0-.13.1.28.28,0,0,0-.08.15.39.39,0,0,0,0,.19.69.69,0,0,0,.09.25.91.91,0,0,0,.13.19.57.57,0,0,0,.15.12.37.37,0,0,0,.18,0,.46.46,0,0,0,.19,0l.09-.06a.46.46,0,0,0,.07-.07.24.24,0,0,0,.06-.09.25.25,0,0,0,0-.09l0,0-.05,0,0,0,0,0,0,.06,0,.05,0,0-.05,0-.09,0-.08,0L35,36.52a.73.73,0,0,1-.09-.13.58.58,0,0,1-.06-.15.26.26,0,0,1,0-.11.19.19,0,0,1,0-.08Z"/><path class="cls-7" d="M34.25,36.11H34.1l0,0h0l0,0v.33l-.23-.14,0,0h-.12l0,0s0,0,0,0l0,0,0,0,.49.3,0,.6H34l0,0h.06l0,0h0l0,0v-.38l.28.17,0,0h.12l0,0,0,0,0,0,0,0-.53-.33,0-.54Z"/><path class="cls-7" d="M36.68,41.49h0l0,0,0-.06,0-.06-.06-.06-.3-.34s0,0-.05,0l0,0h0l-.05,0,0,0,0,0,0,0,0,0,.66.71.06,0,.06,0h0l.07,0,0,0,.05,0,0,0,0,0c0-.06,0-.14,0-.22a1.57,1.57,0,0,0-.06-.28l-.06-.29q0-.15-.06-.27h-.16l0,0h0l.21.85Z"/><path class="cls-7" d="M33.14,36.45a.06.06,0,0,0,0,0V36.3l0,0v0l0,0-.77.35v0l.6,1.15s0,0,0,.06a.1.1,0,0,0,.05,0H33l.07,0,.51-.24a.15.15,0,0,0,.06,0,.1.1,0,0,0,0-.05.43.43,0,0,0,0,0,.13.13,0,0,0,0-.06v0l0,0v0l-.45.21,0,0,0,0h0l0,0,0,0v0l0,0v0l-.12-.23.12-.06.31-.14v-.14l0,0,0,0,0,0-.31.14h0l0,0h0l0,0-.11-.2v0l0,0,0,0,0,0,.13-.06Z"/><path class="cls-6" d="M35.21,41.42a.31.31,0,0,1,0,.08l.06.28h.08l.16-.08h.08l-.16-.17-.07-.08-.08-.08-.08-.09-.07-.08h0l0,.08s0,.07,0,.1A.36.36,0,0,1,35.21,41.42Z"/><path class="cls-7" d="M35.39,42l0,0h0l.26-.13h.06l0,0,.15.16L36,42,36,42h0l.06,0,0,0,0,0,0,0,0,0-1.08-1.1H35.1l0,0h0l0,0,0,0,0,0,0,0,.27,1.51h.15l0,0h0l0,0,0,0L35.34,42h0Zm-.06-.24h0l-.06-.28a.31.31,0,0,0,0-.08.36.36,0,0,0,0-.1s0-.06,0-.1l0-.08h0l.07.08.08.09.08.08.07.08.16.17h-.08l-.16.08h0Z"/><polygon class="cls-7" points="30.45 36.68 28.97 37.37 29.23 37.52 30.42 36.97 30.45 36.68"/><polygon class="cls-8" points="30.67 38.88 30.91 36.83 30.96 36.45 31.07 35.49 30.61 35.4 30.45 36.68 30.42 36.97 30.28 38.12 29.23 37.52 28.97 37.37 28.73 37.23 28.52 37.64 28.79 37.8 29.16 38.01 30.67 38.88"/><polygon class="cls-6" points="30.91 36.83 30.67 38.88 29.16 38.01 29.99 39.61 31.89 38.71 30.91 36.83"/><polygon class="cls-7" points="29.16 38.01 28.79 37.8 29.89 39.93 32.21 38.83 30.97 36.45 30.96 36.45 30.91 36.83 31.89 38.71 29.99 39.61 29.16 38.01"/><path class="cls-6" d="M45.45,22.71l-.14-.15-.14-.15L45,22.28l-.71-.64a.91.91,0,0,0-.13-.1.34.34,0,0,0-.12-.06l-.11,0-.13,0-.09.05-.09.06-.07.08-.07.09,2.12,1.88.59,1.09.09,0,.09,0,.08,0,.07,0,.07,0,.08,0,.07-.05.07,0-.58-1.07-.35-2.67,0,0h-.08l-.08,0-.08,0-.09,0-.06,0-.06,0-.06,0-.06,0,.17,1.14,0,.18c0,.07,0,.13,0,.2s0,.14,0,.21,0,.13,0,.2h0Z"/><path class="cls-7" d="M49.61,29h0l0,0a.31.31,0,0,0-.11.09.39.39,0,0,0,0,.13.56.56,0,0,0,0,.18,1.4,1.4,0,0,0,.2.4.75.75,0,0,0,.14.12.34.34,0,0,0,.14.05.25.25,0,0,0,.14,0l.06,0a.12.12,0,0,0,.05-.05l0-.06a.14.14,0,0,0,0-.07l.05,0,0,0h.11s0,0,0,0,0,0,0,0a.06.06,0,0,0,0,0v0h0l0,0,0,0,0,0-.5-.92,0-.06,0,0h0l-.06,0-.08,0v0l.24.44h-.1Zm.11.18h.09l.22.42a.13.13,0,0,1,0,.06s0,0,0,.05l0,0,0,0h-.06l-.06,0-.07-.07a.62.62,0,0,1-.08-.12l-.06-.13a.52.52,0,0,1,0-.11.15.15,0,0,1,0-.07.12.12,0,0,1,0-.05h.07Z"/><path class="cls-7" d="M48.52,30a.41.41,0,0,0,.07.11l.07.09.08.07.1.05.07,0h.15a.13.13,0,0,0,.08,0l.07,0,0,0a.21.21,0,0,0,0-.06.13.13,0,0,0,0-.07.41.41,0,0,0,0-.11.18.18,0,0,0,0-.1.19.19,0,0,0,0-.1.58.58,0,0,0-.12-.22l-.07-.09a.27.27,0,0,0-.08-.07.31.31,0,0,0-.1-.05l-.07,0a.22.22,0,0,0-.08,0H48.7l-.07,0-.07,0-.05,0,0,.06a.19.19,0,0,0,0,.07.36.36,0,0,0,0,.1s0,.07,0,.11a.42.42,0,0,0,0,.1A.37.37,0,0,0,48.52,30Zm.15-.4a.09.09,0,0,1,.06-.06.11.11,0,0,1,.08,0l.08,0a.22.22,0,0,1,.07.09.41.41,0,0,1,.07.11.37.37,0,0,1,0,.11.22.22,0,0,1,0,.1.09.09,0,0,1,0,.09.17.17,0,0,1-.06.06H49a.14.14,0,0,1-.08-.05.27.27,0,0,1-.07-.08.41.41,0,0,1-.07-.11l-.06-.11a.52.52,0,0,1,0-.11A.08.08,0,0,1,48.67,29.62Z"/><path class="cls-6" d="M48.74,29.92a.41.41,0,0,0,.07.11.27.27,0,0,0,.07.08.14.14,0,0,0,.08.05H49a.17.17,0,0,0,.06-.06.09.09,0,0,0,0-.09.22.22,0,0,0,0-.1.37.37,0,0,0,0-.11.41.41,0,0,0-.07-.11.22.22,0,0,0-.07-.09l-.08,0a.11.11,0,0,0-.08,0,.09.09,0,0,0-.06.06.08.08,0,0,0,0,.08.52.52,0,0,0,0,.11Z"/><path class="cls-6" d="M50.86,34.2l.07.11a.27.27,0,0,0,.07.08s0,0,.08,0a.1.1,0,0,0,.09,0,.1.1,0,0,0,0-.06.08.08,0,0,0,0-.08.23.23,0,0,0,0-.11.54.54,0,0,0-.05-.11.41.41,0,0,0-.07-.11.35.35,0,0,0-.07-.09l-.08,0a.11.11,0,0,0-.08,0l-.07.06a.14.14,0,0,0,0,.09.44.44,0,0,0,0,.1Z"/><path class="cls-7" d="M50.64,34.3a.41.41,0,0,0,.07.11l.07.09.08.07.1,0,.08,0h.15l.07,0,.07,0,.05-.05,0-.06a.19.19,0,0,0,0-.07.41.41,0,0,0,0-.11.34.34,0,0,0,0-.1.45.45,0,0,0,0-.11L51.37,34l-.07-.11-.07-.08-.08-.07a.53.53,0,0,0-.1-.06H50.9l-.08,0-.07,0-.07,0,0,.05-.05.07a.14.14,0,0,0,0,.07.3.3,0,0,0,0,.1.36.36,0,0,0,0,.1.2.2,0,0,0,0,.11A.37.37,0,0,0,50.64,34.3Zm.14-.41.07-.06a.11.11,0,0,1,.08,0l.08,0a.35.35,0,0,1,.07.09.41.41,0,0,1,.07.11.54.54,0,0,1,.05.11.23.23,0,0,1,0,.11.08.08,0,0,1,0,.08.1.1,0,0,1,0,.06.1.1,0,0,1-.09,0s0,0-.08,0a.27.27,0,0,1-.07-.08l-.07-.11-.06-.12a.44.44,0,0,1,0-.1A.14.14,0,0,1,50.78,33.89Z"/><path class="cls-7" d="M49.71,34.76l.07.11.07.09.08.07.1,0,.08,0h.15l.07,0,.07,0,.06-.06a.15.15,0,0,0,0-.06l0-.07s0-.07,0-.1,0-.07,0-.11a.42.42,0,0,0,0-.1.61.61,0,0,0-.05-.12l-.06-.1a.36.36,0,0,0-.08-.09.27.27,0,0,0-.08-.07l-.1,0-.07,0H50l-.08,0a.11.11,0,0,0-.07,0l-.07,0a.12.12,0,0,0,0,.05l-.05.06,0,.07s0,.07,0,.1,0,.07,0,.11a.76.76,0,0,0,0,.11Zm.15-.42a.17.17,0,0,1,.06-.06H50a.14.14,0,0,1,.08,0,.27.27,0,0,1,.07.08.41.41,0,0,1,.07.11l.06.12,0,.1a.28.28,0,0,1,0,.09.17.17,0,0,1-.06.06.14.14,0,0,1-.09,0l-.08,0a.31.31,0,0,1-.07-.09.41.41,0,0,1-.07-.11l-.06-.11a.52.52,0,0,1,0-.11A.1.1,0,0,1,49.86,34.34Z"/><path class="cls-6" d="M49.93,34.65a.41.41,0,0,0,.07.11.31.31,0,0,0,.07.09l.08,0a.14.14,0,0,0,.09,0,.17.17,0,0,0,.06-.06.28.28,0,0,0,0-.09l0-.1-.06-.12a.41.41,0,0,0-.07-.11.27.27,0,0,0-.07-.08.14.14,0,0,0-.08,0h-.08a.17.17,0,0,0-.06.06.1.1,0,0,0,0,.09.52.52,0,0,0,0,.11Z"/><path class="cls-6" d="M39.93,26.78h0l0,0-.16-.2-.18-.22-.17-.21-.18-.19-1.33-1.48-.13-.13a.56.56,0,0,0-.13-.07.32.32,0,0,0-.13,0,.25.25,0,0,0-.14,0l-.11,0-.09.07-.08.07-.07.08,2.55,2.81a.83.83,0,0,0,.16.13l.16.06H40a.47.47,0,0,0,.15-.06l.13-.06.13-.06.13-.07.11-.06-.91-3.85,0,0h-.08l-.09,0-.08,0-.07,0-.07,0-.07,0-.07,0-.06,0L40,26.78h0Z"/><path class="cls-9" d="M35.65,27l.11-.05.09,0a.57.57,0,0,0,.24-.17.32.32,0,0,0,.1-.19.55.55,0,0,0,0-.22,1,1,0,0,0-.09-.22A1.43,1.43,0,0,0,36,26a.55.55,0,0,0-.17-.14.46.46,0,0,0-.23-.06.72.72,0,0,0-.3.07l-.1,0-.12.05-.12.05-.12.05.61,1.15.13-.06Z"/><path class="cls-6" d="M33.11,29.87a1,1,0,0,1-.59.26.67.67,0,0,1-.28-.06,1.21,1.21,0,0,1-.26-.2,1.82,1.82,0,0,1-.22-.34l-1-1.91a.7.7,0,0,0-.13-.19.33.33,0,0,0-.15-.11.47.47,0,0,0-.17,0,.49.49,0,0,0-.19.05l-.26.11v.05l1.22,2.33a2,2,0,0,0,.4.55,1.29,1.29,0,0,0,.5.32,1.22,1.22,0,0,0,.57.08,1.8,1.8,0,0,0,1.13-.5,1.07,1.07,0,0,0,.28-.45,1.25,1.25,0,0,0,0-.55,2.12,2.12,0,0,0-.21-.63l-1.22-2.3-.1,0-.1,0-.09,0-.08,0-.07,0-.09,0-.08.05-.08.05L33.07,29a1.73,1.73,0,0,1,.15.36.82.82,0,0,1,0,.31A.55.55,0,0,1,33.11,29.87Z"/><path class="cls-6" d="M27,30.36a1.37,1.37,0,0,0,.29.2,1.4,1.4,0,0,0,.35.1,1.61,1.61,0,0,0,.39,0h.77a1.57,1.57,0,0,1,.24,0,.71.71,0,0,1,.19.06.5.5,0,0,1,.14.1.38.38,0,0,1,.09.13.41.41,0,0,1,.05.18.57.57,0,0,1,0,.18.66.66,0,0,1-.12.17,1,1,0,0,1-.23.14,1.4,1.4,0,0,1-.29.09,1.92,1.92,0,0,1-.32.05h-.33a1.66,1.66,0,0,1-.32,0,.83.83,0,0,0,0,.15,1.1,1.1,0,0,0,0,.18,1.09,1.09,0,0,0,0,.18.84.84,0,0,0,.05.17,2.58,2.58,0,0,0,.39,0l.4,0,.39-.07.35-.13a2,2,0,0,0,.54-.34,1.17,1.17,0,0,0,.3-.42.94.94,0,0,0,.06-.47,1.48,1.48,0,0,0-.15-.48,1.19,1.19,0,0,0-.23-.31,1.41,1.41,0,0,0-.31-.21,1.47,1.47,0,0,0-.37-.13,2.72,2.72,0,0,0-.42,0h-1l-.16,0a.57.57,0,0,1-.13-.08.27.27,0,0,1-.09-.12.48.48,0,0,1-.05-.17.38.38,0,0,1,0-.17.42.42,0,0,1,.11-.16,1.07,1.07,0,0,1,.21-.13l.24-.08.27,0,.29,0a1.22,1.22,0,0,1,.27,0,.75.75,0,0,0,0-.16.43.43,0,0,0,0-.16.88.88,0,0,0,0-.17.58.58,0,0,0-.06-.17,2.79,2.79,0,0,0-.29,0l-.33,0-.36.07a2.53,2.53,0,0,0-.36.12,1.48,1.48,0,0,0-.45.3,1.2,1.2,0,0,0-.29.39,1,1,0,0,0-.08.46,1.1,1.1,0,0,0,.14.48A1.44,1.44,0,0,0,27,30.36Z"/><path class="cls-9" d="M54.22,23,50.57,16.4,17.88,30l3.9,7.62ZM43.58,21.69l.07-.08.09-.06.09-.05.13,0,.11,0a.34.34,0,0,1,.12.06.91.91,0,0,1,.13.1l.71.64.14.13.14.15.14.15.14.16h0c0-.07,0-.13,0-.2s0-.14,0-.21,0-.13,0-.2l0-.18-.17-1.14.06,0,.06,0,.06,0,.06,0,.09,0,.08,0,.08,0h.08l0,0,.35,2.67.58,1.07-.07,0-.07.05-.08,0-.07,0-.07,0-.08,0-.09,0-.09,0-.59-1.09-2.12-1.88Zm-2.89,1.19,2-.84,0,.07,0,.06a.25.25,0,0,1,0,.07.1.1,0,0,0,0,.05l0,.07,0,.08,0,.09a.29.29,0,0,0,0,.09l-1.05.45-.31.13,0,.09,0,.09a.56.56,0,0,1,.05.08l0,.09.28.52.09,0,.09,0,.07,0,.06,0,.8-.34.06.06,0,.07a.25.25,0,0,1,0,.07.21.21,0,0,1,0,.06l0,.06a.3.3,0,0,0,0,.08s0,.05,0,.08a.19.19,0,0,1,0,.07l-.8.35-.31.14.33.6a.3.3,0,0,0,0,.08l0,.08,0,.07a.36.36,0,0,0,0,.09l.07,0a.2.2,0,0,0,.08,0l.09,0,.09,0,1.16-.51,0,.05,0,.07,0,.07,0,.07a.45.45,0,0,1,0,.16.35.35,0,0,1,0,.14.31.31,0,0,1-.09.11.42.42,0,0,1-.14.09l-1.34.59a.33.33,0,0,1-.17,0l-.16,0a.41.41,0,0,1-.14-.1.74.74,0,0,1-.12-.16l-1.63-3.05Zm-3.63,1.57.08-.07.09-.07.11,0a.25.25,0,0,1,.14,0,.32.32,0,0,1,.13,0,.56.56,0,0,1,.13.07l.13.13,1.33,1.48.18.19.17.21.18.22.16.2,0,0H40l-.86-3.23.06,0,.07,0,.07,0,.07,0,.07,0,.08,0,.09,0h.08l0,0,.91,3.85-.11.06-.13.07-.13.06-.13.06a.47.47,0,0,1-.15.06h-.15l-.16-.06a.83.83,0,0,1-.16-.13L37,24.53Zm-3.18,1.32.29-.14.29-.13.28-.12.28-.12a1.94,1.94,0,0,1,.51-.14,1.17,1.17,0,0,1,.9.29,1.5,1.5,0,0,1,.35.45,1.27,1.27,0,0,1,.12.36.79.79,0,0,1,0,.34.75.75,0,0,1-.09.29.94.94,0,0,1-.16.23.44.44,0,0,1,.16,0,.52.52,0,0,1,.16.06,1.19,1.19,0,0,1,.15.09.86.86,0,0,1,.14.13l.47.44a.28.28,0,0,0,.1.09l.1.08.11.07.12,0a.27.27,0,0,1,0,.12l-.07.12a.48.48,0,0,1-.11.09.36.36,0,0,1-.12.08.53.53,0,0,1-.17,0,.4.4,0,0,1-.15,0,.6.6,0,0,1-.15-.09,1.14,1.14,0,0,1-.17-.15l-.54-.53a.75.75,0,0,0-.14-.12.8.8,0,0,0-.16-.08.43.43,0,0,0-.17,0,.63.63,0,0,0-.2.06l-.3.13.73,1.37-.08.06-.09,0-.08,0-.08,0-.07,0-.09,0-.09,0-.09,0-1.89-3.56Zm-4,1.68.26-.11a.49.49,0,0,1,.19-.05.47.47,0,0,1,.17,0,.33.33,0,0,1,.15.11.7.7,0,0,1,.13.19l1,1.91a1.82,1.82,0,0,0,.22.34,1.21,1.21,0,0,0,.26.2.67.67,0,0,0,.28.06,1,1,0,0,0,.59-.26.55.55,0,0,0,.12-.24.82.82,0,0,0,0-.31,1.73,1.73,0,0,0-.15-.36l-1.22-2.32.08-.05.08-.05.09,0,.07,0,.08,0,.09,0,.1,0,.1,0,1.22,2.3a2.12,2.12,0,0,1,.21.63,1.25,1.25,0,0,1,0,.55,1.07,1.07,0,0,1-.28.45,1.8,1.8,0,0,1-1.13.5A1.22,1.22,0,0,1,32,30.7a1.29,1.29,0,0,1-.5-.32,2,2,0,0,1-.4-.55L29.84,27.5Zm-3.16,1.66a1.2,1.2,0,0,1,.29-.39,1.48,1.48,0,0,1,.45-.3,2.53,2.53,0,0,1,.36-.12l.36-.07.33,0a2.79,2.79,0,0,1,.29,0,.58.58,0,0,1,.06.17.88.88,0,0,1,0,.17.43.43,0,0,1,0,.16.75.75,0,0,1,0,.16,1.22,1.22,0,0,0-.27,0l-.29,0-.27,0-.24.08a1.07,1.07,0,0,0-.21.13.42.42,0,0,0-.11.16.38.38,0,0,0,0,.17.48.48,0,0,0,.05.17.27.27,0,0,0,.09.12.57.57,0,0,0,.13.08l.16,0h1a2.72,2.72,0,0,1,.42,0,1.47,1.47,0,0,1,.37.13,1.41,1.41,0,0,1,.31.21,1.19,1.19,0,0,1,.23.31,1.48,1.48,0,0,1,.15.48.94.94,0,0,1-.06.47,1.17,1.17,0,0,1-.3.42,2,2,0,0,1-.54.34l-.35.13-.39.07-.4,0a2.58,2.58,0,0,1-.39,0,.84.84,0,0,1-.05-.17,1.09,1.09,0,0,1,0-.18,1.1,1.1,0,0,1,0-.18.83.83,0,0,1,0-.15,1.66,1.66,0,0,0,.32,0h.33a1.92,1.92,0,0,0,.32-.05,1.4,1.4,0,0,0,.29-.09,1,1,0,0,0,.23-.14.66.66,0,0,0,.12-.17.57.57,0,0,0,0-.18.41.41,0,0,0-.05-.18.38.38,0,0,0-.09-.13.5.5,0,0,0-.14-.1.71.71,0,0,0-.19-.06,1.57,1.57,0,0,0-.24,0H28a1.61,1.61,0,0,1-.39,0,1.4,1.4,0,0,1-.35-.1,1.37,1.37,0,0,1-.29-.2,1.44,1.44,0,0,1-.22-.31,1.1,1.1,0,0,1-.14-.48A1,1,0,0,1,26.69,29.11Z"/><path class="cls-6" d="M43,22.62a.29.29,0,0,1,0-.09l0-.09,0-.08,0-.07a.1.1,0,0,1,0-.05.25.25,0,0,0,0-.07l0-.06,0-.07-2,.84v.05L42.31,26a.74.74,0,0,0,.12.16.41.41,0,0,0,.14.1l.16,0a.33.33,0,0,0,.17,0l1.34-.59a.42.42,0,0,0,.14-.09.31.31,0,0,0,.09-.11.35.35,0,0,0,0-.14.45.45,0,0,0,0-.16l0-.07,0-.07,0-.07,0-.05-1.16.51-.09,0-.09,0a.2.2,0,0,1-.08,0l-.07,0a.36.36,0,0,1,0-.09l0-.07,0-.08a.3.3,0,0,1,0-.08l-.33-.6.31-.14.8-.35a.19.19,0,0,0,0-.07s0-.05,0-.08a.3.3,0,0,1,0-.08l0-.06a.21.21,0,0,0,0-.06.25.25,0,0,0,0-.07l0-.07-.06-.06-.8.34-.06,0-.07,0-.09,0-.09,0-.28-.52,0-.09a.56.56,0,0,0-.05-.08l0-.09,0-.09.31-.13Z"/><path class="cls-6" d="M49,34.91l0,0h0l.08-.06a.29.29,0,0,0,0-.09.22.22,0,0,0,0-.08.2.2,0,0,0,0-.08.35.35,0,0,0,0-.08s0,0-.06-.06a.14.14,0,0,0-.09,0l-.1,0,0,0h0l0,0,0,0,.25.46,0,0Z"/><path class="cls-7" d="M49.33,35a.39.39,0,0,0,.08-.14.47.47,0,0,0,0-.17.49.49,0,0,0-.07-.19.59.59,0,0,0-.13-.17.44.44,0,0,0-.15-.1l-.17,0-.17.06-.08,0-.09,0-.09,0-.09,0h0L49,35.66h.11l0,0h0l0,0,0,0L49,35.14l.15-.08A.45.45,0,0,0,49.33,35Zm-.18-.14-.08.06h0l0,0,0,0,0,0-.25-.46,0,0,0,0h0l0,0,.1,0a.14.14,0,0,1,.09,0s.05,0,.06.06a.35.35,0,0,1,0,.08.2.2,0,0,1,0,.08.22.22,0,0,1,0,.08A.29.29,0,0,1,49.15,34.82Z"/><polygon class="cls-6" points="44.83 30.31 43.12 31.1 44.11 32.96 45.82 32.16 44.83 30.31"/><path class="cls-7" d="M44.9,30l-2.08,1L44,33.25l2.08-1ZM43.12,31.1l1.71-.79,1,1.85-1.71.8Z"/><polygon class="cls-6" points="47.11 34.57 45.41 35.39 46.41 37.26 48.11 36.42 47.11 34.57"/><path class="cls-7" d="M47.19,34.27l-2.07,1,1.22,2.29,2.07-1Zm-1.78,1.12,1.7-.82,1,1.86-1.69.83Z"/><path class="cls-6" d="M48,42.09h0l0,0h0l0,0,0,0h0l-.69-1.28h-.09l0,0h0l0,0h0l0,0,.68,1.28H48Z"/><path class="cls-6" d="M36.91,26.56a.79.79,0,0,0,0-.34,1.27,1.27,0,0,0-.12-.36,1.5,1.5,0,0,0-.35-.45,1.17,1.17,0,0,0-.9-.29,1.94,1.94,0,0,0-.51.14l-.28.12-.28.12-.29.13-.29.14,0,.05,1.89,3.56.09,0,.09,0,.09,0,.07,0,.08,0,.08,0,.09,0,.08-.06-.73-1.37.3-.13a.63.63,0,0,1,.2-.06.43.43,0,0,1,.17,0,.8.8,0,0,1,.16.08.75.75,0,0,1,.14.12l.54.53a1.14,1.14,0,0,0,.17.15.6.6,0,0,0,.15.09.4.4,0,0,0,.15,0,.53.53,0,0,0,.17,0,.36.36,0,0,0,.12-.08.48.48,0,0,0,.11-.09l.07-.12a.27.27,0,0,0,0-.12l-.12,0L37.94,28l-.1-.08a.28.28,0,0,1-.1-.09l-.47-.44a.86.86,0,0,0-.14-.13,1.19,1.19,0,0,0-.15-.09.52.52,0,0,0-.16-.06.44.44,0,0,0-.16,0,.94.94,0,0,0,.16-.23A.75.75,0,0,0,36.91,26.56Zm-.72,0a.32.32,0,0,1-.1.19.57.57,0,0,1-.24.17l-.09,0-.11.05-.12.06-.13.06L34.79,26l.12-.05.12-.05.12-.05.1,0a.72.72,0,0,1,.3-.07.46.46,0,0,1,.23.06A.55.55,0,0,1,36,26a1.43,1.43,0,0,1,.14.2,1,1,0,0,1,.09.22A.55.55,0,0,1,36.19,26.59Z"/><path class="cls-6" d="M46.68,42.08,46.61,42l-.07-.08,0-.06-.41-.45h0l0,0h0l0,0,0,0,0,0,0,0,0,0,.59,1.33h.09l0,0h0l0,0,0,0-.29-.62-.05-.1,0-.11-.05-.1a.93.93,0,0,1,0-.1h0l.63.72h0l0,0h.06l0,0,0,0h0l0,0-.24-.92h0l.06.1a.53.53,0,0,0,.06.1l.06.11a.41.41,0,0,1,.05.09l.36.59h.1l0,0,0,0,0,0,0,0-.77-1.23,0,0h0l0,0,0,0,0,0,0,0,0,0,0,0,.15.58,0,.07,0,.1,0,.1a.51.51,0,0,1,0,.09h0Z"/><path class="cls-8" d="M45.34,42.43a.09.09,0,0,0,0-.07v-.07l0-.06a.21.21,0,0,0,0-.06l0,0a.11.11,0,0,0-.08,0l-.09,0,0,0,0,0,0,0,0,0,.18.35.15-.08Z"/><path class="cls-8" d="M45.52,43.12l0,0,0,0a.22.22,0,0,0,.09-.07.2.2,0,0,0,0-.08.22.22,0,0,0,0-.08l0-.07,0-.07-.07-.05a.14.14,0,0,0-.09,0l-.11,0-.17.08.22.42,0,0Z"/><path class="cls-6" d="M38.31,34.68l0,0a.43.43,0,0,0,0-.07l-.06-.05-.07,0-.08,0a.1.1,0,0,0,0,0,.14.14,0,0,0,0,.07s0,0,0,.08l0,.1Z"/><path class="cls-6" d="M45.6,42.28a.28.28,0,0,0,0-.09.16.16,0,0,0,0-.09.5.5,0,0,0-.1-.14l-.14-.07h-.15A.64.64,0,0,0,45,42l-.09,0-.09,0-.1.05-.09,0v0l.68,1.28h0l.11-.05.1,0,.1-.05.1,0a.43.43,0,0,0,.17-.12A.42.42,0,0,0,46,43a.29.29,0,0,0,0-.16.7.7,0,0,0-.06-.17.39.39,0,0,0-.08-.1l-.09-.08-.11,0h-.11a.25.25,0,0,0,0-.07A.29.29,0,0,0,45.6,42.28Zm-.67-.06,0,0,0,0,0,0,0,0,.09,0a.11.11,0,0,1,.08,0l0,0a.21.21,0,0,1,0,.06l0,.06v.07a.09.09,0,0,1,0,.07l-.08.06-.15.08Zm.65.43.07.05,0,.07,0,.07a.22.22,0,0,1,0,.08.2.2,0,0,1,0,.08.22.22,0,0,1-.09.07l0,0,0,0,0,0,0,0-.22-.42.17-.08.11,0A.14.14,0,0,1,45.58,42.65Z"/><path class="cls-6" d="M44.48,43.63a.35.35,0,0,1-.09.07l-.11,0-.1,0-.09-.07a.62.62,0,0,1-.08-.12l-.36-.68a.18.18,0,0,0,0-.07.1.1,0,0,0-.05,0h-.06l-.06,0-.09,0v0l.44.83a.72.72,0,0,0,.14.19.41.41,0,0,0,.17.11.46.46,0,0,0,.2,0,.6.6,0,0,0,.2-.07.64.64,0,0,0,.18-.13.56.56,0,0,0,.09-.17.44.44,0,0,0,0-.2.79.79,0,0,0-.08-.23l-.44-.83h0l0,0h-.06l0,0,0,0h0l0,0,.45.83a1.21,1.21,0,0,1,0,.14.41.41,0,0,1,0,.11A.36.36,0,0,1,44.48,43.63Z"/><path class="cls-6" d="M39.19,40.21l0,0h0l0,0,0,0,0,0a.05.05,0,0,0,0-.05l0,0-.09-.17,0,0h0l0,0h0a.09.09,0,0,0-.06,0l0,0v.06a.14.14,0,0,0,0,.06Z"/><path class="cls-6" d="M42.67,43.39l.07,0,.08,0,.09,0h.19s0,0,0-.06v-.06s0,0,0-.06a.14.14,0,0,1,0-.06H43l-.11,0a.27.27,0,0,0-.12,0l-.12,0a.44.44,0,0,0-.15.12.42.42,0,0,0-.09.14.33.33,0,0,0,0,.17.37.37,0,0,0,.05.17.44.44,0,0,0,.08.11l.1.07.11,0h.48l.06,0,0,0,0,0a.14.14,0,0,1,0,.07.13.13,0,0,1,0,.06l0,.06-.07.06-.1,0-.11,0h-.21s0,0,0,.06v.06a.13.13,0,0,0,0,.06s0,0,0,.07H43l.13,0a.31.31,0,0,0,.13,0l.11,0a.42.42,0,0,0,.18-.13.36.36,0,0,0,.1-.15.33.33,0,0,0,0-.17.37.37,0,0,0,0-.17.44.44,0,0,0-.08-.11.41.41,0,0,0-.11-.07.28.28,0,0,0-.13,0,.32.32,0,0,0-.14,0h-.33l-.05,0,0,0,0,0a.64.64,0,0,1,0-.07s0,0,0-.06A.21.21,0,0,1,42.67,43.39Z"/><path class="cls-7" d="M39.19,39.77l0,0,0,0a.36.36,0,0,0-.12.08.21.21,0,0,0-.08.11.32.32,0,0,0,0,.14.58.58,0,0,0,0,.16l.07.09.1.07.12,0a.38.38,0,0,0,.13,0l.08-.05.05-.06a.16.16,0,0,0,0-.07l0-.07,0,0h.18a.08.08,0,0,1,0,0V40.1a.06.06,0,0,0,0,0h0l0,0,0,0,0-.05-.2-.39a.75.75,0,0,0-.11-.13.24.24,0,0,0-.12-.07h-.12l-.13,0-.09,0-.09.07-.09.08a.27.27,0,0,0-.07.08l0,0,0,0,0,0,0,0,.06,0,.06-.06,0,0,.07,0,.06,0s0,0,0,0a.1.1,0,0,1,.05,0,.09.09,0,0,1,0,.06l0,.05h0Zm.1.16h0l0,0,.09.17,0,0a.05.05,0,0,1,0,.05l0,0,0,0,0,0h0l0,0,0,0a.14.14,0,0,1,0-.06v-.06l0,0a.09.09,0,0,1,.06,0l0,0Z"/><path class="cls-7" d="M38.05,39.92H38l-.08,0v.12s0,0,0,0l0,0,0,0,0,0,.05.07.33.63h0l0,0h.06l0,0,0,0h0l0,0-.32-.61v-.06a.14.14,0,0,1,0-.06l0,0,0,0h.09v-.07s0,0,0-.07a.25.25,0,0,0,0-.07s0,0,0,0h-.06l0,0h0a.26.26,0,0,0-.12.12s0,0,0,.08V40l-.06,0Z"/><path class="cls-6" d="M37.57,40.58v0a.56.56,0,0,0-.05-.08l-.06,0-.07,0H37.3l0,0s0,0,0,.07a.25.25,0,0,0,0,.08.76.76,0,0,0,0,.11Z"/><path class="cls-8" d="M49.42,38.64l-9.18,4.64,1.5,2.86,9.16-4.75ZM43.6,44.22a.36.36,0,0,1-.1.15.42.42,0,0,1-.18.13l-.11,0a.31.31,0,0,1-.13,0l-.13,0h-.14s0,0,0-.07a.13.13,0,0,1,0-.06V44.4s0,0,0-.06H43l.11,0,.1,0,.07-.06,0-.06a.13.13,0,0,0,0-.06.14.14,0,0,0,0-.07l0,0,0,0-.06,0h-.48l-.11,0-.1-.07a.44.44,0,0,1-.08-.11.37.37,0,0,1-.05-.17.33.33,0,0,1,0-.17.42.42,0,0,1,.09-.14.44.44,0,0,1,.15-.12l.12,0a.27.27,0,0,1,.12,0L43,43h.1a.14.14,0,0,0,0,.06s0,0,0,.06v.06s0,0,0,.06h-.19l-.09,0-.08,0-.07,0a.21.21,0,0,0,0,.06s0,0,0,.06a.64.64,0,0,0,0,.07l0,0,0,0,.05,0h.33a.32.32,0,0,1,.14,0,.28.28,0,0,1,.13,0,.41.41,0,0,1,.11.07.44.44,0,0,1,.08.11.37.37,0,0,1,0,.17A.33.33,0,0,1,43.6,44.22Zm1.16-.62a.56.56,0,0,1-.09.17.64.64,0,0,1-.18.13.6.6,0,0,1-.2.07.46.46,0,0,1-.2,0,.41.41,0,0,1-.17-.11.72.72,0,0,1-.14-.19l-.44-.83v0l.09,0,.06,0h.06a.1.1,0,0,1,.05,0,.18.18,0,0,1,0,.07l.36.68a.62.62,0,0,0,.08.12l.09.07.1,0,.11,0a.35.35,0,0,0,.09-.07.36.36,0,0,0,0-.09.41.41,0,0,0,0-.11,1.21,1.21,0,0,0,0-.14L44,42.46l0,0h0l0,0,0,0h.06l0,0h0l.44.83a.79.79,0,0,1,.08.23A.44.44,0,0,1,44.76,43.6ZM46,43a.42.42,0,0,1-.09.14.43.43,0,0,1-.17.12l-.1,0-.1.05-.1,0-.11.05h0l-.68-1.28v0l.09,0,.1-.05.09,0L45,42a.64.64,0,0,1,.18-.06h.15l.14.07a.5.5,0,0,1,.1.14.16.16,0,0,1,0,.09.28.28,0,0,1,0,.09.29.29,0,0,1,0,.09.25.25,0,0,1,0,.07h.11l.11,0,.09.08a.39.39,0,0,1,.08.1.7.7,0,0,1,.06.17A.29.29,0,0,1,46,43Zm1.57-.69,0,0,0,0,0,0h-.1L47,41.81a.41.41,0,0,0-.05-.09l-.06-.11a.53.53,0,0,1-.06-.1l-.06-.1h0l.24.92,0,0h0l0,0,0,0h-.06l0,0h0l-.63-.72h0a.93.93,0,0,0,0,.1l.05.1,0,.11.05.1.29.62,0,0,0,0h0l0,0h-.09l-.59-1.33,0,0,0,0,0,0,0,0,0,0h0l0,0h0l.41.45,0,.06.07.08.07.08,0,.07h0a.51.51,0,0,0,0-.09l0-.1,0-.1,0-.07-.15-.58,0,0,0,0,0,0,0,0,0,0,0,0h0l0,0,.77,1.23ZM48.1,42l0,0,0,0h0l0,0H47.9l-.68-1.28,0,0h0l0,0h0l0,0h.09L48.13,42Zm.76-.39,0,0,0,0h-.05l0,0h-.07l-.49-.93,0,0,0,0,0,0,0,0h0l0,0h0l-.18.1,0,0,0,0,0,0v-.07l0,0v0l.81-.41v0l0,0,0,0v0a.14.14,0,0,1,0,.06v0l0,0,0,0-.08,0h-.08l0,0,0,0,0,0v0l0,0,.5.93Z"/><path class="cls-7" d="M37.85,40.61s0,0,0,0,0,0,0,0l0-.05a.58.58,0,0,0-.11-.15.42.42,0,0,0-.14-.09.41.41,0,0,0-.16,0,.59.59,0,0,0-.17,0,.53.53,0,0,0-.16.13.44.44,0,0,0-.06.16.45.45,0,0,0,0,.2,1.8,1.8,0,0,0,.08.21,1.4,1.4,0,0,0,.12.18.47.47,0,0,0,.15.13.34.34,0,0,0,.17,0,.41.41,0,0,0,.21,0,.31.31,0,0,0,.1,0l.08-.07.06-.08A.22.22,0,0,0,38,41l0,0,0,0,0,0,0,0-.05.06,0,.05-.05,0-.06,0-.1,0a.12.12,0,0,1-.08,0l-.07,0-.06-.09.5-.24S37.85,40.63,37.85,40.61Zm-.58.12a.76.76,0,0,1,0-.11.25.25,0,0,1,0-.08s0,0,0-.07l0,0h.08l.07,0,.06,0a.56.56,0,0,1,.05.08v0Z"/><polygon class="cls-6" points="29.23 37.52 30.28 38.12 30.42 36.97 29.23 37.52"/><polygon class="cls-6" points="33.23 41.28 31.33 42.19 32.37 44.18 34.26 43.25 33.23 41.28"/><path class="cls-7" d="M33.32,41,31,42.08l1.26,2.43,2.31-1.14Zm-2,1.23,1.9-.91,1,2-1.9.93Z"/><path class="cls-10" d="M17.32,28.46a.66.66,0,0,0,0,.25.68.68,0,0,0,.07.26l.52,1L50.57,16.4l-.49-.89a.7.7,0,0,0-.15-.19.86.86,0,0,0-.2-.13.54.54,0,0,0-.22,0,.52.52,0,0,0-.21,0l-19.46,8-12.16,5a.71.71,0,0,0-.22.15A.64.64,0,0,0,17.32,28.46Z"/><path class="cls-11" d="M11.2,25.89a1.44,1.44,0,0,0-.35.54,1.47,1.47,0,0,0-.1.63,1.59,1.59,0,0,0,.18.65L27.17,59.8a1.85,1.85,0,0,0,.45.58,1.79,1.79,0,0,0,.6.34,1.69,1.69,0,0,0,1.36-.13l37.13-20.4a1.23,1.23,0,0,0,.39-.36,1.28,1.28,0,0,0,.2-.5,1.37,1.37,0,0,0,0-.57,1.87,1.87,0,0,0-.2-.59L52.2,11.31a1.74,1.74,0,0,0-.38-.47,1.69,1.69,0,0,0-.49-.31,1.44,1.44,0,0,0-.53-.14,1.37,1.37,0,0,0-.53.08L26.39,19.81,11.77,25.52A1.65,1.65,0,0,0,11.2,25.89Zm6.12,2.57a.64.64,0,0,1,.14-.22.71.71,0,0,1,.22-.15l12.16-5L49.3,15.18a.52.52,0,0,1,.21,0,.54.54,0,0,1,.22,0,.86.86,0,0,1,.2.13.7.7,0,0,1,.15.19l.49.89L54.22,23,62,37.18a.63.63,0,0,1,.08.23.88.88,0,0,1,0,.23.61.61,0,0,1-.09.2.43.43,0,0,1-.16.14L51.16,43.63,31.08,54.25a.9.9,0,0,1-.27.07.74.74,0,0,1-.26,0,.72.72,0,0,1-.24-.14,1,1,0,0,1-.18-.22L17.88,30l-.52-1a.68.68,0,0,1-.07-.26A.66.66,0,0,1,17.32,28.46Z"/></g><g class="cls-12"><path class="cls-6" d="M58,41.71h0a9,9,0,0,1,1.54-1.07l1.89-1a.65.65,0,0,0,.16-1.1L42.37,20a1.58,1.58,0,0,0-1.56-.3l-2.13.87c-.48.2-1.27.53-1.74.74a.58.58,0,0,0-.19,1L56.6,41.68A1,1,0,0,0,58,41.71Z"/></g><g class="cls-13"><path class="cls-14" d="M28.91,60.8l.14,0a16.36,16.36,0,0,0,.11-2.09,25.09,25.09,0,0,0-.83-4.45A38.65,38.65,0,0,0,27.06,50c-.42-.93-1.64-2.6-2.13-3.49a18.49,18.49,0,0,0-1.2-2.13c-.56-.7-1.78-1.65-2.3-2.38-.32-.46-.8-1.51-1.11-2A10.62,10.62,0,0,0,16.92,37a1.65,1.65,0,0,0-.36-.11h0a1.25,1.25,0,0,0-.92.14L27.17,59.8a1.74,1.74,0,0,0,.89.85h0l-.09,0h0l.09,0h0l.08,0-.08,0,.16.06A1.72,1.72,0,0,0,28.91,60.8Z"/></g><path class="cls-15" d="M50.05,42.11C51.37,43.17,56.17,46,56.17,46l2.52-1.38-10-5s-.42.12-.4.48C48.36,40.79,49.48,41.66,50.05,42.11Z"/><path class="cls-16" d="M57.2,43.91c.35-.3.13-1.88.13-1.88l-2.39.59.43,1.7A2.11,2.11,0,0,0,57.2,43.91Z"/><path class="cls-17" d="M62.21,47.78A29.38,29.38,0,0,0,59,45.28c-1-.41-3.37-.92-4.31-.44a1.54,1.54,0,0,0-.61,1.53c.13.54,1.27,1,1.72,1.36.67.49,1.94,1.46,2.64,1.92s2.07,1.25,2.72,1.75c.88.66,2.28,2.45,3.24,3,2.15,1.18,7.61,2.95,9.32,2.76a20.88,20.88,0,0,1,2.74,0,23.24,23.24,0,0,1,3.41.53,1.85,1.85,0,0,1,.31.11c.15.07.27.15.41.23a3,3,0,0,0,.75.3V47.44l-.11,0c-1.23-.43-2.79-2-3.89-2.67-1.65-1.07-4.8-3.43-6.36-4.63-.51-.4-1.51-1.22-2-1.63-1-.86-2.83-3.08-4.12-3.45-.38-.11-1,.14-1.44.09s-1.44-.7-1.92-.7c-.82,0-1.34.9-1.85,1s-.79-.56-1.76-.38c-.58.1-1.28,1.67-1.59,2.17l-1.35,2s-1.46-.28-2-.35a27.1,27.1,0,0,0-4.21-.64c-.25,0-.48.75-.45,1,.09.64,1.1,1.44,1.89,1.73.43.16,1.36.32,1.78.51s1.15.65,1.57.83,1.66.51,2.17.74,1.45.91,2,1.18S59.45,45,60,45.32a20,20,0,0,1,2.78,2.14c.3.28,1.17,1.09,1,1.27C63.81,48.73,62.59,48,62.21,47.78Zm-4-8,2.32.61.82,1Z"/><path class="cls-18" d="M62.21,47.78A29.38,29.38,0,0,0,59,45.28c-1-.41-3.37-.92-4.31-.44a1,1,0,0,0-.43.46,1.57,1.57,0,0,1,.89-.34,8,8,0,0,1,2.78.72A12.9,12.9,0,0,1,60,47c.59.47,1.56,1.27,2.17,1.7s6.24,3.18,6,3a23,23,0,0,1-2.25-1.22c-.41-.38-3.53-4-4-4.56a22.64,22.64,0,0,0-8.1-4.33,20.46,20.46,0,0,1-2-.91,15.38,15.38,0,0,0-2.12-.56,1.92,1.92,0,0,1-1.34-1.15.83.83,0,0,0,0,.29c.09.64,1.1,1.44,1.88,1.73.44.16,1.37.32,1.79.51s1.15.65,1.57.83,1.66.51,2.17.74,1.45.91,2,1.18S59.45,45,60,45.32a20,20,0,0,1,2.78,2.14c.3.28,1.17,1.09,1,1.27C63.81,48.73,62.59,48,62.21,47.78Z"/><path class="cls-18" d="M63.9,35.09s-.29,0-.39,0A4.93,4.93,0,0,1,63,35s2.52,1.92,3.47,2.55C66.88,37.82,63.9,35.09,63.9,35.09Z"/><path class="cls-18" d="M62.55,36.73C62,36.35,60.25,35,60.25,35a3,3,0,0,1-.25.19l-.38.17s2.2,1.23,2.92,1.66,1.72,1,2.38,1.37A25.15,25.15,0,0,0,62.55,36.73Z"/><path class="cls-18" d="M58.91,40c.47.08,1.49.37,1.49.37a8,8,0,0,0,1,1,2.32,2.32,0,0,0,1.28.28c.32-.06,1-.64.77-.82-.9-.63-2.3-1.84-3.21-2.36-.69-.38-2.4-1.93-2.88-1.3-.6.81-1.38,2.2-1.38,2.2l1.53.21.64.18S58.75,40,58.91,40Z"/><path class="cls-19" d="M56.64,47.26c.14-.18.59-.6.56-.82-.09-.6-1.39-1.24-2-1.25-.31,0-.9,0-1.11.45a1.05,1.05,0,0,0,.12,1,4.44,4.44,0,0,0,2,1.19C56.39,47.89,56.53,47.4,56.64,47.26Z"/><path class="cls-19" d="M50.53,39.22c.09,0,.13-.2.15-.36s.1-.42.1-.42a12.05,12.05,0,0,0-2-.36.42.42,0,0,0-.24.77A2.55,2.55,0,0,0,50.53,39.22Z"/><path class="cls-17" d="M26.2,68.06s.73-7.35.87-8.65a19.39,19.39,0,0,0,.5-6.68c-.6-3.54-4.34-8.4-5.46-10.17-.48-.76-1.3-2.22-1.81-3-.32-.45-.81-1.5-1.11-2a10.54,10.54,0,0,0-3.41-3.07,1.29,1.29,0,0,0-1.87,1.06.27.27,0,0,1-.13.3,3.75,3.75,0,0,0-1.54,1.89,15.82,15.82,0,0,0-.85,3.23c-.1.54-.24,1.63-.34,2.17a12.82,12.82,0,0,0-.3,1.62,24.38,24.38,0,0,1,.43,2.51c0,.33-.56,1-.56,1.32,0,.69,1,1.77,1.41,2.3,1.55,1.92,4.58,4.86,5.5,6.86a4.26,4.26,0,0,1,.29,1.62c-.26,3.51.78,4.28-.94,8.61Z"/><path class="cls-18" d="M15.61,41.82c-1-.23-.14,0,1.12,1.75.2.28.29,1.16.6,1,.51-.18.2-1.39,0-1.89a12.67,12.67,0,0,0-1.65-2.24,10.67,10.67,0,0,1-1.39-2.15,5.83,5.83,0,0,1-.45-2.3c.1-.46-.34.31-.2,1.3s.73,3.34,1.1,3.63C15.48,41.55,15.89,41.89,15.61,41.82Z"/><path class="cls-18" d="M10.75,44.86Z"/><path class="cls-18" d="M10.75,44.86v.07a5.71,5.71,0,0,0,.44,1.56c.32.57,1.6,1.46,2.11,1s-.78-.93-1.33-1C11.06,46.39,10.78,45,10.75,44.86Z"/><path class="cls-19" d="M13.91,35.55c0,.64.56,1.88,1.17,2.09.25.09.9-.4,1.14-.53s.77-.29.8-.59a2.75,2.75,0,0,0-1.59-2.07A1.22,1.22,0,0,0,13.91,35.55Z"/><path class="cls-18" d="M17.39,39.14c-.24.09-1,.58-1,.8a7,7,0,0,0,2.11-1.13C18.91,38.44,17.67,39,17.39,39.14Z"/><path class="cls-18" d="M17,38.51c-.24.1-1,.58-1,.8a7,7,0,0,0,2.11-1.13C18.49,37.82,17.25,38.4,17,38.51Z"/><path class="cls-18" d="M18.87,59.19c1-5-4.77-11.34-5.6-12.06s-2.07-.64-2.51-2.2a20.15,20.15,0,0,1,.42,2.42c0,.33-.56,1-.56,1.32,0,.69,1,1.77,1.41,2.3,1.55,1.92,4.58,4.86,5.5,6.86a4.26,4.26,0,0,1,.29,1.62c-.24,3.32,1.34,2.58-.64,7.84C18.6,63.59,18,63.63,18.87,59.19Z"/><path class="cls-18" d="M10.87,48l1.2,0c.24-.84.95-1,.17-1.45s-.88-1.42-.66-3.21.29-4.71.93-6c-.1.18-.18.36-.27.53a15.82,15.82,0,0,0-.85,3.23c-.1.54-.24,1.63-.34,2.17a12.82,12.82,0,0,0-.3,1.62,24.38,24.38,0,0,1,.43,2.51A2.6,2.6,0,0,1,10.87,48Z"/><path class="cls-18" d="M12,39.41Z"/><path class="cls-18" d="M13.84,35.89v0S13.84,35.89,13.84,35.89Z"/><path class="cls-18" d="M12,39.32c.09-.58,1.67-1.25,2.09,0s.66-.07.26-.87a5,5,0,0,1-.5-2.53h-.06a3.75,3.75,0,0,0-1.54,1.89,5.37,5.37,0,0,0-.36,1h0c.23-.43.12.41.09.59Z"/><g class="cls-12"><path class="cls-6" d="M20,27.84a.58.58,0,0,0-.2,1l19.85,19.3a1.39,1.39,0,0,0,1.51.22l3.67-1.94,1.67-.89,1.89-1a.65.65,0,0,0,.16-1.1L29.36,25a1.6,1.6,0,0,0-1.56-.3l-2.13.88-1.76.71Z"/></g></g></g></g></svg>